<svg width="40" height="40" viewBox="0 0 40 40" fill="none" xmlns="http://www.w3.org/2000/svg">
<path d="M0 20C0 8.95431 8.95431 0 20 0C31.0457 0 40 8.95431 40 20C40 31.0457 31.0457 40 20 40C8.95431 40 0 31.0457 0 20Z" fill="#E6F2FA"/>
<g clip-path="url(#clip0_6665_22173)">
<path d="M16.3322 19.4164H18.7497V23.3345H16.3322V25.8345H23.6672V23.3345H21.2497V16.9164H16.3322V19.4164Z" fill="#134276"/>
<path d="M21.2497 15.4158V13.582H18.7497V15.4158H21.2497Z" fill="#134276"/>
<path fill-rule="evenodd" clip-rule="evenodd" d="M19.9997 8.66455C16.9933 8.66455 14.11 9.85884 11.9842 11.9847C9.85835 14.1105 8.66406 16.9938 8.66406 20.0002C8.66406 23.0066 9.85835 25.8899 11.9842 28.0157C14.11 30.1415 16.9933 31.3358 19.9997 31.3358C23.0061 31.3358 25.8894 30.1415 28.0152 28.0157C30.1411 25.8898 31.3353 23.0066 31.3353 20.0002C31.3353 16.9938 30.1411 14.1105 28.0152 11.9847C25.8894 9.85884 23.0061 8.66455 19.9997 8.66455ZM13.752 13.7524C15.409 12.0954 17.6563 11.1646 19.9997 11.1646C22.3431 11.1646 24.5904 12.0954 26.2474 13.7524C27.9044 15.4094 28.8353 17.6568 28.8353 20.0002C28.8353 22.3436 27.9044 24.5909 26.2474 26.2479C24.5904 27.9049 22.3431 28.8358 19.9997 28.8358C17.6563 28.8358 15.409 27.9049 13.752 26.2479C12.095 24.5909 11.1641 22.3435 11.1641 20.0002C11.1641 17.6568 12.095 15.4095 13.752 13.7524Z" fill="#134276"/>
</g>
<defs>
<clipPath id="clip0_6665_22173">
<rect width="24" height="24" fill="white" transform="translate(8 8)"/>
</clipPath>
</defs>
</svg>
