<svg width="30" height="31" viewBox="0 0 30 31" fill="none" xmlns="http://www.w3.org/2000/svg">
<path fill-rule="evenodd" clip-rule="evenodd" d="M13.151 3.44434L2.16406 25.1437H12.7908L11.8214 24.1744L17.008 18.9878L20.6368 22.6166L21.9632 20.8481L13.151 3.44434ZM23.1949 23.2809L21.7977 25.1437H24.1381L23.1949 23.2809ZM19.7062 25.1437L17.008 22.4455L15.2792 24.1744L16.2485 25.1437H19.7062Z" fill="#35C0BA"/>
<path d="M14.4811 11.5337V18.0025H11.821V11.5337H14.4811Z" fill="#134276"/>
<path d="M14.4811 19.8939V22.3969H11.821V19.8939H14.4811Z" fill="#134276"/>
<path d="M22.8486 19.6533L20.4756 20.8545L13.1504 6.3877L4.32812 23.8135H13.1514V26.4736H0L13.1514 0.5L22.8486 19.6533Z" fill="#134276"/>
<path d="M29.4327 19.1689L21.1778 30.1757L15.2032 24.2011L17.084 22.3203L20.8897 26.1259L27.3047 17.5732L29.4327 19.1689Z" fill="#134276"/>
</svg>
