<svg width="28" height="29" viewBox="0 0 28 29" fill="none" xmlns="http://www.w3.org/2000/svg">
<path d="M7.44258 16.5001C7.44258 17.6239 7.66392 18.7366 8.09398 19.7749C8.52403 20.8131 9.15437 21.7565 9.94901 22.5511C10.7436 23.3458 11.687 23.9761 12.7253 24.4062C13.7635 24.8362 14.8763 25.0576 16.0001 25.0576C17.1239 25.0576 18.2366 24.8362 19.2749 24.4062C20.3131 23.9761 21.2565 23.3458 22.0511 22.5511C22.8458 21.7565 23.4761 20.8131 23.9062 19.7749C24.3362 18.7366 24.5576 17.6239 24.5576 16.5001C24.5576 14.2305 23.656 12.0539 22.0511 10.449C20.4463 8.84417 18.2697 7.94258 16.0001 7.94258C13.7305 7.94258 11.5539 8.84417 9.94901 10.449C8.34417 12.0539 7.44258 14.2305 7.44258 16.5001Z" fill="#35C0BA"/>
<path d="M17.3302 11.6101V21.3904H14.67V11.6101H17.3302Z" fill="#134276"/>
<path d="M20.8904 15.17V17.8302H11.1101V15.17H20.8904Z" fill="#134276"/>
<path d="M24.5576 16.5001C24.5576 21.2263 20.7263 25.0576 16.0001 25.0576C11.2739 25.0576 7.44258 21.2263 7.44258 16.5001C7.44258 11.7739 11.2739 7.94258 16.0001 7.94258C20.7263 7.94258 24.5576 11.7739 24.5576 16.5001Z" fill="#35C0BA"/>
<path d="M23.2277 16.5002C23.2277 12.5086 19.9918 9.27272 16.0002 9.27266C12.0085 9.27266 8.77266 12.5085 8.77266 16.5002C8.77272 20.4918 12.0086 23.7277 16.0002 23.7277C19.9917 23.7277 23.2277 20.4917 23.2277 16.5002Z" fill="#134276"/>
<path d="M25.8879 16.5002C25.8878 21.9608 21.4608 26.3878 16.0002 26.3879C10.5395 26.3879 6.11256 21.9609 6.1125 16.5002C6.1125 11.0395 10.5395 6.6125 16.0002 6.6125C21.4609 6.61256 25.8879 11.0395 25.8879 16.5002Z" fill="#134276"/>
<path d="M27.9421 26.5618L26.0612 28.4427L21.11 23.4915L22.9909 21.6107L27.9421 26.5618Z" fill="#134276"/>
<path d="M2.66016 20.7788V24.9497H6.83105V27.6099H0V20.7788H2.66016Z" fill="#134276"/>
<path d="M2.66016 9.77633V18.3339H0V9.77633H2.66016Z" fill="#134276"/>
<path d="M6.83105 0.5V3.16016H2.66016V7.33105H0V0.5H6.83105Z" fill="#134276"/>
<path d="M17.8339 0.5V3.16016H9.27633V0.5H17.8339Z" fill="#134276"/>
<path d="M27.1099 0.5V7.33105H24.4497V3.16016H20.2788V0.5H27.1099Z" fill="#134276"/>
<path d="M16.0001 24.0576C15.0076 24.0576 14.0244 23.8622 13.1075 23.4824C12.1908 23.1026 11.3581 22.5454 10.6564 21.8438C9.95463 21.142 9.39755 20.3085 9.01775 19.3916C8.63808 18.4749 8.44258 17.4924 8.44256 16.5001L8.45233 16.1251C8.54503 14.2572 9.32773 12.4851 10.6564 11.1564C12.0737 9.73911 13.9957 8.94256 16.0001 8.94256C18.0044 8.9426 19.9265 9.73914 21.3438 11.1564C22.761 12.5737 23.5576 14.4958 23.5576 16.5001L23.5478 16.8712C23.5053 17.7366 23.3147 18.5894 22.9824 19.3916C22.6026 20.3085 22.0455 21.142 21.3438 21.8438C20.642 22.5455 19.8085 23.1026 18.8916 23.4824C17.9749 23.8621 16.9923 24.0576 16.0001 24.0576Z" fill="#35C0BA"/>
</svg>
