<svg width="30" height="31" viewBox="0 0 30 31" fill="none" xmlns="http://www.w3.org/2000/svg">
<path d="M1.55225 15.2776C1.55225 18.8441 2.96904 22.2645 5.49093 24.7864C8.01283 27.3083 11.4333 28.7251 14.9997 28.7251C18.5663 28.7251 21.9867 27.3083 24.5086 24.7864C27.0305 22.2645 28.4473 18.8441 28.4473 15.2776C28.4473 11.7111 27.0305 8.29066 24.5086 5.76876C21.9867 3.24687 18.5663 1.83008 14.9997 1.83008C11.4333 1.83008 8.01283 3.24687 5.49093 5.76876C2.96904 8.29066 1.55225 11.7111 1.55225 15.2776Z" fill="#35C0BA"/>
<path d="M27.4468 15.2773C27.4467 11.9761 26.1356 8.80989 23.8013 6.47559C21.4669 4.14139 18.3007 2.83008 14.9995 2.83008C11.6983 2.83014 8.53206 4.14128 6.19775 6.47559C3.86345 8.80989 2.55231 11.9761 2.55225 15.2773C2.55225 18.5785 3.86355 21.7448 6.19775 24.0791C8.53205 26.4134 11.6983 27.7245 14.9995 27.7246L14.9997 28.7251L14.6655 28.7207C11.3313 28.6379 8.14614 27.3187 5.72998 25.0195L5.49093 24.7864C3.04796 22.3433 1.6416 19.0568 1.55615 15.6113L1.55225 15.2776C1.55231 11.8227 2.88163 8.50451 5.25732 6.00781L5.49093 5.76876C8.01283 3.24687 11.4333 1.83008 14.9997 1.83008L15.3335 1.83398C18.7789 1.91943 22.0655 3.3258 24.5086 5.76876C27.0305 8.29066 28.4473 11.7111 28.4473 15.2776L28.4429 15.6113C28.3574 19.0569 26.9517 22.3433 24.5086 24.7864L24.27 25.0195C21.7732 27.3956 18.4549 28.7251 14.9997 28.7251L14.9995 27.7246C18.3008 27.7246 21.4669 26.4135 23.8013 24.0791C26.1356 21.7447 27.4468 18.5787 27.4468 15.2773Z" fill="#134276"/>
<path d="M1.55225 15.2776C1.55225 18.8441 2.96904 22.2645 5.49093 24.7864C8.01283 27.3083 11.4333 28.7251 14.9997 28.7251C18.5663 28.7251 21.9867 27.3083 24.5086 24.7864C27.0305 22.2645 28.4473 18.8441 28.4473 15.2776C28.4473 11.7111 27.0305 8.29066 24.5086 5.76876C21.9867 3.24687 18.5663 1.83008 14.9997 1.83008C11.4333 1.83008 8.01283 3.24687 5.49093 5.76876C2.96904 8.29066 1.55225 11.7111 1.55225 15.2776Z" fill="#35C0BA"/>
<path d="M27.1177 15.2773C27.1176 12.0637 25.8403 8.98139 23.5679 6.70898C21.2954 4.43667 18.2132 3.16016 14.9995 3.16016C11.7858 3.16022 8.70357 4.43657 6.43115 6.70898C4.15874 8.9814 2.88239 12.0637 2.88232 15.2773C2.88232 18.491 4.15884 21.5733 6.43115 23.8457C8.70356 26.1181 11.7858 27.3954 14.9995 27.3955C18.2133 27.3955 21.2954 26.1182 23.5679 23.8457C25.8403 21.5732 27.1177 18.4911 27.1177 15.2773ZM29.7769 15.2773C29.7769 19.1966 28.2201 22.9552 25.4487 25.7266C22.6774 28.4979 18.9188 30.0547 14.9995 30.0547C11.0804 30.0546 7.32156 28.4978 4.55029 25.7266C1.77913 22.9553 0.222168 19.1965 0.222168 15.2773C0.22223 11.3582 1.77903 7.59939 4.55029 4.82812C7.32156 2.05686 11.0804 0.500062 14.9995 0.5C18.9187 0.5 22.6774 2.05696 25.4487 4.82812C28.22 7.59939 29.7768 11.3582 29.7769 15.2773Z" fill="#134276"/>
<path d="M18.056 7.33133L21.7235 10.9988L18.056 14.6663" fill="#35C0BA"/>
<path d="M23.6048 10.9993L18.9964 15.6067L17.1156 13.7259L19.8412 10.9983L17.1156 8.27176L18.9964 6.3909L23.6048 10.9993Z" fill="#134276"/>
<path d="M21.7233 9.66875V12.3289H7.66475V9.66875H21.7233Z" fill="#134276"/>
<path d="M11.9435 15.8888L8.276 19.5563L11.9435 23.2238" fill="#35C0BA"/>
<path d="M12.8844 16.8293L10.1569 19.5558L12.8844 22.2834L11.0026 24.1642L6.39514 19.5568L11.0026 14.9484L12.8844 16.8293Z" fill="#134276"/>
<path d="M22.3346 18.2262V20.8864H8.276V18.2262H22.3346Z" fill="#134276"/>
</svg>
