<svg width="24" height="24" viewBox="0 0 24 24" fill="none" xmlns="http://www.w3.org/2000/svg">
<g clip-path="url(#clip0_8283_24065)">
<path d="M17.3309 9.11308L15.3788 7.55135L10.7499 13.3374L8.52841 11.1158L6.76065 12.8836L10.9572 17.0802L17.3309 9.11308Z" fill="#388314"/>
<path fill-rule="evenodd" clip-rule="evenodd" d="M11.9997 0.664062C8.99329 0.664062 6.11003 1.85835 3.98419 3.98419C1.85835 6.11003 0.664062 8.99329 0.664062 11.9997C0.664062 15.0061 1.85835 17.8894 3.98419 20.0152C6.11004 22.1411 8.9933 23.3353 11.9997 23.3353C15.0061 23.3353 17.8894 22.1411 20.0152 20.0152C22.1411 17.8894 23.3353 15.0061 23.3353 11.9997C23.3353 8.9933 22.1411 6.11004 20.0152 3.98419C17.8894 1.85835 15.0061 0.664062 11.9997 0.664062ZM5.75196 5.75196C7.40896 4.09496 9.65634 3.16406 11.9997 3.16406C14.3431 3.16406 16.5904 4.09496 18.2474 5.75196C19.9044 7.40896 20.8353 9.65633 20.8353 11.9997C20.8353 14.3431 19.9044 16.5904 18.2474 18.2474C16.5904 19.9044 14.3431 20.8353 11.9997 20.8353C9.65633 20.8353 7.40896 19.9044 5.75196 18.2474C4.09496 16.5904 3.16406 14.3431 3.16406 11.9997C3.16406 9.65634 4.09496 7.40896 5.75196 5.75196Z" fill="#388314"/>
</g>
<defs>
<clipPath id="clip0_8283_24065">
<rect width="24" height="24" fill="white"/>
</clipPath>
</defs>
</svg>
