<svg width="28" height="28" viewBox="0 0 28 28" fill="none" xmlns="http://www.w3.org/2000/svg">
<path d="M9.1099 2.2749C5.05889 2.2749 1.7749 5.55889 1.7749 9.6099V19.4191C1.7749 21.4724 2.4578 24.071 5.64226 24.071C8.82671 24.071 9.64602 21.2686 9.64602 19.4191C9.64602 19.4191 10.9147 18.2912 13.1569 16.0962C15.3991 13.9011 16.4449 11.9042 16.4449 9.6099C16.4449 5.55889 13.1609 2.2749 9.1099 2.2749Z" fill="#35C0BA"/>
<path d="M27.5552 16.6538C27.5552 22.801 22.5716 27.7845 16.4243 27.7847V25.1245C21.1025 25.1243 24.895 21.3319 24.895 16.6538H27.5552ZM15.1147 9.60986C15.1147 6.29341 12.4263 3.60498 9.10986 3.60498C5.79342 3.605 3.105 6.29342 3.10498 9.60986V19.4194C3.10502 20.3399 3.26534 21.2094 3.64111 21.8081C3.95477 22.3078 4.48507 22.7407 5.64209 22.7407C6.76476 22.7407 7.35334 22.2846 7.72119 21.7163C8.13912 21.0704 8.31587 20.1872 8.31592 19.4194V18.8218L8.76221 18.4253L8.76514 18.4233C8.76711 18.4216 8.76973 18.4183 8.77393 18.4146C8.78284 18.4066 8.79732 18.3942 8.81592 18.3774C8.85312 18.344 8.90984 18.2933 8.98486 18.2251C9.13498 18.0886 9.35922 17.8822 9.65381 17.6079C10.2434 17.0588 11.1133 16.2353 12.2261 15.146C14.3238 13.0923 15.1147 11.4163 15.1147 9.60986ZM22.6548 16.6538C22.6548 20.0946 19.8652 22.8841 16.4243 22.8843V20.2241C18.3961 20.2239 19.9946 18.6256 19.9946 16.6538H22.6548ZM9.10986 5.83447C11.2134 5.83447 12.9194 7.54052 12.9194 9.64404H10.2593C10.2593 9.00961 9.74432 8.49463 9.10986 8.49463C8.4756 8.49483 7.96143 9.00972 7.96143 9.64404H5.30127C5.30127 7.54066 7.00651 5.83467 9.10986 5.83447ZM17.7749 9.60986C17.7749 12.3919 16.474 14.7099 14.0874 17.0464C12.9582 18.1519 12.0725 18.9906 11.4673 19.5542C11.2618 19.7456 11.0871 19.904 10.9478 20.0317C10.8707 21.0103 10.6011 22.1613 9.95459 23.1606C9.11666 24.4557 7.70364 25.4009 5.64209 25.4009C3.61507 25.4008 2.21208 24.5348 1.38818 23.2222C0.626503 22.0085 0.444858 20.5521 0.444824 19.4194V9.60986C0.444845 4.82435 4.32435 0.944845 9.10986 0.944824C13.8954 0.944824 17.7749 4.82433 17.7749 9.60986Z" fill="#134276"/>
</svg>
