<svg width="28" height="29" viewBox="0 0 28 29" fill="none" xmlns="http://www.w3.org/2000/svg">
<path d="M9.1099 8.99865L26.2249 2.2749V26.7249L9.1099 18.7787V8.99865Z" fill="#35C0BA"/>
<path d="M1.7749 8.99865L9.1099 8.99865V18.7787H1.7749V8.99865Z" fill="white"/>
<path d="M9.1099 26.7249V18.7787H4.2199V23.0574C4.2199 25.083 5.8619 26.7249 7.8874 26.7249H9.1099Z" fill="#35C0BA"/>
<path d="M27.5552 28.8091L10.4399 20.8618V28.0552H7.88721C5.12727 28.0551 2.89014 25.8172 2.89014 23.0571V20.1089H0.444824V7.66846H8.85986L27.5552 0.32373V28.8091ZM10.4399 9.90479V17.9292L24.895 24.6411V4.22607L10.4399 9.90479ZM3.10498 17.4487H7.77979V10.3286H3.10498V17.4487ZM5.55029 23.0571C5.55029 24.312 6.53884 25.3328 7.77979 25.3892V20.1089H5.55029V23.0571Z" fill="#134276"/>
</svg>
