<svg width="28" height="30" viewBox="0 0 28 30" fill="none" xmlns="http://www.w3.org/2000/svg">
<path d="M22.1687 18.1674V23.0574H17.2787V27.9474H6.27623V21.4833C3.3396 19.6472 1.38623 16.3849 1.38623 12.6662C1.38623 6.92722 6.03855 2.2749 11.7775 2.2749C16.1966 2.2749 20.1592 4.99647 21.7456 9.12099L25.225 18.1674H22.1687Z" fill="#35C0BA"/>
<path d="M12.1072 6.6655L6.60618 9.5506V15.6631L12.1074 18.5604L17.6087 15.6631V9.5506L12.1072 6.6655Z" fill="white"/>
<path d="M11.7778 0.944824C16.747 0.944968 21.2028 4.0053 22.9868 8.64307L27.1616 19.4976H23.4985V24.3872H18.6089V29.2778H4.9458V22.1899C1.98762 20.0644 0.0562674 16.5919 0.0561523 12.6665C0.0561523 6.19304 5.30437 0.944824 11.7778 0.944824ZM18.939 8.74658V16.4663L12.7271 19.7368L12.1079 20.064L5.27588 16.4663V8.74658L12.1069 5.16357L18.939 8.74658ZM7.93604 10.354V14.8599L12.1069 17.0562L16.2788 14.8599V10.354L12.1069 8.1665L7.93604 10.354ZM13.437 11.3843V13.8296H10.7778V11.3843H13.437ZM2.71631 12.6665C2.71643 15.9076 4.41689 18.7528 6.98096 20.356L7.60596 20.7466V26.6177H15.9487V21.7271H20.8384V16.8374H23.2886L20.5044 9.59814C19.1155 5.98747 15.6464 3.60512 11.7778 3.60498C6.77344 3.60498 2.71631 7.66211 2.71631 12.6665Z" fill="#134276"/>
</svg>
