<svg width="24" height="24" viewBox="0 0 24 24" fill="none" xmlns="http://www.w3.org/2000/svg">
<path d="M13.25 18H10.75V16H13.25V18Z" fill="#D03633"/>
<path d="M13.25 14H10.75V6H13.25V14Z" fill="#D03633"/>
<path fill-rule="evenodd" clip-rule="evenodd" d="M12 1C14.9174 1 17.7154 2.15879 19.7783 4.22168C21.8412 6.28458 23 9.08262 23 12C23 14.9174 21.8412 17.7154 19.7783 19.7783L19.3828 20.1543C17.365 21.9814 14.735 23 12 23C9.26497 23 6.63503 21.9814 4.61719 20.1543L4.22168 19.7783C2.15879 17.7154 1 14.9174 1 12C1 9.26498 2.01863 6.63503 3.8457 4.61719L4.22168 4.22168C6.28458 2.15878 9.08262 1 12 1ZM12 3.5C9.74566 3.5 7.58332 4.3952 5.98926 5.98926C4.3952 7.58332 3.5 9.74566 3.5 12C3.5 14.2544 4.39521 16.4167 5.98926 18.0107C7.58331 19.6048 9.74565 20.5 12 20.5C14.2544 20.5 16.4167 19.6048 18.0107 18.0107C19.6048 16.4167 20.5 14.2544 20.5 12C20.5 9.74565 19.6048 7.58331 18.0107 5.98926C16.4167 4.39521 14.2544 3.5 12 3.5Z" fill="#D03633"/>
</svg>
