<svg width="40" height="40" viewBox="0 0 40 40" fill="none" xmlns="http://www.w3.org/2000/svg">
<path d="M0 20C0 8.95431 8.95431 0 20 0C31.0457 0 40 8.95431 40 20C40 31.0457 31.0457 40 20 40C8.95431 40 0 31.0457 0 20Z" fill="#D03633"/>
<path d="M21.25 26H18.75V24H21.25V26Z" fill="white"/>
<path d="M21.25 22H18.75V14H21.25V22Z" fill="white"/>
<path fill-rule="evenodd" clip-rule="evenodd" d="M20 9C22.9174 9 25.7154 10.1588 27.7783 12.2217C29.8412 14.2846 31 17.0826 31 20C31 22.9174 29.8412 25.7154 27.7783 27.7783L27.3828 28.1543C25.365 29.9814 22.735 31 20 31C17.265 31 14.635 29.9814 12.6172 28.1543L12.2217 27.7783C10.1588 25.7154 9 22.9174 9 20C9 17.265 10.0186 14.635 11.8457 12.6172L12.2217 12.2217C14.2846 10.1588 17.0826 9 20 9ZM20 11.5C17.7457 11.5 15.5833 12.3952 13.9893 13.9893C12.3952 15.5833 11.5 17.7457 11.5 20C11.5 22.2544 12.3952 24.4167 13.9893 26.0107C15.5833 27.6048 17.7456 28.5 20 28.5C22.2544 28.5 24.4167 27.6048 26.0107 26.0107C27.6048 24.4167 28.5 22.2544 28.5 20C28.5 17.7456 27.6048 15.5833 26.0107 13.9893C24.4167 12.3952 22.2544 11.5 20 11.5Z" fill="white"/>
</svg>
