<svg width="32" height="32" viewBox="0 0 32 32" fill="none" xmlns="http://www.w3.org/2000/svg">
<path d="M3.7749 9.44258H28.2249V27.7801H3.7749V9.44258Z" fill="#35C0BA"/>
<path d="M20.7827 9.19824C20.7827 6.69211 18.7506 4.66037 16.2446 4.66016H15.7554C13.2491 4.66016 11.2173 6.69197 11.2173 9.19824V9.44238H8.55713V9.19824C8.55713 5.22289 11.78 2 15.7554 2H16.2446C20.2197 2.00021 23.4419 5.22301 23.4419 9.19824V9.44238H20.7827V9.19824Z" fill="#134276"/>
<path d="M29.5552 8.1125V29.1105H2.44482V8.1125H29.5552ZM5.10498 26.4504H26.895V10.7727H5.10498V26.4504Z" fill="#134276"/>
<path d="M17.3296 12.4988V14.9442H14.6694V12.4988H17.3296Z" fill="#134276"/>
<path d="M17.3296 22.2788V24.7242H14.6694V22.2788H17.3296Z" fill="#134276"/>
<path d="M20.0801 16.7778H17.4199V16.2739H14.5791V16.6274L18.082 17.4057L18.2969 17.4634C19.3502 17.7955 20.0801 18.7765 20.0801 19.8979V21.0561C20.0801 22.4659 18.9371 23.6089 17.5273 23.6089H14.4717C13.1499 23.6089 12.0631 22.6042 11.9326 21.3169L11.9189 21.0561V20.4448H14.5791V20.9487H17.4199V19.9829L13.918 19.2056C12.7503 18.946 11.9189 17.9098 11.9189 16.7134V16.1665C11.9189 14.7568 13.0619 13.6138 14.4717 13.6138H17.5273C18.9371 13.6138 20.0801 14.7568 20.0801 16.1665V16.7778Z" fill="#134276"/>
</svg>
