<svg width="20" height="21" viewBox="0 0 20 21" fill="none" xmlns="http://www.w3.org/2000/svg">
<g clip-path="url(#clip0_6765_32734)">
<path fill-rule="evenodd" clip-rule="evenodd" d="M18.6829 1.55728V8.2078H16.5996V4.16145L13.5892 4.83879V8.20779H11.5058V4.83879L8.49546 4.16145V16.1611L10.2293 16.5513L9.77199 18.5838L7.45378 18.0622L1.31836 19.4427V3.20618L7.45084 1.791L12.5475 2.93775L18.6829 1.55728ZM3.40169 4.8635L6.41213 4.16879V16.1611L3.40169 16.8385V4.8635Z" fill="#017AC9"/>
<path d="M13.7344 12.7056V15.171H16.1997V12.7056H13.7344Z" fill="#017AC9"/>
<path fill-rule="evenodd" clip-rule="evenodd" d="M10.4871 13.9789C10.4871 11.4938 12.4813 9.45833 14.9671 9.45833C17.4528 9.45833 19.447 11.4938 19.447 13.9789C19.447 14.8099 19.1425 15.5807 18.7686 16.2236C18.3908 16.8731 17.9022 17.4609 17.4388 17.9451C16.9722 18.4327 16.5094 18.8379 16.1649 19.1205C15.9918 19.2625 15.8465 19.3751 15.7429 19.4534C15.6911 19.4926 15.6495 19.5233 15.62 19.5449L15.5848 19.5704L15.5743 19.5779L15.5709 19.5803L15.5697 19.5812C15.5695 19.5813 15.5688 19.5818 14.9671 18.7316C14.3653 19.5818 14.3651 19.5817 14.3649 19.5815L14.3632 19.5803L14.3598 19.5779L14.3493 19.5704L14.3141 19.5449C14.2846 19.5233 14.243 19.4926 14.1912 19.4534C14.0876 19.3751 13.9423 19.2625 13.7693 19.1205C13.4247 18.8379 12.9619 18.4327 12.4953 17.9451C12.0319 17.4609 11.5433 16.8731 11.1655 16.2236C10.7916 15.5807 10.4871 14.8099 10.4871 13.9789ZM14.9671 18.7316L15.5688 19.5818L14.9671 20.0077L14.3649 19.5815L14.9671 18.7316ZM14.9671 17.4072C15.2483 17.1708 15.5923 16.8614 15.9336 16.5048C16.3298 16.0908 16.7007 15.6353 16.9676 15.1763C17.2384 14.7107 17.3637 14.3076 17.3637 13.9789C17.3637 12.6213 16.2792 11.5417 14.9671 11.5417C13.6549 11.5417 12.5704 12.6213 12.5704 13.9789C12.5704 14.3076 12.6957 14.7107 12.9665 15.1763C13.2334 15.6353 13.6044 16.0908 14.0005 16.5048C14.3418 16.8614 14.6859 17.1708 14.9671 17.4072Z" fill="#017AC9"/>
</g>
<defs>
<clipPath id="clip0_6765_32734">
<rect width="20" height="20" fill="white" transform="translate(0 0.5)"/>
</clipPath>
</defs>
</svg>
