<svg width="32" height="32" viewBox="0 0 32 32" fill="none" xmlns="http://www.w3.org/2000/svg">
<g clip-path="url(#clip0_8034_31142)">
<path d="M3.91213 22.1059C2.88275 20.1756 2.33008 18.0051 2.33008 15.7776C2.33008 12.2111 3.74687 8.79066 6.26877 6.26877C8.79066 3.74687 12.2111 2.33008 15.7776 2.33008C19.3441 2.33008 22.7645 3.74687 25.2864 6.26877C27.8083 8.79066 29.2251 12.2111 29.2251 15.7776C29.2251 19.3441 27.8083 22.7645 25.2864 25.2864C22.7645 27.8083 19.3441 29.2251 15.7776 29.2251C13.5678 29.2251 11.414 28.6812 9.49527 27.6674L2.94133 28.6138L3.91213 22.1059Z" fill="#35C0BA"/>
<path d="M27.8955 15.7773C27.8954 12.5637 26.6181 9.4814 24.3457 7.20898C22.0733 4.93667 18.991 3.66016 15.7773 3.66016C12.5637 3.66022 9.4814 4.93657 7.20898 7.20898C4.93657 9.4814 3.66022 12.5637 3.66016 15.7773C3.66016 17.7845 4.15831 19.7411 5.08594 21.4805L5.29199 21.8672L5.22754 22.3018L4.51953 27.042L9.7334 26.2891L10.1162 26.4912C11.8451 27.4048 13.7862 27.8955 15.7773 27.8955C18.9911 27.8955 22.0732 26.6182 24.3457 24.3457C26.6182 22.0732 27.8955 18.9911 27.8955 15.7773ZM17.6836 9.12109L21.668 21.5703L19.1348 22.3818L18.2363 19.5742H13.3457L12.4473 22.3818L9.91406 21.5703L13.8984 9.12109H17.6836ZM14.1973 16.9141H17.3848L15.791 11.9336L14.1973 16.9141ZM30.5547 15.7773C30.5547 19.6966 28.9979 23.4552 26.2266 26.2266C23.4552 28.9979 19.6966 30.5547 15.7773 30.5547C13.4989 30.5547 11.275 30.0281 9.26758 29.043L1.3623 30.1855L2.5332 22.333C1.53385 20.3139 1 18.0729 1 15.7773C1.00006 11.8582 2.55686 8.09939 5.32812 5.32812C8.09939 2.55686 11.8582 1.00006 15.7773 1C19.6965 1 23.4553 2.55696 26.2266 5.32812C28.9978 8.09939 30.5546 11.8582 30.5547 15.7773Z" fill="#134276"/>
</g>
<defs>
<clipPath id="clip0_8034_31142">
<rect width="32" height="32" fill="white"/>
</clipPath>
</defs>
</svg>
