<svg width="22" height="28" viewBox="0 0 22 28" fill="none" xmlns="http://www.w3.org/2000/svg">
<path d="M1.5 25.8539V12.5205H7.33333C9.17433 12.5205 10.6667 14.013 10.6667 15.8539V28.3539C10.6667 26.9731 9.54742 25.8539 8.16666 25.8539H1.5Z" fill="#35C0BA"/>
<path d="M19.8334 25.8539H13.1667C11.786 25.8539 10.6667 26.9731 10.6667 28.3539V15.8539C10.6667 14.013 12.1591 12.5205 14.0001 12.5205H19.8334V25.8539Z" fill="#35C0BA"/>
<path d="M14.1042 5.4375C14.1042 7.33597 12.5653 8.875 10.6667 8.875C8.76822 8.875 7.22925 7.33597 7.22925 5.4375C7.22925 3.53903 8.76822 2 10.6667 2C12.5653 2 14.1042 3.53903 14.1042 5.4375Z" fill="white"/>
<path d="M1.5 25.8539V12.5205H7.33333C9.17433 12.5205 10.6667 14.013 10.6667 15.8539V28.3539C10.6667 26.9731 9.54742 25.8539 8.16666 25.8539H1.5Z" stroke="#134276" stroke-width="2.5"/>
<path d="M19.8334 25.8539H13.1667C11.786 25.8539 10.6667 26.9731 10.6667 28.3539V15.8539C10.6667 14.013 12.1591 12.5205 14.0001 12.5205H19.8334V25.8539Z" stroke="#134276" stroke-width="2.5"/>
<path d="M14.1042 5.4375C14.1042 7.33597 12.5653 8.875 10.6667 8.875C8.76822 8.875 7.22925 7.33597 7.22925 5.4375C7.22925 3.53903 8.76822 2 10.6667 2C12.5653 2 14.1042 3.53903 14.1042 5.4375Z" stroke="#134276" stroke-width="2.5"/>
</svg>
