<svg width="33" height="32" viewBox="0 0 33 32" fill="none" xmlns="http://www.w3.org/2000/svg">
<path d="M6.46997 5.60874C6.46997 6.41931 6.79197 7.19668 7.36513 7.76984C7.93828 8.34299 8.71565 8.66499 9.52622 8.66499C10.3368 8.66499 11.1142 8.34299 11.6873 7.76984C12.2605 7.19668 12.5825 6.41931 12.5825 5.60874C12.5825 4.79817 12.2605 4.0208 11.6873 3.44765C11.1142 2.87449 10.3368 2.55249 9.52622 2.55249C8.71565 2.55249 7.93828 2.87449 7.36513 3.44765C6.79197 4.0208 6.46997 4.79817 6.46997 5.60874Z" fill="#35C0BA"/>
<path d="M9.52624 12.3325C5.24749 12.3325 2.80249 14.1663 2.80249 14.1663V22.7238H5.24749V30.67H13.805V22.7238H16.25V14.1663C16.25 14.1663 13.805 12.3325 9.52624 12.3325Z" fill="#35C0BA"/>
<path d="M9.52612 11.0024C11.8587 11.0024 13.7078 11.5024 14.9871 12.0142C15.6259 12.2697 16.1226 12.5292 16.4685 12.73C16.6416 12.8305 16.778 12.9164 16.8748 12.981C16.923 13.0131 16.9621 13.0396 16.991 13.0601C17.0054 13.0703 17.0175 13.0794 17.0271 13.0864C17.0316 13.0897 17.0354 13.0927 17.0388 13.0952C17.0405 13.0964 17.0423 13.0981 17.0437 13.0991L17.0466 13.1021C17.0426 13.1083 16.9857 13.1852 16.2498 14.1665L17.0476 13.1021L17.5798 13.5015V24.0542H15.1345V30.6704H12.4753V21.394H14.9197V14.9097C14.6853 14.7841 14.3768 14.6351 13.9988 14.4839C12.9859 14.0787 11.4723 13.6626 9.52612 13.6626C7.57998 13.6626 6.06634 14.0787 5.05347 14.4839C4.67545 14.6351 4.36693 14.7841 4.13257 14.9097V21.394H6.57788V30.6704H3.91772V24.0542H1.47241V13.5015L2.00464 13.1021L2.80249 14.1665C2.06196 13.1791 2.00904 13.1075 2.00562 13.1021L2.00854 13.0991C2.00998 13.0981 2.01171 13.0965 2.01343 13.0952C2.01693 13.0926 2.02146 13.0898 2.02612 13.0864C2.03568 13.0795 2.04786 13.0703 2.06226 13.0601C2.09119 13.0396 2.13028 13.0131 2.17847 12.981C2.27525 12.9164 2.41079 12.8304 2.58374 12.73C2.92968 12.5291 3.42709 12.2698 4.06616 12.0142C5.34542 11.5025 7.19385 11.0025 9.52612 11.0024Z" fill="#134276"/>
<path d="M11.2522 5.60913C11.2522 5.15148 11.0708 4.71212 10.7473 4.38843C10.464 4.1051 10.0918 3.93054 9.69653 3.89136L9.52661 3.88257C9.06878 3.88257 8.62964 4.06469 8.30591 4.38843C7.98217 4.71216 7.80005 5.1513 7.80005 5.60913L7.80884 5.77905C7.84802 6.17433 8.02258 6.5465 8.30591 6.82983C8.62961 7.15332 9.06897 7.33472 9.52661 7.33472C9.9843 7.33461 10.4237 7.15348 10.7473 6.82983C11.071 6.50619 11.2521 6.06682 11.2522 5.60913ZM13.9124 5.60913C13.9123 6.7723 13.4507 7.8882 12.6282 8.71069C11.8057 9.53318 10.6898 9.99477 9.52661 9.99487C8.36349 9.99487 7.24759 9.53303 6.42505 8.71069C5.65381 7.93945 5.19947 6.91015 5.14575 5.82593L5.13989 5.60913C5.13989 4.44583 5.60247 3.33015 6.42505 2.50757C7.24763 1.68499 8.36331 1.22241 9.52661 1.22241L9.74341 1.22827C10.8276 1.28199 11.8569 1.73633 12.6282 2.50757C13.4505 3.33011 13.9124 4.44601 13.9124 5.60913Z" fill="#134276"/>
<path d="M30.6382 20.6079L26.688 24.5571L30.6382 28.5073L28.7573 30.3882L24.8071 26.438L20.8579 30.3882L18.9771 28.5073L22.9263 24.5571L18.9771 20.6079L20.8579 18.7271L24.8071 22.6763L28.7573 18.7271L30.6382 20.6079Z" fill="#134276"/>
</svg>
