<svg width="33" height="32" viewBox="0 0 33 32" fill="none" xmlns="http://www.w3.org/2000/svg">
<path d="M4.66213 22.1059C3.63275 20.1756 3.08008 18.0051 3.08008 15.7776C3.08008 12.2111 4.49687 8.79066 7.01877 6.26877C9.54066 3.74687 12.9611 2.33008 16.5276 2.33008C20.0941 2.33008 23.5145 3.74687 26.0364 6.26877C28.5583 8.79066 29.9751 12.2111 29.9751 15.7776C29.9751 19.3441 28.5583 22.7645 26.0364 25.2864C23.5145 27.8083 20.0941 29.2251 16.5276 29.2251C14.3178 29.2251 12.164 28.6812 10.2453 27.6674L3.69133 28.6138L4.66213 22.1059Z" fill="#35C0BA"/>
<path d="M28.6455 15.7773C28.6454 12.5637 27.3681 9.4814 25.0957 7.20898C22.8233 4.93667 19.741 3.66016 16.5273 3.66016C13.3137 3.66022 10.2314 4.93657 7.95898 7.20898C5.68657 9.4814 4.41022 12.5637 4.41016 15.7773C4.41016 17.7845 4.90831 19.7411 5.83594 21.4805L6.04199 21.8672L5.97754 22.3018L5.26953 27.042L10.4834 26.2891L10.8662 26.4912C12.5951 27.4048 14.5362 27.8955 16.5273 27.8955C19.7411 27.8955 22.8232 26.6182 25.0957 24.3457C27.3682 22.0732 28.6455 18.9911 28.6455 15.7773ZM18.4336 9.12109L22.418 21.5703L19.8848 22.3818L18.9863 19.5742H14.0957L13.1973 22.3818L10.6641 21.5703L14.6484 9.12109H18.4336ZM14.9473 16.9141H18.1348L16.541 11.9336L14.9473 16.9141ZM31.3047 15.7773C31.3047 19.6966 29.7479 23.4552 26.9766 26.2266C24.2052 28.9979 20.4466 30.5547 16.5273 30.5547C14.2489 30.5547 12.025 30.0281 10.0176 29.043L2.1123 30.1855L3.2832 22.333C2.28385 20.3139 1.75 18.0729 1.75 15.7773C1.75006 11.8582 3.30686 8.09939 6.07812 5.32812C8.84939 2.55686 12.6082 1.00006 16.5273 1C20.4465 1 24.2053 2.55696 26.9766 5.32812C29.7478 8.09939 31.3046 11.8582 31.3047 15.7773Z" fill="#134276"/>
</svg>
