<svg width="24" height="24" viewBox="0 0 24 24" fill="none" xmlns="http://www.w3.org/2000/svg">
<path d="M8.33252 11.4163H10.75V15.3344H8.33252V17.8344H15.6675V15.3344H13.25V8.91626H8.33252V11.4163Z" fill="#017AC9"/>
<path d="M13.25 7.4156V5.58185H10.75V7.4156H13.25Z" fill="#017AC9"/>
<path fill-rule="evenodd" clip-rule="evenodd" d="M12 0.664368C8.9936 0.664368 6.11034 1.85866 3.9845 3.9845C1.85866 6.11034 0.664368 8.9936 0.664368 12C0.664368 15.0064 1.85866 17.8897 3.9845 20.0155C6.11035 22.1414 8.99361 23.3356 12 23.3356C15.0064 23.3356 17.8897 22.1414 20.0155 20.0155C22.1414 17.8897 23.3356 15.0064 23.3356 12C23.3356 8.99361 22.1414 6.11035 20.0155 3.9845C17.8897 1.85866 15.0064 0.664368 12 0.664368ZM5.75227 5.75227C7.40927 4.09526 9.65664 3.16437 12 3.16437C14.3434 3.16437 16.5907 4.09527 18.2477 5.75227C19.9047 7.40926 20.8356 9.65663 20.8356 12C20.8356 14.3434 19.9047 16.5908 18.2477 18.2477C16.5908 19.9047 14.3434 20.8356 12 20.8356C9.65663 20.8356 7.40926 19.9047 5.75227 18.2477C4.09527 16.5907 3.16437 14.3434 3.16437 12C3.16437 9.65664 4.09526 7.40927 5.75227 5.75227Z" fill="#017AC9"/>
</svg>
