<svg width="32" height="32" viewBox="0 0 32 32" fill="none" xmlns="http://www.w3.org/2000/svg">
<path fill-rule="evenodd" clip-rule="evenodd" d="M25.3634 20.8884H15.9996V26.9384C15.5976 26.9784 15.1899 26.9988 14.7775 26.9988C8.02809 26.9988 2.55664 21.5273 2.55664 14.778C2.55664 8.02858 8.02809 2.55713 14.7775 2.55713C21.5268 2.55713 26.9983 8.02858 26.9983 14.778C26.9983 17.0039 26.4032 19.0908 25.3634 20.8884Z" fill="#35C0BA"/>
<path d="M30.6641 23.2246V25.8848H18.4434V23.2246H30.6641Z" fill="#134276"/>
<path d="M16.1074 7.00146V16.1089H9.22266V13.4487H13.4473V7.00146H16.1074Z" fill="#134276"/>
<path d="M25.6689 14.7776C25.6689 12.0698 24.6604 9.46576 22.8516 7.46802L22.4785 7.07642C20.4361 5.03415 17.6657 3.88696 14.7773 3.88696C12.0695 3.88703 9.46557 4.89539 7.46777 6.70435L7.07617 7.07642C5.03379 9.1188 3.8868 11.8892 3.88672 14.7776C3.88672 17.6659 5.03387 20.4363 7.07617 22.4788L7.46777 22.8518C9.46553 24.6607 12.0696 25.6691 14.7773 25.6692C15.1428 25.6692 15.5063 25.6507 15.8662 25.6145L16.1328 28.261C15.6842 28.3061 15.2316 28.3284 14.7773 28.3284C11.2959 28.3283 7.95243 26.989 5.43652 24.595L5.19531 24.3596C2.65418 21.8183 1.22656 18.3714 1.22656 14.7776C1.22664 11.1837 2.65408 7.73679 5.19531 5.19556L5.43652 4.96118C7.95247 2.567 11.2958 1.22687 14.7773 1.22681C18.3712 1.22681 21.8181 2.65444 24.3594 5.19556L24.5947 5.43677C26.9888 7.9527 28.328 11.2961 28.3281 14.7776C28.3281 17.1769 27.6918 19.5106 26.5127 21.553L24.21 20.2239C25.1577 18.5822 25.6689 16.7059 25.6689 14.7776Z" fill="#134276"/>
</svg>
