<svg width="16" height="16" viewBox="0 0 16 16" fill="none" xmlns="http://www.w3.org/2000/svg">
<g clip-path="url(#clip0_3611_3547)">
<path fill-rule="evenodd" clip-rule="evenodd" d="M8.00048 0.748535C5.85233 0.748535 4.1109 2.48996 4.1109 4.63812C4.1109 6.78627 5.85233 8.5277 8.00048 8.5277C10.1486 8.5277 11.8901 6.78628 11.8901 4.63812C11.8901 2.48996 10.1486 0.748535 8.00048 0.748535ZM5.77757 4.63812C5.77757 3.41044 6.7728 2.4152 8.00048 2.4152C9.22815 2.4152 10.2234 3.41044 10.2234 4.63812C10.2234 5.8658 9.22815 6.86104 8.00048 6.86104C6.7728 6.86104 5.77757 5.8658 5.77757 4.63812Z" fill="#134276"/>
<path fill-rule="evenodd" clip-rule="evenodd" d="M8.00048 9.00041C5.73865 9.00041 4.02283 9.48571 2.85862 9.98466C2.27755 10.2337 1.83565 10.4853 1.53286 10.68C1.38145 10.7773 1.26472 10.8605 1.18264 10.922C1.1416 10.9528 1.1092 10.9782 1.08544 10.9973C1.07355 11.0069 1.06383 11.0148 1.05626 11.0211L1.04653 11.0293L1.04288 11.0323L1.04135 11.0336L1.04067 11.0342C1.04067 11.0342 1.04003 11.0348 1.58236 11.6675L1.04003 11.0348L0.749023 11.2842V15.2514H15.2519V11.2842L14.9609 11.0348L14.4186 11.6675C14.9609 11.0348 14.9603 11.0342 14.9603 11.0342L14.9596 11.0336L14.9581 11.0323L14.9544 11.0293L14.9447 11.0211C14.9371 11.0148 14.9274 11.0069 14.9155 10.9973C14.8918 10.9782 14.8594 10.9528 14.8183 10.922C14.7362 10.8605 14.6195 10.7773 14.4681 10.68C14.1653 10.4853 13.7234 10.2337 13.1423 9.98466C11.9781 9.48571 10.2623 9.00041 8.00048 9.00041ZM2.41569 13.5848V12.0939L2.43412 12.0819C2.66617 11.9328 3.02653 11.726 3.51515 11.5166C4.49032 11.0986 5.98356 10.6671 8.00048 10.6671C10.0174 10.6671 11.5106 11.0986 12.4858 11.5166C12.9744 11.726 13.3348 11.9328 13.5668 12.0819L13.5853 12.0939V13.5848H2.41569Z" fill="#134276"/>
</g>
<defs>
<clipPath id="clip0_3611_3547">
<rect width="16" height="16" fill="white"/>
</clipPath>
</defs>
</svg>
