<svg width="33" height="32" viewBox="0 0 33 32" fill="none" xmlns="http://www.w3.org/2000/svg">
<path d="M13.444 19.6674V24.5574H8.55398V29.4474H3.05273V3.7749C7.4718 3.7749 11.4345 6.49647 13.0208 10.621L16.5002 19.6674H13.444Z" fill="#35C0BA"/>
<path d="M3.05273 2.44482C8.02191 2.44482 12.4777 5.50523 14.2617 10.1431L18.4365 20.9976H14.7744V25.8872H9.88379V29.4478H7.22363V23.2271H12.1143V18.3374H14.5635L11.7793 11.0981C10.3904 7.48744 6.92137 5.10498 3.05273 5.10498V2.44482Z" fill="#134276"/>
<path d="M31.2197 17.9404L27.2695 21.8896L31.2197 25.8398L29.3389 27.7207L25.3887 23.7705L21.4395 27.7207L19.5586 25.8398L23.5078 21.8896L19.5586 17.9404L21.4395 16.0596L25.3887 20.0088L29.3389 16.0596L31.2197 17.9404Z" fill="#134276"/>
</svg>
