<svg width="33" height="32" viewBox="0 0 33 32" fill="none" xmlns="http://www.w3.org/2000/svg">
<path d="M17.4724 23.335C17.4724 26.7108 20.2091 29.4475 23.5849 29.4475C26.9607 29.4475 29.6974 26.7108 29.6974 23.335C29.6974 19.9592 26.9607 17.2225 23.5849 17.2225C20.2091 17.2225 17.4724 19.9592 17.4724 23.335Z" fill="white"/>
<path d="M28.3669 23.3348C28.3668 20.6937 26.2259 18.5526 23.5847 18.5526C20.9436 18.5527 18.8026 20.6937 18.8025 23.3348C18.8025 25.976 20.9435 28.117 23.5847 28.1171C26.226 28.1171 28.3669 25.9761 28.3669 23.3348ZM31.0271 23.3348C31.0271 27.4452 27.6951 30.7772 23.5847 30.7772C19.4745 30.7771 16.1423 27.4451 16.1423 23.3348C16.1424 19.2246 19.4745 15.8926 23.5847 15.8925C27.695 15.8925 31.027 19.2246 31.0271 23.3348Z" fill="#134276"/>
<path fill-rule="evenodd" clip-rule="evenodd" d="M27.2525 8.66504H2.80249V27.0025H14.5159C14.0574 25.87 13.805 24.632 13.805 23.335C13.805 17.9337 18.1836 13.555 23.585 13.555C24.8819 13.555 26.12 13.8075 27.2525 14.2659V8.66504Z" fill="#35C0BA"/>
<path d="M24.915 20.2788V22.0054H26.6416V24.6655H22.2549V20.2788H24.915Z" fill="#134276"/>
<path d="M19.8098 8.42065C19.8098 5.91453 17.7788 3.88282 15.2727 3.88257H14.7834C12.2772 3.88257 10.2454 5.91438 10.2454 8.42065V8.66479H7.58521V8.42065C7.58521 4.44531 10.8082 1.22241 14.7834 1.22241H15.2727C19.2479 1.22267 22.47 4.44547 22.47 8.42065V8.66479H19.8098V8.42065Z" fill="#134276"/>
<path d="M28.5828 7.33496V14.7773H25.9226V9.99512H4.13257V25.6729H14.4158V28.333H1.47241V7.33496H28.5828Z" fill="#134276"/>
</svg>
