<svg width="33" height="32" viewBox="0 0 33 32" fill="none" xmlns="http://www.w3.org/2000/svg">
<path d="M29.6961 25.7788H2.80371V14.7773H29.6961V25.7788Z" fill="#35C0BA"/>
<path d="M24.1949 14.7776L20.5277 4.99854H6.47085L2.80371 14.7776H24.1949Z" fill="white"/>
<path d="M24.1943 13.4458V16.1087H2.80371V13.4458H24.1943Z" fill="#134276"/>
<path d="M6.4707 25.1678C6.4707 25.9782 6.79267 26.7555 7.36577 27.3287C7.93887 27.9017 8.71617 28.2237 9.52666 28.2237C10.3371 28.2237 11.1144 27.9017 11.6875 27.3287C12.2606 26.7555 12.5826 25.9782 12.5826 25.1678C12.5826 24.3573 12.2606 23.58 11.6875 23.0068C11.1144 22.4338 10.3371 22.1118 9.52666 22.1118C8.71617 22.1118 7.93887 22.4338 7.36577 23.0068C6.79267 23.58 6.4707 24.3573 6.4707 25.1678Z" fill="white"/>
<path d="M19.917 25.1678C19.917 25.9782 20.239 26.7555 20.812 27.3287C21.3852 27.9017 22.1625 28.2237 22.9729 28.2237C23.7834 28.2237 24.5607 27.9017 25.1339 27.3287C25.7069 26.7555 26.0289 25.9782 26.0289 25.1678C26.0289 24.3573 25.7069 23.58 25.1339 23.0068C24.5607 22.4338 23.7834 22.1118 22.9729 22.1118C22.1625 22.1118 21.3852 22.4338 20.812 23.0068C20.239 23.58 19.917 24.3573 19.917 25.1678Z" fill="white"/>
<path d="M11.2508 25.1676C11.2507 24.7103 11.0697 24.2712 10.7463 23.9477V23.9488C10.4229 23.6254 9.9838 23.4432 9.52644 23.4432C9.06912 23.4433 8.62996 23.6254 8.30657 23.9488C7.98352 24.2722 7.80215 24.7106 7.80211 25.1676C7.80211 25.6249 7.98421 26.0639 8.30769 26.3874H8.30657C8.62996 26.7108 9.06912 26.8918 9.52644 26.8919C9.98379 26.8919 10.4229 26.7108 10.7463 26.3874L10.8601 26.2602C11.1116 25.9532 11.2508 25.5676 11.2508 25.1676ZM13.9137 25.1676C13.9137 26.2586 13.5076 27.308 12.7787 28.1129L12.6291 28.2702C11.8063 29.0929 10.69 29.5548 9.52644 29.5548C8.43561 29.5548 7.38701 29.1484 6.58224 28.4198L6.42376 28.2702C5.6011 27.4474 5.13916 26.3311 5.13916 25.1676C5.1392 24.004 5.60107 22.8877 6.42376 22.0649L6.58224 21.9153C7.38699 21.1868 8.43568 20.7803 9.52644 20.7803C10.6175 20.7803 11.6669 21.1865 12.4717 21.9153L12.6291 22.0649L12.7787 22.2234C13.5073 23.0282 13.9137 24.0768 13.9137 25.1676Z" fill="#134276"/>
<path d="M24.6971 25.1676C24.697 24.7103 24.516 24.2712 24.1926 23.9477V23.9488C23.869 23.6253 23.43 23.4432 22.9727 23.4432C22.5155 23.4433 22.0764 23.6254 21.7529 23.9488C21.4298 24.2722 21.2484 24.7106 21.2484 25.1676C21.2484 25.6249 21.4305 26.0639 21.754 26.3874H21.7529C22.0764 26.7109 22.5155 26.8918 22.9727 26.8919C23.43 26.8919 23.8691 26.7108 24.1926 26.3874L24.3064 26.2602C24.5578 25.9532 24.6971 25.5676 24.6971 25.1676ZM27.36 25.1676C27.36 26.2586 26.9538 27.308 26.225 28.1129L26.0754 28.2702C25.2526 29.0929 24.1363 29.5548 22.9727 29.5548C21.8819 29.5548 20.8333 29.1484 20.0285 28.4198L19.87 28.2702C19.0474 27.4474 18.5854 26.3311 18.5854 25.1676C18.5855 24.004 19.0475 22.8876 19.87 22.0649L20.0285 21.9153C20.8333 21.1868 21.882 20.7803 22.9727 20.7803C24.0637 20.7803 25.1132 21.1865 25.918 21.9153L26.0754 22.0649L26.225 22.2234C26.9536 23.0282 27.36 24.0767 27.36 25.1676Z" fill="#134276"/>
<path d="M21.4498 3.66699L25.1173 13.446H31.028V27.1101H25.9677V24.4471H28.365V16.109H23.2724L19.605 6.32994H7.39404L4.13511 15.0186V24.4471H6.53244V27.1101H1.47217V14.5364L5.54806 3.66699H21.4498Z" fill="#134276"/>
<path d="M19.9786 24.4478V27.1107H12.521V24.4478H19.9786Z" fill="#134276"/>
</svg>
