<svg width="28" height="28" viewBox="0 0 28 28" fill="none" xmlns="http://www.w3.org/2000/svg">
<path d="M9.72108 13.319H12.5415V17.8901H9.72108V20.8067H18.2786V17.8901H15.4582V10.4023H9.72108V13.319Z" fill="#017AC9"/>
<path d="M15.4581 8.65154V6.51216H12.5415V8.65154H15.4581Z" fill="#017AC9"/>
<path fill-rule="evenodd" clip-rule="evenodd" d="M13.9998 0.775101C10.4923 0.775101 7.12854 2.16844 4.64839 4.64859C2.16824 7.12874 0.774902 10.4925 0.774902 14C0.774902 17.5075 2.16824 20.8713 4.64839 23.3514C7.12854 25.8316 10.4923 27.2249 13.9998 27.2249C17.5073 27.2249 20.8711 25.8316 23.3512 23.3514C25.8314 20.8713 27.2247 17.5075 27.2247 14C27.2247 10.4925 25.8314 7.12874 23.3512 4.64859C20.8711 2.16844 17.5073 0.775101 13.9998 0.775101ZM6.71078 6.71098C8.64395 4.77781 11.2659 3.69177 13.9998 3.69177C16.7337 3.69177 19.3557 4.77782 21.2888 6.71098C23.222 8.64415 24.308 11.2661 24.308 14C24.308 16.7339 23.222 19.3559 21.2888 21.289C19.3557 23.2222 16.7337 24.3082 13.9998 24.3082C11.2659 24.3082 8.64395 23.2222 6.71078 21.289C4.77762 19.3559 3.69157 16.7339 3.69157 14C3.69157 11.2661 4.77762 8.64415 6.71078 6.71098Z" fill="#017AC9"/>
</svg>
