<svg width="33" height="32" viewBox="0 0 33 32" fill="none" xmlns="http://www.w3.org/2000/svg">
<path d="M13.694 19.6674V24.5574H8.80398V29.4474H3.30273V3.7749C7.7218 3.7749 11.6845 6.49647 13.2708 10.621L16.7502 19.6674H13.694Z" fill="#35C0BA"/>
<path d="M3.30273 2.44482C8.27191 2.44482 12.7277 5.50523 14.5117 10.1431L18.6865 20.9976H15.0244V25.8872H10.1338V29.4478H7.47363V23.2271H12.3643V18.3374H14.8135L12.0293 11.0981C10.6404 7.48744 7.17137 5.10498 3.30273 5.10498V2.44482Z" fill="#134276"/>
<path d="M31.4697 17.9404L27.5195 21.8896L31.4697 25.8398L29.5889 27.7207L25.6387 23.7705L21.6895 27.7207L19.8086 25.8398L23.7578 21.8896L19.8086 17.9404L21.6895 16.0596L25.6387 20.0088L29.5889 16.0596L31.4697 17.9404Z" fill="#134276"/>
</svg>
