<svg width="24" height="29" viewBox="0 0 24 29" fill="none" xmlns="http://www.w3.org/2000/svg">
<path d="M1.5 26.0625V12.3125H7.22917C9.76043 12.3125 11.8125 14.3646 11.8125 16.8958V28.3542C11.8125 27.0885 10.7865 26.0625 9.52083 26.0625H1.5Z" fill="#35C0BA"/>
<path d="M22.125 24.9167H15.25C13.3515 24.9167 11.8125 26.4556 11.8125 28.3542V16.8958C11.8125 14.3646 13.8646 12.3125 16.3958 12.3125H22.125V24.9167Z" fill="#35C0BA"/>
<path d="M19.8333 6.58333V2H4.93742L2.64575 4.29167L4.93742 6.58333H19.8333Z" fill="white"/>
<path d="M1.5 24.9167V12.3125H7.22917C9.76043 12.3125 11.8125 14.3646 11.8125 16.8958V28.3542C11.8125 26.4556 10.2735 24.9167 8.375 24.9167H1.5Z" stroke="#134276" stroke-width="2.5"/>
<path d="M22.125 24.9167H15.25C13.3515 24.9167 11.8125 26.4556 11.8125 28.3542V16.8958C11.8125 14.3646 13.8646 12.3125 16.3958 12.3125H22.125V24.9167Z" stroke="#134276" stroke-width="2.5"/>
<path d="M19.8333 6.58333V2H4.93742L2.64575 4.29167L4.93742 6.58333H19.8333Z" stroke="#134276" stroke-width="2.5"/>
</svg>
