<svg width="32" height="32" viewBox="0 0 32 32" fill="none" xmlns="http://www.w3.org/2000/svg">
<g clip-path="url(#clip0_8000_9256)">
<path fill-rule="evenodd" clip-rule="evenodd" d="M15.8599 2.33008H29.3099V19.4501L17.5006 19.5002L17.0799 18.2301H23.1899V8.44008H15.8599V2.33008Z" fill="white"/>
<path d="M6.00049 5.05642C6.00049 5.86698 6.32248 6.64435 6.89564 7.21751C7.4688 7.79067 8.24617 8.11267 9.05674 8.11267C9.86731 8.11267 10.6447 7.79067 11.2178 7.21751C11.791 6.64435 12.113 5.86698 12.113 5.05642C12.113 4.24585 11.791 3.46848 11.2178 2.89532C10.6447 2.32216 9.86731 2.00017 9.05674 2.00017C8.24617 2.00017 7.4688 2.32216 6.89564 2.89532C6.32248 3.46848 6.00049 4.24585 6.00049 5.05642Z" fill="#35C0BA"/>
<path d="M30.6402 1V20.7803H19.44V18.1201H27.9801V3.66016H15.8599V1H30.6402Z" fill="#134276"/>
<path d="M7.30994 12.1101C4.60994 12.1101 2.41994 14.3001 2.41994 17.0001V22.5001H4.86994V30.4501H13.4299V15.7801H20.7699V12.1101H7.30994Z" fill="#35C0BA"/>
<path d="M10.87 5.38965C10.8699 4.93933 10.6845 4.49619 10.3592 4.1709L10.3514 4.16211C10.0365 3.84165 9.59989 3.66016 9.13951 3.66016C8.68916 3.66027 8.24606 3.8456 7.92076 4.1709L7.91197 4.17871C7.59165 4.49358 7.41013 4.92946 7.41002 5.38965C7.41002 5.57465 7.44287 5.76949 7.50768 5.95801L4.99205 6.82227C4.83689 6.37083 4.74986 5.88457 4.74986 5.38965C4.74998 4.23021 5.20832 3.10618 6.04771 2.28125L6.04869 2.28223C6.86246 1.4728 7.97414 1.00012 9.13951 1C10.2991 1 11.4239 1.45835 12.2489 2.29785L12.2479 2.29883C13.0573 3.11259 13.53 4.2243 13.5301 5.38965C13.5301 6.54924 13.0718 7.674 12.2323 8.49902L12.2313 8.49805C11.4174 9.30758 10.305 9.78027 9.13951 9.78027C8.4863 9.78021 7.83611 9.6378 7.23717 9.3457L8.40318 6.95508C8.62383 7.06266 8.87327 7.12006 9.13951 7.12012C9.59001 7.12012 10.0338 6.93478 10.3592 6.60938L10.368 6.60156C10.6884 6.2866 10.87 5.85 10.87 5.38965Z" fill="#134276"/>
<path d="M20.7504 10.78V13.4402H11.2699V10.78H20.7504Z" fill="#134276"/>
<path d="M1.08986 17.0004C1.08986 15.7905 1.38459 14.3029 2.18752 13.0737C3.02976 11.7843 4.42453 10.81 6.41018 10.81V13.4702C5.42595 13.4702 4.82532 13.9007 4.41506 14.5288C3.96549 15.217 3.75002 16.1603 3.75002 17.0004V21.1704H6.18947V30.4496H3.53029V23.8305H1.08986V17.0004Z" fill="#134276"/>
<path d="M14.75 19.4501V30.4501H12.0899V19.4501H14.75Z" fill="#134276"/>
<path d="M30.4907 28.83L28.6099 30.7109L0.999512 3.10051L2.88037 1.21965L30.4907 28.83Z" fill="#134276"/>
</g>
<defs>
<clipPath id="clip0_8000_9256">
<rect width="29.64" height="29.71" fill="white" transform="translate(1 1)"/>
</clipPath>
</defs>
</svg>
