<svg width="41" height="40" viewBox="0 0 41 40" fill="none" xmlns="http://www.w3.org/2000/svg">
<path d="M0.5 20C0.5 8.95431 9.45431 0 20.5 0C31.5457 0 40.5 8.95431 40.5 20C40.5 31.0457 31.5457 40 20.5 40C9.45431 40 0.5 31.0457 0.5 20Z" fill="#F8E1E0"/>
<path d="M21.75 26H19.25V24H21.75V26Z" fill="#D03633"/>
<path d="M21.75 22H19.25V14H21.75V22Z" fill="#D03633"/>
<path fill-rule="evenodd" clip-rule="evenodd" d="M20.5 9C23.4174 9 26.2154 10.1588 28.2783 12.2217C30.3412 14.2846 31.5 17.0826 31.5 20C31.5 22.9174 30.3412 25.7154 28.2783 27.7783L27.8828 28.1543C25.865 29.9814 23.235 31 20.5 31C17.765 31 15.135 29.9814 13.1172 28.1543L12.7217 27.7783C10.6588 25.7154 9.5 22.9174 9.5 20C9.5 17.265 10.5186 14.635 12.3457 12.6172L12.7217 12.2217C14.7846 10.1588 17.5826 9 20.5 9ZM20.5 11.5C18.2457 11.5 16.0833 12.3952 14.4893 13.9893C12.8952 15.5833 12 17.7457 12 20C12 22.2544 12.8952 24.4167 14.4893 26.0107C16.0833 27.6048 18.2456 28.5 20.5 28.5C22.7544 28.5 24.9167 27.6048 26.5107 26.0107C28.1048 24.4167 29 22.2544 29 20C29 17.7456 28.1048 15.5833 26.5107 13.9893C24.9167 12.3952 22.7544 11.5 20.5 11.5Z" fill="#D03633"/>
</svg>
