<svg width="41" height="40" viewBox="0 0 41 40" fill="none" xmlns="http://www.w3.org/2000/svg">
<path d="M0.5 20C0.5 8.95431 9.45431 0 20.5 0C31.5457 0 40.5 8.95431 40.5 20C40.5 31.0457 31.5457 40 20.5 40C9.45431 40 0.5 31.0457 0.5 20Z" fill="#134276"/>
<path d="M16.8325 19.4163H19.25V23.3344H16.8325V25.8344H24.1675V23.3344H21.75V16.9163H16.8325V19.4163Z" fill="white"/>
<path d="M21.7499 15.4156V13.5818H19.2499V15.4156H21.7499Z" fill="white"/>
<path fill-rule="evenodd" clip-rule="evenodd" d="M20.4999 8.66437C17.4935 8.66437 14.6103 9.85866 12.4844 11.9845C10.3586 14.1103 9.16431 16.9936 9.16431 20C9.16431 23.0064 10.3586 25.8897 12.4844 28.0155C14.6103 30.1414 17.4935 31.3356 20.4999 31.3356C23.5063 31.3356 26.3896 30.1414 28.5155 28.0155C30.6413 25.8897 31.8356 23.0064 31.8356 20C31.8356 16.9936 30.6413 14.1103 28.5155 11.9845C26.3896 9.85866 23.5063 8.66437 20.4999 8.66437ZM14.2522 13.7523C15.9092 12.0953 18.1566 11.1644 20.4999 11.1644C22.8433 11.1644 25.0907 12.0953 26.7477 13.7523C28.4047 15.4093 29.3356 17.6566 29.3356 20C29.3356 22.3434 28.4047 24.5908 26.7477 26.2477C25.0907 27.9047 22.8433 28.8356 20.4999 28.8356C18.1566 28.8356 15.9092 27.9047 14.2522 26.2477C12.5952 24.5907 11.6643 22.3434 11.6643 20C11.6643 17.6566 12.5952 15.4093 14.2522 13.7523Z" fill="white"/>
</svg>
