<svg width="33" height="32" viewBox="0 0 33 32" fill="none" xmlns="http://www.w3.org/2000/svg">
<path d="M13.444 19.6674V24.5574H8.55398V29.4474H3.05273V3.7749C7.4718 3.7749 11.4345 6.49647 13.0208 10.621L16.5002 19.6674H13.444Z" fill="#35C0BA"/>
<path d="M3.05273 2.44482C8.02191 2.44482 12.4777 5.50523 14.2617 10.1431L18.4365 20.9976H14.7744V25.8872H9.88379V29.4478H7.22363V23.2271H12.1143V18.3374H14.5635L11.7793 11.0981C10.3904 7.48744 6.92137 5.10498 3.05273 5.10498V2.44482Z" fill="#134276"/>
<path d="M27.3955 20.2788C27.3955 17.5422 26.2986 14.7943 24.0781 12.6851L25.9102 10.7573C28.6649 13.3742 30.0557 16.8211 30.0557 20.2788C30.0556 23.7365 28.6649 27.1834 25.9102 29.8003L24.0781 27.8716C26.2984 25.7624 27.3955 23.0153 27.3955 20.2788Z" fill="#134276"/>
<path d="M22.2998 20.2786C22.2998 18.7809 21.7 17.2717 20.4746 16.1077L22.3066 14.1799C24.0662 15.8516 24.96 18.0597 24.96 20.2786C24.9599 22.4974 24.0665 24.7055 22.3066 26.3772L20.4746 24.4485C21.6999 23.2846 22.2997 21.7762 22.2998 20.2786Z" fill="#134276"/>
</svg>
