<svg width="32" height="32" viewBox="0 0 32 32" fill="none" xmlns="http://www.w3.org/2000/svg">
<g clip-path="url(#clip0_8000_9265)">
<path fill-rule="evenodd" clip-rule="evenodd" d="M16 2.55249H29.4475L29.4474 19.6675H17.2225V18.445H23.335V8.66501H16V2.55249Z" fill="white"/>
<path d="M30.7773 1.22241V20.9978H17.2226V18.3376H28.1172V3.88257H16V1.22241H30.7773Z" fill="#134276"/>
<path d="M6.21999 5.60876C6.21999 6.41933 6.54199 7.1967 7.11515 7.76985C7.6883 8.34301 8.46567 8.66501 9.27624 8.66501C10.0868 8.66501 10.8642 8.34301 11.4373 7.76985C12.0105 7.1967 12.3325 6.41933 12.3325 5.60876C12.3325 4.79819 12.0105 4.02082 11.4373 3.44766C10.8642 2.87451 10.0868 2.55251 9.27624 2.55251C8.46567 2.55251 7.6883 2.87451 7.11515 3.44766C6.54199 4.02082 6.21999 4.79819 6.21999 5.60876Z" fill="#35C0BA"/>
<path d="M7.44249 12.3325C4.74182 12.3325 2.55249 14.5219 2.55249 17.2225V22.7238H4.99749V30.67H13.555V16H20.89V12.3325H7.44249Z" fill="#35C0BA"/>
<path d="M11.0022 5.60915C11.0022 5.1515 10.8208 4.71214 10.4973 4.38845C10.1737 4.0648 9.73432 3.88269 9.27663 3.88259C8.8188 3.88259 8.37966 4.06471 8.05593 4.38845C7.73219 4.71218 7.55007 5.15132 7.55007 5.60915C7.55017 6.06684 7.73229 6.50621 8.05593 6.82985C8.37963 7.15334 8.81899 7.33473 9.27663 7.33473C9.73432 7.33463 10.1737 7.15349 10.4973 6.82985C10.821 6.50621 11.0021 6.06684 11.0022 5.60915ZM13.6624 5.60915C13.6623 6.77231 13.2007 7.88822 12.3782 8.71071C11.5557 9.5332 10.4398 9.99479 9.27663 9.99489C8.11351 9.99489 6.99761 9.53305 6.17507 8.71071C5.35258 7.88822 4.89002 6.77231 4.88991 5.60915C4.88991 4.44584 5.35249 3.33017 6.17507 2.50759C6.99765 1.68501 8.11333 1.22243 9.27663 1.22243C10.4398 1.22253 11.5557 1.6851 12.3782 2.50759C13.2005 3.33013 13.6624 4.44603 13.6624 5.60915Z" fill="#134276"/>
<path d="M1.22241 17.2222C1.2226 13.7873 4.00687 11.0024 7.44214 11.0024H20.8904V13.6626H7.44214C5.47632 13.6626 3.88276 15.256 3.88257 17.2222V21.394H6.32788V30.6704H3.66772V24.0542H1.22241V17.2222Z" fill="#134276"/>
<path d="M14.8851 16V30.6699H12.2249V16H14.8851Z" fill="#134276"/>
</g>
<defs>
<clipPath id="clip0_8000_9265">
<rect width="32" height="32" fill="white"/>
</clipPath>
</defs>
</svg>
