<svg width="24" height="24" viewBox="0 0 24 24" fill="none" xmlns="http://www.w3.org/2000/svg">
<g clip-path="url(#clip0_10276_23161)">
<path d="M17.3312 9.11357L15.379 7.55183L10.7502 13.3378L8.52866 11.1163L6.76089 12.8841L10.9575 17.0807L17.3312 9.11357Z" fill="#388314"/>
<path fill-rule="evenodd" clip-rule="evenodd" d="M11.9999 0.664551C8.99354 0.664551 6.11028 1.85884 3.98444 3.98468C1.8586 6.11052 0.664307 8.99378 0.664307 12.0002C0.664307 15.0066 1.8586 17.8899 3.98444 20.0157C6.11029 22.1415 8.99354 23.3358 11.9999 23.3358C15.0063 23.3358 17.8896 22.1415 20.0155 20.0157C22.1413 17.8898 23.3356 15.0066 23.3356 12.0002C23.3356 8.99379 22.1413 6.11053 20.0155 3.98468C17.8896 1.85884 15.0063 0.664551 11.9999 0.664551ZM5.75221 5.75245C7.40921 4.09545 9.65658 3.16455 11.9999 3.16455C14.3433 3.16455 16.5907 4.09545 18.2477 5.75245C19.9047 7.40945 20.8356 9.65682 20.8356 12.0002C20.8356 14.3436 19.9047 16.5909 18.2477 18.2479C16.5907 19.9049 14.3433 20.8358 11.9999 20.8358C9.65657 20.8358 7.4092 19.9049 5.75221 18.2479C4.09521 16.5909 3.16431 14.3435 3.16431 12.0002C3.16431 9.65683 4.0952 7.40945 5.75221 5.75245Z" fill="#388314"/>
</g>
<defs>
<clipPath id="clip0_10276_23161">
<rect width="24" height="24" fill="white"/>
</clipPath>
</defs>
</svg>
