<svg width="24" height="24" viewBox="0 0 24 24" fill="none" xmlns="http://www.w3.org/2000/svg">
<g clip-path="url(#clip0_6036_879)">
<path fill-rule="evenodd" clip-rule="evenodd" d="M3.29505 3.29504C5.40484 1.18527 8.26632 0 11.25 0C14.2337 0 17.0952 1.18527 19.205 3.29504C21.3147 5.40481 22.5 8.26631 22.5 11.25C22.5 13.8141 21.6247 16.2878 20.0396 18.2719L23.8839 22.1161L22.1161 23.8839L18.2719 20.0396C16.2878 21.6247 13.8141 22.5 11.25 22.5C8.26631 22.5 5.40484 21.3147 3.29506 19.205C1.1853 17.0952 0 14.2337 0 11.25C0 8.26632 1.18527 5.40483 3.29505 3.29504ZM17.4372 17.4372C19.0781 15.7962 20 13.5706 20 11.25L17.4372 17.4372ZM17.4372 17.4372C15.7963 19.0781 13.5707 20 11.25 20C8.92936 20 6.70376 19.0781 5.06281 17.4372C3.42187 15.7962 2.5 13.5707 2.5 11.25C2.5 8.92936 3.42187 6.70376 5.06282 5.06281C6.70377 3.42187 8.92936 2.5 11.25 2.5C13.5707 2.5 15.7962 3.42187 17.4372 5.06282C19.0781 6.70378 20 8.92938 20 11.25" fill="#333333"/>
</g>
<defs>
<clipPath id="clip0_6036_879">
<rect width="24" height="24" fill="white"/>
</clipPath>
</defs>
</svg>
