<svg width="33" height="32" viewBox="0 0 33 32" fill="none" xmlns="http://www.w3.org/2000/svg">
<path d="M13.194 19.6674V24.5574H8.30398V29.4474H2.80273V3.7749C7.2218 3.7749 11.1845 6.49647 12.7708 10.621L16.2502 19.6674H13.194Z" fill="#35C0BA"/>
<path d="M2.80273 2.44482C7.77191 2.44482 12.2277 5.50523 14.0117 10.1431L18.1865 20.9976H14.5244V25.8872H9.63379V29.4478H6.97363V23.2271H11.8643V18.3374H14.3135L11.5293 11.0981C10.1404 7.48744 6.67137 5.10498 2.80273 5.10498V2.44482Z" fill="#134276"/>
<path d="M27.1455 20.2788C27.1455 17.5422 26.0486 14.7943 23.8281 12.6851L25.6602 10.7573C28.4149 13.3742 29.8057 16.8211 29.8057 20.2788C29.8056 23.7365 28.4149 27.1834 25.6602 29.8003L23.8281 27.8716C26.0484 25.7624 27.1455 23.0153 27.1455 20.2788Z" fill="#134276"/>
<path d="M22.0498 20.2786C22.0498 18.7809 21.45 17.2717 20.2246 16.1077L22.0566 14.1799C23.8162 15.8516 24.71 18.0597 24.71 20.2786C24.7099 22.4974 23.8165 24.7055 22.0566 26.3772L20.2246 24.4485C21.4499 23.2846 22.0497 21.7762 22.0498 20.2786Z" fill="#134276"/>
</svg>
