<svg width="33" height="32" viewBox="0 0 33 32" fill="none" xmlns="http://www.w3.org/2000/svg">
<path fill-rule="evenodd" clip-rule="evenodd" d="M3.30249 2.55249H24.597V14.1522C23.9186 14.3084 23.2603 14.5735 22.6497 14.9473C20.1161 13.3964 16.76 13.7175 14.5671 15.9105C11.9979 18.4796 11.9979 22.645 14.5671 25.2141L15.6099 26.2569V27.2998H3.30249V2.55249Z" fill="#35C0BA"/>
<path d="M25.9265 1.22241V14.1658H23.2673V3.88257H4.63257V25.9695H16.1384V28.6296H1.97241V1.22241H25.9265Z" fill="#134276"/>
<path d="M14.7652 13.67L14.7346 16.33L8.35909 16.2568L8.38965 13.5968L14.7652 13.67Z" fill="#134276"/>
<path d="M19.5256 8.0202V10.6804H8.37427V8.0202H19.5256Z" fill="#134276"/>
<path d="M21.2773 18.5038L22.6496 19.8762L24.022 18.5038C25.1588 17.3669 27.002 17.3669 28.139 18.5038C29.2758 19.6407 29.2758 21.4839 28.139 22.6208L22.6496 28.1101L17.1603 22.6208C16.0234 21.4839 16.0234 19.6407 17.1603 18.5038C18.2972 17.3669 20.1404 17.3669 21.2773 18.5038Z" fill="white"/>
<path d="M23.2393 17.4128C24.904 15.9084 27.4745 15.9588 29.0791 17.5632L29.2295 17.7214C30.6855 19.3327 30.6854 21.7917 29.2295 23.403L29.0791 23.5612L22.6494 29.9909L16.2197 23.5612C14.5635 21.9049 14.5634 19.2195 16.2197 17.5632C17.876 15.9069 20.5615 15.9069 22.2178 17.5632L22.6494 17.9948L23.0811 17.5632L23.2393 17.4128ZM27.1983 19.4441C26.6194 18.8654 25.7039 18.8295 25.083 19.3357L24.9629 19.4441L22.6494 21.7575L20.3369 19.4441C19.7194 18.8266 18.7181 18.8266 18.1006 19.4441C17.4831 20.0616 17.4831 21.0629 18.1006 21.6804L22.6494 26.2292L27.1983 21.6804L27.3067 21.5603C27.7796 20.9805 27.7797 20.1439 27.3067 19.5642L27.1983 19.4441Z" fill="#134276"/>
</svg>
