<svg width="16" height="22" viewBox="0 0 16 22" fill="none" xmlns="http://www.w3.org/2000/svg">
<g clip-path="url(#clip0_6827_5396)">
<path d="M8.83268 14.9998H7.16602V13.6665H8.83268V14.9998Z" fill="#D03633"/>
<path d="M8.83268 12.3332H7.16602V6.99984H8.83268V12.3332Z" fill="#D03633"/>
<path fill-rule="evenodd" clip-rule="evenodd" d="M7.99935 3.6665C9.94428 3.6665 11.8096 4.43903 13.1849 5.81429C14.5602 7.18956 15.3327 9.05492 15.3327 10.9998C15.3327 12.9448 14.5602 14.8101 13.1849 16.1854L12.9212 16.436C11.576 17.6541 9.82271 18.3332 7.99935 18.3332C6.176 18.3332 4.4227 17.6541 3.07747 16.436L2.8138 16.1854C1.43854 14.8101 0.666016 12.9448 0.666016 10.9998C0.666016 9.17649 1.3451 7.42319 2.56315 6.07796L2.8138 5.81429C4.18907 4.43902 6.05443 3.6665 7.99935 3.6665ZM7.99935 5.33317C6.49646 5.33317 5.0549 5.92997 3.99219 6.99268C2.92948 8.05538 2.33268 9.49695 2.33268 10.9998C2.33268 12.5027 2.92949 13.9443 3.99219 15.007C5.05489 16.0697 6.49645 16.6665 7.99935 16.6665C9.50227 16.6665 10.9438 16.0697 12.0065 15.007C13.0692 13.9443 13.666 12.5028 13.666 10.9998C13.666 9.49694 13.0692 8.05538 12.0065 6.99268C10.9438 5.92998 9.50225 5.33317 7.99935 5.33317Z" fill="#D03633"/>
</g>
<defs>
<clipPath id="clip0_6827_5396">
<rect width="16" height="16" fill="white" transform="translate(0 3)"/>
</clipPath>
</defs>
</svg>
