<svg width="40" height="40" viewBox="0 0 40 40" fill="none" xmlns="http://www.w3.org/2000/svg">
<g clip-path="url(#clip0_4701_5625)">
<path d="M30.3313 13.5316C31.3795 13.5316 32.4042 13.2208 33.2758 12.6384C34.1474 12.0561 34.8267 11.2283 35.2278 10.2599C35.629 9.29142 35.7339 8.22576 35.5294 7.19766C35.3249 6.16957 34.8201 5.2252 34.0789 4.48398C33.3377 3.74276 32.3933 3.23798 31.3652 3.03348C30.3371 2.82898 29.2715 2.93394 28.303 3.33508C27.3346 3.73623 26.5068 4.41554 25.9245 5.28712C25.3421 6.1587 25.0313 7.1834 25.0312 8.23164C25.0312 9.63729 25.5896 10.9854 26.5836 11.9793C27.5775 12.9733 28.9256 13.5316 30.3313 13.5316Z" fill="#9BA5B7"/>
<path d="M30.3322 2.93166C29.2723 2.92913 28.236 3.24516 27.3579 3.83875C26.4798 4.43234 25.8004 5.2761 25.4076 6.26057C25.0149 7.24505 24.9271 8.32482 25.1556 9.35982C25.384 10.3948 25.9182 11.3373 26.6888 12.065L34.1655 4.58832C33.673 4.06581 33.0789 3.64937 32.4198 3.3645C31.7606 3.07963 31.0502 2.93235 30.3322 2.93166Z" fill="#EEF1F4"/>
<path d="M21.6693 12.0671H1.66927C1.44826 12.0671 1.2363 11.9793 1.08002 11.823C0.923735 11.6667 0.835938 11.4547 0.835938 11.2337V6.23372C0.835937 6.01271 0.923735 5.80075 1.08002 5.64447C1.2363 5.48819 1.44826 5.40039 1.66927 5.40039H21.6693" fill="#9BA5B7"/>
<path d="M21.6693 12.0671H1.66927C1.44826 12.0671 1.2363 11.9793 1.08002 11.823C0.923735 11.6667 0.835938 11.4547 0.835938 11.2337V6.23372C0.835937 6.01271 0.923735 5.80075 1.08002 5.64447C1.2363 5.48819 1.44826 5.40039 1.66927 5.40039H21.6693" stroke="#333333" stroke-width="1.66667" stroke-linecap="round" stroke-linejoin="round"/>
<path d="M30.3313 13.5316C31.3795 13.5316 32.4042 13.2208 33.2758 12.6384C34.1474 12.0561 34.8267 11.2283 35.2278 10.2599C35.629 9.29142 35.7339 8.22576 35.5294 7.19766C35.3249 6.16957 34.8201 5.2252 34.0789 4.48398C33.3377 3.74276 32.3933 3.23798 31.3652 3.03348C30.3371 2.82898 29.2715 2.93394 28.303 3.33508C27.3346 3.73623 26.5068 4.41554 25.9245 5.28712C25.3421 6.1587 25.0313 7.1834 25.0312 8.23164C25.0312 9.63729 25.5896 10.9854 26.5836 11.9793C27.5775 12.9733 28.9256 13.5316 30.3313 13.5316Z" stroke="#333333" stroke-width="1.66667" stroke-linecap="round" stroke-linejoin="round"/>
<path d="M34.0859 11.9824L39.1709 17.0674" stroke="#333333" stroke-width="1.66667" stroke-linecap="round" stroke-linejoin="round"/>
<path d="M2.5026 28.7337C2.83224 28.7337 3.15447 28.636 3.42855 28.4528C3.70264 28.2697 3.91626 28.0094 4.0424 27.7049C4.16855 27.4003 4.20156 27.0652 4.13725 26.7419C4.07294 26.4186 3.9142 26.1216 3.68112 25.8885C3.44803 25.6555 3.15106 25.4967 2.82775 25.4324C2.50445 25.3681 2.16934 25.4011 1.8648 25.5273C1.56026 25.6534 1.29996 25.867 1.11682 26.1411C0.933686 26.4152 0.835938 26.7374 0.835938 27.0671C0.835938 27.5091 1.01153 27.933 1.32409 28.2456C1.63665 28.5581 2.06058 28.7337 2.5026 28.7337Z" fill="#9BA5B7" stroke="#333333" stroke-width="1.66667" stroke-linecap="round" stroke-linejoin="round"/>
<path d="M2.5026 37.0658C2.83224 37.0658 3.15447 36.968 3.42855 36.7849C3.70264 36.6017 3.91626 36.3414 4.0424 36.0369C4.16855 35.7324 4.20156 35.3972 4.13725 35.0739C4.07294 34.7506 3.9142 34.4537 3.68112 34.2206C3.44803 33.9875 3.15106 33.8288 2.82775 33.7644C2.50445 33.7001 2.16934 33.7331 1.8648 33.8593C1.56026 33.9854 1.29996 34.1991 1.11682 34.4731C0.933686 34.7472 0.835938 35.0695 0.835938 35.3991C0.835938 35.8411 1.01153 36.265 1.32409 36.5776C1.63665 36.8902 2.06058 37.0658 2.5026 37.0658Z" fill="#9BA5B7" stroke="#333333" stroke-width="1.66667" stroke-linecap="round" stroke-linejoin="round"/>
<path d="M7.5 27.0684H25.8333" stroke="#333333" stroke-width="1.66667" stroke-linecap="round" stroke-linejoin="round"/>
<path d="M2.5026 20.4017C2.83224 20.4017 3.15447 20.3039 3.42855 20.1208C3.70264 19.9377 3.91626 19.6774 4.0424 19.3728C4.16855 19.0683 4.20156 18.7332 4.13725 18.4099C4.07294 18.0866 3.9142 17.7896 3.68112 17.5565C3.44803 17.3234 3.15106 17.1647 2.82775 17.1004C2.50445 17.0361 2.16934 17.0691 1.8648 17.1952C1.56026 17.3214 1.29996 17.535 1.11682 17.8091C0.933686 18.0832 0.835938 18.4054 0.835938 18.735C0.835938 19.1771 1.01153 19.601 1.32409 19.9135C1.63665 20.2261 2.06058 20.4017 2.5026 20.4017Z" fill="#9BA5B7" stroke="#333333" stroke-width="1.66667" stroke-linecap="round" stroke-linejoin="round"/>
<path d="M7.5 18.7324H25.8333" stroke="#333333" stroke-width="1.66667" stroke-linecap="round" stroke-linejoin="round"/>
<path d="M7.5 35.4004H25.8333" stroke="#333333" stroke-width="1.66667" stroke-linecap="round" stroke-linejoin="round"/>
</g>
<defs>
<clipPath id="clip0_4701_5625">
<rect width="40" height="40" fill="white"/>
</clipPath>
</defs>
</svg>
