<svg width="33" height="32" viewBox="0 0 33 32" fill="none" xmlns="http://www.w3.org/2000/svg">
<path d="M24.6951 14.7781L21.028 4.99902H6.9711L3.30396 14.7781H24.6951Z" fill="white"/>
<path d="M30.1963 14.7778V25.7793H3.30396V14.7778H30.1963Z" fill="#35C0BA"/>
<path d="M6.97095 25.1683C6.97095 25.9787 7.29291 26.756 7.86601 27.3292C8.43911 27.9022 9.21641 28.2242 10.0269 28.2242C10.8374 28.2242 11.6147 27.9022 12.1878 27.3292C12.7609 26.756 13.0829 25.9787 13.0829 25.1683C13.0829 24.3578 12.7609 23.5805 12.1878 23.0073C11.6147 22.4343 10.8374 22.1123 10.0269 22.1123C9.21641 22.1123 8.43911 22.4343 7.86601 23.0073C7.29291 23.5805 6.97095 24.3578 6.97095 25.1683Z" fill="white"/>
<path d="M20.4172 25.1683C20.4172 25.9787 20.7392 26.756 21.3123 27.3292C21.8854 27.9022 22.6627 28.2242 23.4732 28.2242C24.2836 28.2242 25.0609 27.9022 25.6341 27.3292C26.2072 26.756 26.5291 25.9787 26.5291 25.1683C26.5291 24.3578 26.2072 23.5805 25.6341 23.0073C25.0609 22.4343 24.2836 22.1123 23.4732 22.1123C22.6627 22.1123 21.8854 22.4343 21.3123 23.0073C20.7392 23.5805 20.4172 24.3578 20.4172 25.1683Z" fill="white"/>
<path d="M11.7513 25.168C11.7512 24.7108 11.5702 24.2717 11.2468 23.9482V23.9493C10.9234 23.6259 10.4843 23.4437 10.0269 23.4437C9.56961 23.4437 9.13045 23.6259 8.80706 23.9493C8.48401 24.2727 8.30263 24.7111 8.30259 25.168C8.30259 25.6253 8.4847 26.0644 8.80818 26.3879H8.80706C9.13045 26.7113 9.56961 26.8923 10.0269 26.8924C10.4843 26.8924 10.9234 26.7113 11.2468 26.3879L11.3606 26.2607C11.6121 25.9537 11.7513 25.5681 11.7513 25.168ZM14.4142 25.168C14.4142 26.2591 14.0081 27.3084 13.2792 28.1134L13.1296 28.2707C12.3068 29.0934 11.1905 29.5553 10.0269 29.5553C8.9361 29.5553 7.8875 29.1489 7.08273 28.4203L6.92425 28.2707C6.10159 27.4479 5.63965 26.3316 5.63965 25.168C5.63969 24.0045 6.10156 22.8882 6.92425 22.0654L7.08273 21.9158C7.88748 21.1873 8.93616 20.7808 10.0269 20.7808C11.1179 20.7808 12.1674 21.187 12.9722 21.9158L13.1296 22.0654L13.2792 22.2238C14.0078 23.0287 14.4142 24.0772 14.4142 25.168Z" fill="#134276"/>
<path d="M19.0857 25.1684C19.0857 24.7845 19.136 24.4049 19.233 24.04L21.8067 24.7253C21.7686 24.8686 21.7486 25.0175 21.7486 25.1684C21.7487 25.6253 21.9294 26.0639 22.252 26.3871H22.2531C22.5766 26.7106 23.0157 26.8927 23.473 26.8927C23.5901 26.8927 23.7059 26.881 23.8178 26.8581L24.3513 29.4675C24.064 29.5263 23.7695 29.5557 23.473 29.5557C22.3822 29.5556 21.3336 29.1492 20.5288 28.4206L20.3703 28.2711C19.5476 27.4483 19.0857 26.332 19.0857 25.1684Z" fill="#134276"/>
<path d="M10.6209 13.4463V16.1092H3.30396V13.4463H10.6209ZM24.6957 13.4463V16.1092H15.5205V13.4463H24.6957Z" fill="#134276"/>
<path d="M6.38089 10.3639L4.63536 15.019V24.4476H7.03268V27.1106H1.97241V14.5369L3.88759 9.42864L6.38089 10.3639ZM21.9501 3.66748L25.6175 13.4465H31.5282V27.1106H26.4679V24.4476H28.8653V16.1094H23.7726L20.1052 6.33043H7.89317L7.88424 6.35498L7.81839 6.33043H6.9713V6.01235L5.39094 5.41971L6.0483 3.66748H21.9501Z" fill="#134276"/>
<path d="M20.4788 24.4478V27.1107H13.0212V24.4478H20.4788Z" fill="#134276"/>
<path d="M31.4961 28.8633L30.5541 29.8041L29.6133 30.7461L2.00391 3.13783L3.88783 1.25391L31.4961 28.8633Z" fill="#134276"/>
</svg>
