<svg width="32" height="32" viewBox="0 0 32 32" fill="none" xmlns="http://www.w3.org/2000/svg">
<g clip-path="url(#clip0_8000_25910)">
<path d="M3.51994 9.63H27.9699V27.97H3.51994V9.63Z" fill="#35C0BA"/>
<path d="M30.4907 28.6099L28.6099 30.4908L0.999512 2.88043L2.88037 0.999573L30.4907 28.6099Z" fill="#134276"/>
<path d="M20.5303 9.39012C20.5303 6.88478 18.4956 4.85027 15.9903 4.85008H15.5001C12.9946 4.85008 10.96 6.88466 10.96 9.39012V9.63035H8.29986V9.39012C8.29986 5.41558 11.5255 2.18992 15.5001 2.18992H15.9903C19.9647 2.19011 23.1895 5.4157 23.1895 9.39012V9.63035H20.5303V9.39012Z" fill="#134276"/>
<path d="M4.73967 8.29992V9.63H4.85002V26.6398H23.0795V29.2999H2.18986V8.29992H4.73967ZM29.3002 8.29992V27.9698H26.6401V10.9601H9.63029V8.29992H29.3002Z" fill="#134276"/>
<path d="M17.08 13.31V15.7504H14.4199V13.31H17.08Z" fill="#134276"/>
<path d="M17.08 23.09V25.5304H14.4199V23.09H17.08Z" fill="#134276"/>
<path d="M19.83 17.5801H17.1699V17.0801H14.33V17.4297L17.8388 18.2119C19.0121 18.4679 19.8398 19.5113 19.8398 20.7002V21.8604C19.8396 23.2818 18.6873 24.4101 17.29 24.4102H14.2304C12.8089 24.4102 11.6798 23.2576 11.6796 21.8604V21.25H14.3398V21.75H17.1796V20.79L13.6816 20.0098C12.5034 19.7573 11.6699 18.7116 11.6699 17.5195V16.9697C11.67 15.5725 12.7983 14.4201 14.2197 14.4199H17.2802C18.6774 14.4201 19.8299 15.5483 19.83 16.9697V17.5801Z" fill="#134276"/>
</g>
<defs>
<clipPath id="clip0_8000_25910">
<rect width="29.49" height="29.49" fill="white" transform="translate(1 1)"/>
</clipPath>
</defs>
</svg>
