<svg width="16" height="22" viewBox="0 0 16 22" fill="none" xmlns="http://www.w3.org/2000/svg">
<g clip-path="url(#clip0_10008_68221)">
<path d="M8.83268 15.0001H7.16602V13.6667H8.83268V15.0001Z" fill="#D03633"/>
<path d="M8.83268 12.3334H7.16602V7.00008H8.83268V12.3334Z" fill="#D03633"/>
<path fill-rule="evenodd" clip-rule="evenodd" d="M7.99935 3.66675C9.94428 3.66675 11.8096 4.43927 13.1849 5.81453C14.5602 7.1898 15.3327 9.05516 15.3327 11.0001C15.3327 12.945 14.5602 14.8104 13.1849 16.1856L12.9212 16.4363C11.576 17.6543 9.82271 18.3334 7.99935 18.3334C6.176 18.3334 4.4227 17.6543 3.07747 16.4363L2.8138 16.1856C1.43854 14.8104 0.666016 12.945 0.666016 11.0001C0.666016 9.17673 1.3451 7.42343 2.56315 6.07821L2.8138 5.81453C4.18907 4.43927 6.05443 3.66675 7.99935 3.66675ZM7.99935 5.33341C6.49646 5.33341 5.0549 5.93021 3.99219 6.99292C2.92948 8.05563 2.33268 9.49719 2.33268 11.0001C2.33268 12.503 2.92949 13.9445 3.99219 15.0072C5.05489 16.0699 6.49645 16.6667 7.99935 16.6667C9.50227 16.6667 10.9438 16.0699 12.0065 15.0072C13.0692 13.9445 13.666 12.503 13.666 11.0001C13.666 9.49718 13.0692 8.05562 12.0065 6.99292C10.9438 5.93022 9.50225 5.33341 7.99935 5.33341Z" fill="#D03633"/>
</g>
<defs>
<clipPath id="clip0_10008_68221">
<rect width="16" height="16" fill="white" transform="translate(0 3)"/>
</clipPath>
</defs>
</svg>
