<svg width="33" height="32" viewBox="0 0 33 32" fill="none" xmlns="http://www.w3.org/2000/svg">
<path d="M4.5249 9.88745H28.9749V28.225H4.5249V9.88745Z" fill="#35C0BA"/>
<path d="M21.533 9.64319C21.533 7.13706 19.5009 5.10532 16.9949 5.1051H16.5056C13.9993 5.1051 11.9675 7.13692 11.9675 9.64319V9.88733H9.30737V9.64319C9.30737 5.66784 12.5302 2.44495 16.5056 2.44495H16.9949C20.9699 2.44516 24.1921 5.66796 24.1921 9.64319V9.88733H21.533V9.64319Z" fill="#134276"/>
<path d="M30.3052 8.55737V29.5554H3.19482V8.55737H30.3052ZM5.85498 26.8953H27.645V11.2175H5.85498V26.8953Z" fill="#134276"/>
<path d="M18.0796 12.9437V15.389H15.4194V12.9437H18.0796Z" fill="#134276"/>
<path d="M18.0796 22.7238V25.1691H15.4194V22.7238H18.0796Z" fill="#134276"/>
<path d="M20.8301 17.2228H18.1699V16.7189H15.3291V17.0724L18.832 17.8507L19.0469 17.9083C20.1002 18.2405 20.8301 19.2215 20.8301 20.3429V21.5011C20.8301 22.9108 19.6871 24.0538 18.2773 24.0538H15.2217C13.8999 24.0538 12.8131 23.0491 12.6826 21.7618L12.6689 21.5011V20.8898H15.3291V21.3937H18.1699V20.4279L14.668 19.6505C13.5003 19.3909 12.6689 18.3548 12.6689 17.1583V16.6115C12.6689 15.2018 13.8119 14.0587 15.2217 14.0587H18.2773C19.6871 14.0587 20.8301 15.2017 20.8301 16.6115V17.2228Z" fill="#134276"/>
</svg>
