<svg width="33" height="32" viewBox="0 0 33 32" fill="none" xmlns="http://www.w3.org/2000/svg">
<g clip-path="url(#clip0_7157_36656)">
<path d="M4.16213 22.1059C3.13275 20.1756 2.58008 18.0051 2.58008 15.7776C2.58008 12.2111 3.99687 8.79066 6.51877 6.26877C9.04066 3.74687 12.4611 2.33008 16.0276 2.33008C19.5941 2.33008 23.0145 3.74687 25.5364 6.26877C28.0583 8.79066 29.4751 12.2111 29.4751 15.7776C29.4751 19.3441 28.0583 22.7645 25.5364 25.2864C23.0145 27.8083 19.5941 29.2251 16.0276 29.2251C13.8178 29.2251 11.664 28.6812 9.74527 27.6674L3.19133 28.6138L4.16213 22.1059Z" fill="#35C0BA"/>
<path d="M28.1455 15.7773C28.1454 12.5637 26.8681 9.4814 24.5957 7.20898C22.3233 4.93667 19.241 3.66016 16.0273 3.66016C12.8137 3.66022 9.7314 4.93657 7.45898 7.20898C5.18657 9.4814 3.91022 12.5637 3.91016 15.7773C3.91016 17.7845 4.40831 19.7411 5.33594 21.4805L5.54199 21.8672L5.47754 22.3018L4.76953 27.042L9.9834 26.2891L10.3662 26.4912C12.0951 27.4048 14.0362 27.8955 16.0273 27.8955C19.2411 27.8955 22.3232 26.6182 24.5957 24.3457C26.8682 22.0732 28.1455 18.9911 28.1455 15.7773ZM30.8047 15.7773C30.8047 19.6966 29.2479 23.4552 26.4766 26.2266C23.7052 28.9979 19.9466 30.5547 16.0273 30.5547C13.7489 30.5547 11.525 30.0281 9.51758 29.043L1.6123 30.1855L2.7832 22.333C1.78385 20.3138 1.25 18.0729 1.25 15.7773C1.25006 11.8582 2.80686 8.09939 5.57812 5.32812C8.34939 2.55686 12.1082 1.00006 16.0273 1C19.9465 1 23.7053 2.55696 26.4766 5.32812C29.2478 8.09939 30.8046 11.8582 30.8047 15.7773Z" fill="#134276"/>
<path d="M24.0276 10.3554V12.5312H9.02758V10.3554H24.0276Z" fill="#134276"/>
<path d="M17.6155 8.77727V11.4443H15.4397V8.77727H17.6155Z" fill="#134276"/>
<path d="M22.2824 11.4433C22.2824 14.6984 21.0208 17.9499 18.3625 20.0419C17.2269 20.9356 15.9081 21.8742 14.5832 22.5937C13.2864 23.2978 11.8553 23.8642 10.5276 23.8642V21.6884C11.3021 21.6884 12.3418 21.335 13.5451 20.6816C14.7207 20.0432 15.9319 19.1858 17.0168 18.332C19.0547 16.7282 20.1067 14.1642 20.1067 11.4433H22.2824Z" fill="#134276"/>
<path d="M12.9488 11.4433C12.9488 14.164 14.0001 16.7282 16.0377 18.332C17.1227 19.1858 18.3348 20.0432 19.5103 20.6816C20.7136 21.3349 21.7534 21.6884 22.5279 21.6884V23.8642C21.2 23.8642 19.7682 23.2979 18.4713 22.5937C17.1464 21.8742 15.8276 20.9356 14.692 20.0419C12.0339 17.9499 10.773 14.6982 10.773 11.4433H12.9488Z" fill="#134276"/>
</g>
<defs>
<clipPath id="clip0_7157_36656">
<rect x="0.25" width="32" height="32" fill="white"/>
</clipPath>
</defs>
</svg>
