<svg width="32" height="32" viewBox="0 0 32 32" fill="none" xmlns="http://www.w3.org/2000/svg">
<path d="M3.33008 9.44258H27.7801V27.7801H3.33008V9.44258Z" fill="#35C0BA"/>
<path d="M26.6924 10.5305H4.41797V26.6926H26.6924V10.5305ZM28.8682 28.8684H2.24219V8.35469H28.8682V28.8684Z" fill="#134276"/>
<path d="M20.3379 9.19824C20.3379 6.69211 18.3058 4.66037 15.7998 4.66016H15.3105C12.8042 4.66016 10.7725 6.69197 10.7725 9.19824V9.44238H8.1123V9.19824C8.1123 5.22289 11.3352 2 15.3105 2H15.7998C19.7749 2.00021 22.9971 5.22301 22.9971 9.19824V9.44238H20.3379V9.19824Z" fill="#134276"/>
<path d="M29.1104 8.1125V29.1105H2V8.1125H29.1104Z" fill="#134276"/>
<path d="M4.66016 26.4504H26.4502V10.7727H4.66016V26.4504Z" fill="#35C0BA"/>
<path d="M14.8284 14.8284L15.5 15.5L16.1717 14.8284C16.7021 14.298 17.4215 14 18.1716 14C19.7337 14 21.0001 15.2664 21 16.8285C21 17.5786 20.702 18.298 20.1716 18.8284L15.5 23.5001L10.8284 18.8284C10.298 18.298 10 17.5786 10 16.8284C10 15.2663 11.2663 14 12.8284 14C13.5786 14 14.298 14.298 14.8284 14.8284Z" fill="white"/>
<path d="M19.9121 16.8281C19.912 15.8672 19.1329 15.0881 18.1719 15.0879C17.7104 15.0879 17.2678 15.2714 16.9414 15.5977L15.5 17.0391L14.0596 15.5977C13.7332 15.2713 13.2898 15.0879 12.8281 15.0879C11.8671 15.0881 11.0881 15.8671 11.0879 16.8281C11.0879 17.2898 11.2713 17.7332 11.5977 18.0596L15.5 21.9609L19.4023 18.0596C19.7287 17.7332 19.9121 17.2897 19.9121 16.8281ZM22.0879 16.8281C22.0879 17.8668 21.6749 18.8632 20.9404 19.5977L15.5 25.0391L10.0596 19.5977C9.32508 18.8632 8.91211 17.8669 8.91211 16.8281C8.91227 14.6654 10.6654 12.9123 12.8281 12.9121C13.822 12.9121 14.7761 13.2909 15.5 13.9668C16.2239 13.2909 17.1781 12.9121 18.1719 12.9121C20.3345 12.9123 22.0878 14.6654 22.0879 16.8281Z" fill="#134276"/>
</svg>
