<svg width="80" height="80" viewBox="0 0 80 80" fill="none" xmlns="http://www.w3.org/2000/svg">
<g clip-path="url(#clip0_1098_4708)">
<path d="M0 40C0 50.6087 4.21427 60.7828 11.7157 68.2843C19.2172 75.7857 29.3913 80 40 80C50.6087 80 60.7828 75.7857 68.2843 68.2843C75.7857 60.7828 80 50.6087 80 40C80 29.3913 75.7857 19.2172 68.2843 11.7157C60.7828 4.21427 50.6087 0 40 0C29.3913 0 19.2172 4.21427 11.7157 11.7157C4.21427 19.2172 0 29.3913 0 40Z" fill="#333333" fill-opacity="0.15"/>
<path d="M30 23.3333V33.3333" stroke="#333333" stroke-width="6.66667"/>
<path d="M50 23.3333V33.3333" stroke="#333333" stroke-width="6.66667"/>
<path d="M36.6672 3.48267C19.0766 5.06783 5.06832 19.0761 3.48315 36.6667M43.3338 3.48267C60.9242 5.06783 74.9325 19.076 76.5175 36.6663M36.6672 76.517C19.0766 74.932 5.06832 60.9237 3.48315 43.3333M43.3338 76.517C60.9242 74.932 74.9325 60.9237 76.5175 43.3333" stroke="#333333" stroke-width="6.66667"/>
<path d="M56.6666 40C56.6666 49.2047 49.2046 56.6667 39.9999 56.6667C30.7952 56.6667 23.3333 49.2047 23.3333 40" stroke="#333333" stroke-width="6.66667"/>
</g>
<defs>
<clipPath id="clip0_1098_4708">
<rect width="80" height="80" fill="white"/>
</clipPath>
</defs>
</svg>
