<svg width="30" height="19" viewBox="0 0 30 19" fill="none" xmlns="http://www.w3.org/2000/svg">
<path d="M4.99709 14.4748C2.79659 14.4748 1.32959 15.575 1.32959 15.575V18.177H8.66459V15.575C8.66459 15.575 7.19759 14.4748 4.99709 14.4748Z" fill="#35C0BA"/>
<path d="M24.5571 14.4748C22.3566 14.4748 20.8896 15.575 20.8896 15.575V18.177H28.2246V15.575C28.2246 15.575 26.7576 14.4748 24.5571 14.4748Z" fill="#35C0BA"/>
<path d="M2.55209 8.34356C2.55209 8.66464 2.61533 8.98258 2.7382 9.27922C2.86108 9.57586 3.04117 9.8454 3.26821 10.0724C3.49525 10.2995 3.76479 10.4796 4.06143 10.6024C4.35807 10.7253 4.67601 10.7886 4.99709 10.7886C5.31817 10.7886 5.63611 10.7253 5.93275 10.6024C6.22939 10.4796 6.49893 10.2995 6.72597 10.0724C6.95301 9.8454 7.1331 9.57586 7.25598 9.27922C7.37885 8.98258 7.44209 8.66464 7.44209 8.34356C7.44209 8.02248 7.37885 7.70454 7.25598 7.4079C7.1331 7.11126 6.95301 6.84172 6.72597 6.61468C6.49893 6.38764 6.22939 6.20755 5.93275 6.08467C5.63611 5.9618 5.31817 5.89856 4.99709 5.89856C4.67601 5.89856 4.35807 5.9618 4.06143 6.08467C3.76479 6.20755 3.49525 6.38764 3.26821 6.61468C3.04117 6.84172 2.86108 7.11126 2.7382 7.4079C2.61533 7.70454 2.55209 8.02248 2.55209 8.34356Z" fill="#35C0BA"/>
<path d="M22.1121 8.34356C22.1121 8.99201 22.3697 9.61391 22.8282 10.0724C23.2867 10.531 23.9086 10.7886 24.5571 10.7886C25.2055 10.7886 25.8274 10.531 26.286 10.0724C26.7445 9.61391 27.0021 8.99201 27.0021 8.34356C27.0021 7.6951 26.7445 7.07321 26.286 6.61468C25.8274 6.15616 25.2055 5.89856 24.5571 5.89856C23.9086 5.89856 23.2867 6.15616 22.8282 6.61468C22.3697 7.07321 22.1121 7.6951 22.1121 8.34356Z" fill="#35C0BA"/>
<path d="M11.5106 5.0966C11.5106 5.52556 11.5951 5.95033 11.7592 6.34664C11.9234 6.74295 12.164 7.10305 12.4673 7.40638C12.7706 7.7097 13.1307 7.95031 13.527 8.11447C13.9234 8.27863 14.3481 8.36312 14.7771 8.36312C15.2061 8.36312 15.6308 8.27863 16.0271 8.11447C16.4234 7.95031 16.7835 7.7097 17.0869 7.40638C17.3902 7.10305 17.6308 6.74295 17.795 6.34664C17.9591 5.95033 18.0436 5.52556 18.0436 5.0966C18.0436 4.66763 17.9591 4.24287 17.795 3.84655C17.6308 3.45024 17.3902 3.09014 17.0869 2.78682C16.7835 2.48349 16.4234 2.24288 16.0271 2.07873C15.6308 1.91457 15.2061 1.83008 14.7771 1.83008C14.3481 1.83008 13.9234 1.91457 13.527 2.07873C13.1307 2.24288 12.7706 2.48349 12.4673 2.78682C12.164 3.09014 11.9234 3.45024 11.7592 3.84655C11.5951 4.24287 11.5106 4.66763 11.5106 5.0966Z" fill="#35C0BA"/>
<path d="M14.7771 12.0113C11.1096 12.0113 8.66463 13.8451 8.66463 13.8451L8.66459 18.1604H20.8895V13.8451C20.8895 13.8451 18.4445 12.0113 14.7771 12.0113Z" fill="#35C0BA"/>
<path d="M4.99756 13.1447C6.31918 13.1448 7.41582 13.4753 8.18018 13.8029C8.56355 13.9672 8.86946 14.1333 9.08545 14.2628C9.1936 14.3277 9.2801 14.3841 9.34326 14.4269C9.37478 14.4483 9.40051 14.4664 9.42041 14.4806C9.43038 14.4877 9.4388 14.4941 9.4458 14.4992C9.4493 14.5017 9.45282 14.504 9.45557 14.506C9.45686 14.507 9.45835 14.5081 9.45947 14.5089L9.46143 14.5099C9.45747 14.5159 9.40157 14.5924 8.66459 15.575L9.4624 14.5109L9.99463 14.9103V18.1769H7.33447V16.342C7.27157 16.3118 7.2049 16.2783 7.13233 16.2472C6.61324 16.0248 5.87602 15.8049 4.99756 15.8048C4.11889 15.8048 3.381 16.0247 2.86182 16.2472C2.78924 16.2783 2.72257 16.3118 2.65967 16.342V18.1769H-0.000488281V14.9103L0.531738 14.5109L1.32959 15.575C0.591864 14.5914 0.535593 14.5168 0.531738 14.5109L0.532715 14.5099L0.534668 14.5089C0.535787 14.5081 0.537287 14.507 0.538574 14.506C0.541321 14.504 0.544845 14.5017 0.54834 14.4992C0.555339 14.4941 0.563757 14.4877 0.573731 14.4806C0.593625 14.4664 0.619359 14.4483 0.650879 14.4269C0.714031 14.3841 0.800553 14.3277 0.908692 14.2628C1.12468 14.1333 1.4306 13.9672 1.81397 13.8029C2.57841 13.4753 3.67572 13.1447 4.99756 13.1447Z" fill="#134276"/>
<path d="M24.5576 13.1447C25.8792 13.1448 26.9758 13.4753 27.7402 13.8029C28.1236 13.9672 28.4295 14.1333 28.6455 14.2628C28.7536 14.3277 28.8401 14.3841 28.9033 14.4269C28.9348 14.4483 28.9605 14.4664 28.9804 14.4806C28.9904 14.4877 28.9988 14.4941 29.0058 14.4992C29.0093 14.5017 29.0128 14.504 29.0156 14.506C29.0169 14.507 29.0183 14.5081 29.0195 14.5089L29.0214 14.5099C29.0175 14.5159 28.9616 14.5924 28.2246 15.575L29.0224 14.5109L29.5546 14.9103V18.1769H26.8945V16.342C26.8316 16.3118 26.7649 16.2783 26.6923 16.2472C26.1732 16.0248 25.436 15.8049 24.5576 15.8048C23.6789 15.8048 22.941 16.0247 22.4218 16.2472C22.3492 16.2783 22.2826 16.3118 22.2197 16.342V18.1769H19.5595V14.9103L20.0917 14.5109L20.8896 15.575C20.1519 14.5914 20.0956 14.5168 20.0917 14.5109L20.0927 14.5099L20.0947 14.5089C20.0958 14.5081 20.0973 14.507 20.0986 14.506C20.1013 14.504 20.1048 14.5017 20.1083 14.4992C20.1153 14.4941 20.1238 14.4877 20.1337 14.4806C20.1536 14.4664 20.1794 14.4483 20.2109 14.4269C20.274 14.3841 20.3606 14.3277 20.4687 14.2628C20.6847 14.1333 20.9906 13.9672 21.374 13.8029C22.1384 13.4753 23.2357 13.1447 24.5576 13.1447Z" fill="#134276"/>
<path d="M6.10678 8.2345C6.09608 8.12561 6.06966 8.01857 6.02768 7.91711C5.97164 7.78183 5.88903 7.65835 5.78549 7.55481C5.68209 7.45145 5.55921 7.3696 5.42416 7.3136C5.32277 7.2716 5.21559 7.24427 5.10678 7.23352L4.9974 7.22864C4.85104 7.22864 4.70588 7.2576 4.57064 7.3136C4.43537 7.36963 4.31188 7.45127 4.20834 7.55481C4.1048 7.65835 4.02316 7.78184 3.96713 7.91711C3.91114 8.05235 3.88217 8.1975 3.88217 8.34387L3.88705 8.45325C3.8978 8.56206 3.92513 8.66924 3.96713 8.77063C4.02313 8.90568 4.10498 9.02855 4.20834 9.13196C4.31188 9.23549 4.43536 9.31811 4.57064 9.37414C4.70582 9.43008 4.85112 9.45813 4.9974 9.45813C5.14372 9.45809 5.28898 9.43014 5.42416 9.37414C5.55938 9.31811 5.68199 9.23545 5.78549 9.13196C5.88899 9.02846 5.97164 8.90584 6.02768 8.77063C6.08367 8.63545 6.11162 8.49019 6.11166 8.34387L6.10678 8.2345ZM8.76791 8.52942C8.74661 8.96167 8.65068 9.38752 8.48471 9.78821C8.295 10.2462 8.01688 10.6623 7.66635 11.0128C7.31581 11.3634 6.89973 11.6415 6.44174 11.8312C5.98383 12.0208 5.49304 12.1182 4.9974 12.1183C4.50166 12.1183 4.01009 12.0209 3.55209 11.8312C3.09422 11.6415 2.67794 11.3633 2.32748 11.0128C1.97702 10.6623 1.6988 10.2461 1.50912 9.78821C1.34318 9.38756 1.2482 8.96162 1.22689 8.52942L1.22201 8.34387C1.22201 7.84813 1.31941 7.35656 1.50912 6.89856C1.69883 6.44063 1.97699 6.02444 2.32748 5.67395C2.67797 5.32346 3.09417 5.0453 3.55209 4.85559C4.01009 4.66588 4.50166 4.56848 4.9974 4.56848L5.18295 4.57336C5.61516 4.59467 6.04109 4.68965 6.44174 4.85559C6.89967 5.04527 7.31584 5.32349 7.66635 5.67395C8.01681 6.02441 8.295 6.44068 8.48471 6.89856C8.67442 7.35656 8.77182 7.84813 8.77182 8.34387L8.76791 8.52942Z" fill="#134276"/>
<path d="M25.6717 8.34387C25.6717 8.04815 25.5546 7.76391 25.3455 7.55481C25.1365 7.34589 24.8529 7.22872 24.5574 7.22864C24.2617 7.22864 23.9774 7.34571 23.7683 7.55481C23.5592 7.76391 23.4422 8.04816 23.4422 8.34387C23.4423 8.63939 23.5594 8.92294 23.7683 9.13196C23.9774 9.34106 24.2617 9.45813 24.5574 9.45813L24.6678 9.45325C24.9228 9.42782 25.1626 9.31482 25.3455 9.13196C25.5545 8.92293 25.6716 8.63947 25.6717 8.34387ZM28.3318 8.34387C28.3317 9.34495 27.9342 10.3049 27.2264 11.0128C26.5626 11.6766 25.6771 12.0682 24.7439 12.1144L24.5574 12.1183C23.5562 12.1183 22.5954 11.7208 21.8875 11.0128C21.1797 10.305 20.7821 9.34487 20.782 8.34387C20.782 7.34268 21.1795 6.3819 21.8875 5.67395C22.5954 4.966 23.5562 4.56848 24.5574 4.56848C25.5584 4.56856 26.5185 4.96618 27.2264 5.67395C27.9343 6.3819 28.3318 7.34268 28.3318 8.34387Z" fill="#134276"/>
<path d="M14.7769 10.6812C16.8322 10.6812 18.5406 11.1946 19.733 11.7056C20.3303 11.9617 20.8037 12.2202 21.1343 12.4185C21.2998 12.5178 21.4302 12.6027 21.523 12.6656C21.5693 12.697 21.6069 12.7222 21.6343 12.7418C21.6481 12.7516 21.6596 12.7606 21.6685 12.7672C21.6726 12.7702 21.6762 12.7727 21.6792 12.775C21.6809 12.7762 21.6828 12.7779 21.6841 12.7789L21.6861 12.7799L21.6871 12.7808L22.2193 13.1802V18.1607H19.5591V14.5787C19.332 14.4518 19.0379 14.3022 18.6851 14.151C17.7381 13.7451 16.389 13.3414 14.7769 13.3414C13.1649 13.3414 11.8167 13.7451 10.8697 14.151C10.5166 14.3023 10.2219 14.4517 9.99467 14.5787V18.1607H7.33451V13.1802L7.86674 12.7808L8.66463 13.8451C7.92293 12.8561 7.87007 12.786 7.86674 12.7808L7.86967 12.7789C7.87097 12.7779 7.87294 12.7762 7.87455 12.775C7.87774 12.7726 7.88191 12.7704 7.88627 12.7672C7.89514 12.7607 7.90578 12.7515 7.91947 12.7418C7.94688 12.7222 7.98451 12.697 8.0308 12.6656C8.12355 12.6028 8.25408 12.5178 8.41947 12.4185C8.75014 12.2201 9.22433 11.9617 9.82182 11.7056C11.0141 11.1947 12.7218 10.6813 14.7769 10.6812Z" fill="#134276"/>
<path d="M16.7039 4.90625C16.6853 4.71724 16.6392 4.53157 16.5662 4.35547C16.4689 4.12057 16.3261 3.90734 16.1463 3.72754C15.9666 3.54778 15.7532 3.40493 15.5184 3.30762C15.3423 3.23468 15.1566 3.18762 14.9676 3.16895L14.7772 3.16016C14.5229 3.16016 14.2709 3.2103 14.036 3.30762C13.801 3.40494 13.5878 3.54774 13.408 3.72754C13.2282 3.90734 13.0854 4.12056 12.9881 4.35547C12.8908 4.59042 12.8406 4.84237 12.8406 5.09668L12.8494 5.28711C12.8681 5.47609 12.9152 5.66181 12.9881 5.83789C13.0854 6.07275 13.2283 6.28606 13.408 6.46582C13.5878 6.6456 13.8011 6.78844 14.036 6.88574C14.2709 6.98306 14.5229 7.0332 14.7772 7.0332L14.9676 7.02344C15.1566 7.00476 15.3423 6.95867 15.5184 6.88574C15.7533 6.78842 15.9665 6.6456 16.1463 6.46582C16.3261 6.28604 16.4689 6.07277 16.5662 5.83789C16.6635 5.60297 16.7137 5.35096 16.7137 5.09668L16.7039 4.90625ZM19.368 5.32227C19.3421 5.84879 19.2254 6.36739 19.0233 6.85547C18.7923 7.41313 18.454 7.91987 18.0272 8.34668C17.6004 8.7735 17.0936 9.11178 16.536 9.34277C16.0479 9.54494 15.5293 9.66162 15.0028 9.6875L14.7772 9.69336C14.1736 9.69336 13.576 9.57374 13.0184 9.34277C12.4607 9.11179 11.954 8.77347 11.5272 8.34668C11.1003 7.91985 10.7611 7.41314 10.5301 6.85547C10.328 6.36747 10.2122 5.8487 10.1864 5.32227L10.1805 5.09668C10.1805 4.49319 10.2992 3.89545 10.5301 3.33789C10.7611 2.78021 11.1003 2.27351 11.5272 1.84668C11.954 1.41985 12.4607 1.08061 13.0184 0.849609C13.5759 0.618717 14.1737 0.5 14.7772 0.5L15.0028 0.505859C15.5292 0.531737 16.048 0.647507 16.536 0.849609C17.0936 1.08061 17.6003 1.41985 18.0272 1.84668C18.454 2.27349 18.7923 2.78025 19.0233 3.33789C19.2542 3.89554 19.3739 4.49309 19.3739 5.09668L19.368 5.32227Z" fill="#134276"/>
</svg>
