<svg width="201" height="32" viewBox="0 0 201 32" fill="none" xmlns="http://www.w3.org/2000/svg">
<path fill-rule="evenodd" clip-rule="evenodd" d="M0 -0.0100098C7.98451 -0.0100098 14.4572 6.46272 14.4572 14.4472C6.47273 14.4472 0 7.9745 0 -0.0100098Z" fill="#3A54A1"/>
<path fill-rule="evenodd" clip-rule="evenodd" d="M14.4573 14.4472C14.4573 6.46272 20.93 -0.0100101 28.9145 -0.0100098C28.9145 7.9745 22.4417 14.4472 14.4573 14.4472Z" fill="#35C0BA"/>
<path fill-rule="evenodd" clip-rule="evenodd" d="M0 28.9045C-3.49015e-07 20.92 6.47273 14.4473 14.4572 14.4473C14.4572 22.4317 7.98451 28.9045 0 28.9045Z" fill="#017AC9"/>
<path fill-rule="evenodd" clip-rule="evenodd" d="M14.4573 14.4473C22.4417 14.4473 28.9145 20.92 28.9145 28.9045C20.93 28.9045 14.4573 22.4317 14.4573 14.4473Z" fill="#F75C58"/>
<path fill-rule="evenodd" clip-rule="evenodd" d="M66.9403 21.6187L66.719 22.7241C65.5031 23.2769 64.6187 23.6085 63.9556 23.719C63.1818 23.9402 62.6292 24.0507 62.1869 24.0507C61.0815 24.0507 60.4184 23.719 59.8656 23.2769C59.4236 22.7241 59.092 22.0608 59.092 21.2871C59.092 21.066 59.2025 20.7343 59.2025 20.4027C59.2025 20.0711 59.313 19.6289 59.4236 19.1867L61.3028 12.2223C61.4133 11.6696 61.5238 11.2275 61.6343 10.7853C61.7449 10.3431 61.7449 10.0115 61.7449 9.67982C61.7449 8.906 61.5238 8.24273 61.1921 7.69001C60.8605 7.24781 60.3079 7.02673 59.5341 7.02673C58.6497 7.02673 57.8761 7.24781 56.9917 7.57945C56.2179 8.02163 55.3336 8.6849 54.3387 9.79036L51.0225 23.719H47.5958L50.4699 11.1169C50.5804 10.8958 50.691 10.5642 50.691 10.3431C50.8015 10.0115 50.8015 9.79036 50.8015 9.56926C50.8015 8.79544 50.5804 8.13219 50.1384 7.69001C49.8066 7.24781 49.1435 7.02673 48.3697 7.02673C47.7066 7.02673 46.9327 7.13727 46.0484 7.57945C45.164 7.91109 44.1691 8.6849 43.0638 9.9009L39.8583 23.719H36.3209L39.195 11.5591C39.3055 11.1169 39.416 10.6747 39.5265 10.122C39.5265 9.67982 39.6371 9.23764 39.6371 8.906C39.6371 8.13219 39.5265 7.69001 39.3055 7.46891C38.974 7.13727 38.5317 7.02673 37.8686 7.02673C37.537 7.02673 37.2053 7.13727 36.7632 7.24781C36.3209 7.35837 35.9893 7.46891 35.7683 7.46891L36.0999 6.25292C37.0947 5.81074 37.8686 5.4791 38.6424 5.258C39.416 5.03693 40.0793 4.92637 40.6319 4.92637C41.6268 4.92637 42.2901 5.258 42.7322 5.81074C43.1745 6.36346 43.3955 7.02673 43.3955 8.02163H43.506C45.0535 6.80563 46.1589 6.03182 47.1538 5.4791C48.1486 5.03693 49.254 4.81583 50.5804 4.81583C51.6858 4.81583 52.5702 5.03693 53.2333 5.70018C53.8966 6.36346 54.3387 7.13727 54.4492 8.13219C55.7758 7.02673 56.9918 6.25292 58.0971 5.58964C59.092 5.03693 60.3079 4.81583 61.6343 4.81583C62.8503 4.81583 63.8451 5.14746 64.3977 5.81074C65.061 6.474 65.3926 7.35837 65.3926 8.57437C65.3926 8.79544 65.3926 9.12708 65.2821 9.79036L64.9505 11.4485L63.4028 17.418C63.2923 17.8602 63.1818 18.3023 63.0713 18.8551C62.9608 19.4078 62.9608 19.7394 62.9608 20.0711C62.9608 20.7343 63.0713 21.2871 63.4028 21.5082C63.6241 21.7292 64.1767 21.8398 64.84 21.8398H65.9454C66.3875 21.7292 66.719 21.6187 66.9403 21.6187ZM81.5311 20.9554H81.4206C80.2047 21.9503 79.0993 22.7241 78.1045 23.2769C77.1096 23.8295 75.8937 24.0507 74.5672 24.0507C73.3513 24.0507 72.3565 23.719 71.6934 23.0559C71.03 22.282 70.6985 21.3976 70.6985 20.2922V19.1867C70.809 18.8551 70.9195 18.1918 71.1406 17.418L72.5775 11.5591C72.6882 11.0064 72.7988 10.4536 72.9093 10.122C72.9093 9.67982 73.0198 9.23764 73.0198 8.906C73.0198 8.13219 72.9093 7.69001 72.5775 7.46891C72.3565 7.24781 71.9144 7.13727 71.2511 7.13727C70.9195 7.13727 70.588 7.13727 70.1457 7.24781C69.7036 7.35837 69.3721 7.46891 69.1508 7.57945L69.4826 6.36346C70.4775 5.92128 71.2511 5.58964 72.0249 5.36854C72.7988 5.14746 73.3513 5.03693 73.7936 5.03693C74.7883 5.03693 75.5621 5.258 76.0044 5.70018C76.557 6.14236 76.778 6.80563 76.778 7.69001C76.778 7.91109 76.778 8.24273 76.6675 8.57437C76.6675 9.01654 76.557 9.34818 76.4465 9.79036L74.7883 16.6442C74.6778 17.0863 74.5673 17.6391 74.4567 18.0813C74.3462 18.5234 74.3462 18.8551 74.3462 19.0761C74.3462 19.9605 74.5673 20.6238 74.899 21.066C75.3411 21.6187 75.8937 21.8398 76.6675 21.8398C77.6624 21.8398 78.5467 21.6187 79.4311 21.1765C80.3152 20.7343 81.0891 20.0711 81.8629 19.2972L84.9578 5.258L88.1635 5.03693L88.3845 5.36854L85.1791 20.0711C84.7368 22.1715 84.0737 24.0507 83.4104 25.4877C82.6365 27.0354 81.7524 28.2515 80.7575 29.2464C79.7626 30.2412 78.6573 30.9045 77.4413 31.3466C76.2254 31.7889 74.899 32.0099 73.3513 32.0099C72.246 32.0099 71.3616 31.8994 70.809 31.7889C70.1457 31.6784 69.7036 31.4571 69.2616 31.1256C68.9298 30.9045 68.7088 30.6833 68.5982 30.3517C68.4877 30.0202 68.3772 29.6884 68.3772 29.3569C68.3772 28.8041 68.5982 28.362 68.9298 27.9197C69.1508 27.5882 69.7036 27.3671 70.2562 27.3671C70.6985 27.3671 71.1406 27.4776 71.4723 27.6987C71.8039 28.0302 72.0249 28.2515 72.246 28.583C72.467 28.9146 72.6882 29.3569 72.9093 29.7989C73.0198 30.1307 73.2408 30.4623 73.3513 30.794H73.7936C74.4567 30.794 75.2306 30.5728 76.0044 30.2412C76.778 29.9097 77.5519 29.3569 78.215 28.583C78.8783 27.8092 79.5416 26.8143 80.0942 25.4877C80.7575 24.2718 81.1996 22.7241 81.5311 20.9554ZM100.765 19.5183L98.4435 15.9809C97.5594 14.5438 97.0066 13.2173 97.0066 13.2173H96.8961C96.8961 13.2173 97.1171 14.2122 97.1171 16.3125V23.719H92.364V5.03693H97.0066L100.323 10.5642C101.428 12.554 101.76 13.4384 101.76 13.4384H101.87C101.87 13.4384 102.202 12.554 103.307 10.5642L106.513 5.03693H111.266V23.719H106.513V16.3125C106.513 14.2122 106.734 13.2173 106.734 13.2173H106.513C106.513 13.2173 106.071 14.5438 105.076 15.9809L102.865 19.5183H100.765ZM118.562 17.5285C118.893 19.2972 120.22 20.5132 121.878 20.5132C123.204 20.5132 124.089 19.9605 124.089 18.8551C124.089 17.8602 123.425 17.3074 121.214 16.6442C116.461 15.2071 115.024 13.4384 115.024 10.3431C115.024 6.03182 118.341 4.59473 121.767 4.59473C125.747 4.59473 128.621 5.92128 129.063 9.45872L124.31 10.7853C124.199 9.23764 122.983 8.57437 121.878 8.57437C120.883 8.57437 119.999 9.01654 119.999 10.0115C119.999 11.1169 120.883 11.6696 122.983 12.2223C127.184 13.4384 129.063 14.8754 129.063 18.4129C129.063 22.6136 125.636 24.0507 121.546 24.0507C117.898 24.0507 115.356 22.9451 114.251 19.6289L118.562 17.5285ZM132.711 23.719V5.03693H140.006C145.091 5.03693 149.07 7.57945 149.07 14.2122C149.07 21.066 145.091 23.719 139.564 23.719H132.711ZM139.122 19.7394C142.438 19.7394 144.096 18.5234 144.096 14.4333C144.096 10.3431 142.438 9.12708 139.453 9.12708H137.464V19.7394H139.122Z" fill="#333333"/>
<path d="M156.861 14.3067C156.861 9.15003 161.041 4.96973 166.198 4.96973H190.682C195.838 4.96973 200.019 9.15003 200.019 14.3067C200.019 19.4634 195.838 23.6437 190.682 23.6437H166.198C161.041 23.6437 156.861 19.4634 156.861 14.3067Z" fill="#35C0BA"/>
<path d="M165.99 18.1078V10.4314H168.225L171.309 16.0623V10.4314H172.973V18.1078H170.75L167.655 12.4654V18.1078H165.99ZM174.344 18.1078V10.4314H180.175V11.9253H176.066V13.4192H178.685V14.9016H176.066V16.6139H180.221V18.1078H174.344ZM182.696 18.1078L180.799 10.4314H182.545L183.696 15.9129L184.872 10.4314H186.688L187.886 15.9129L189.027 10.4314H190.773L188.887 18.1078H187.014L185.78 12.5574L184.558 18.1078H182.696Z" fill="white"/>
</svg>
