<svg width="388" height="362" viewBox="0 0 388 362" fill="none" xmlns="http://www.w3.org/2000/svg">
<g opacity="0.75">
<path opacity="0.5" d="M332.883 0.00878903C317.861 0.389141 305.8 12.6853 305.8 27.7979L306.518 27.7891C321.539 27.4085 333.6 15.1126 333.6 0L332.883 0.00878903Z" fill="#E6F2FA"/>
<path opacity="0.3" d="M110.481 0.00878903C95.4598 0.389519 83.3996 12.6855 83.3994 27.7979C98.7529 27.7978 111.199 15.3525 111.199 0L110.481 0.00878903Z" fill="#99CAE9"/>
<path opacity="0.5" d="M332.883 222.395C317.861 222.775 305.8 235.071 305.8 250.184L306.518 250.174C321.539 249.793 333.6 237.497 333.6 222.385L332.883 222.395Z" fill="#E6F2FA"/>
<path opacity="0.5" d="M221.681 0.00878903C206.659 0.38959 194.599 12.6855 194.599 27.7979L195.316 27.7891C210.338 27.4084 222.398 15.1126 222.398 0L221.681 0.00878903Z" fill="#E6F2FA"/>
<path opacity="0.5" d="M332.883 111.202C317.861 111.583 305.8 123.878 305.8 138.99L306.518 138.981C321.539 138.601 333.6 126.305 333.6 111.192L332.883 111.202Z" fill="#E6F2FA"/>
<path opacity="0.5" d="M332.883 333.587C317.861 333.967 305.8 346.263 305.8 361.376L306.518 361.366C321.539 360.986 333.6 348.69 333.6 333.577L332.883 333.587Z" fill="#E6F2FA"/>
<path opacity="0.3" d="M166.081 0.00878903C151.059 0.389558 138.999 12.6855 138.999 27.7979L139.717 27.7891C154.739 27.4084 166.799 15.1125 166.799 0L166.081 0.00878903Z" fill="#99CAE9"/>
<path d="M277.281 0.00878903C262.259 0.389162 250.198 12.6853 250.198 27.7979L250.916 27.7891C265.938 27.4085 277.998 15.1126 277.998 0L277.281 0.00878903Z" fill="#E6F2FA"/>
<path d="M388.482 111.202C373.461 111.583 361.4 123.878 361.399 138.99L362.117 138.981C377.139 138.601 389.199 126.305 389.199 111.192L388.482 111.202Z" fill="#E6F2FA"/>
<path d="M277.283 111.201C262.261 111.582 250.2 123.878 250.2 138.99L250.918 138.981C265.94 138.601 278 126.305 278 111.192L277.283 111.201Z" fill="#E6F2FA"/>
<path d="M110.481 55.605C95.4599 55.9857 83.3996 68.2817 83.3994 83.394L84.1172 83.3853C99.1389 83.0046 111.199 70.7087 111.199 55.5962L110.481 55.605Z" fill="#E6F2FA"/>
<path opacity="0.5" d="M332.883 166.798C317.861 167.179 305.8 179.475 305.8 194.587L306.518 194.578C321.539 194.197 333.6 181.901 333.6 166.789L332.883 166.798Z" fill="#E6F2FA"/>
<path d="M221.681 166.798C206.659 167.179 194.599 179.474 194.599 194.586L195.316 194.578C210.338 194.197 222.398 181.901 222.398 166.789L221.681 166.798Z" fill="white"/>
<path opacity="0.3" d="M277.283 55.605C262.261 55.9853 250.2 68.2815 250.2 83.394L250.918 83.3853C265.94 83.0047 278 70.7088 278 55.5962L277.283 55.605Z" fill="#99CAE9"/>
<path opacity="0.3" d="M277.283 277.991C262.261 278.371 250.2 290.667 250.2 305.78L250.918 305.77C265.94 305.39 278 293.094 278 277.981L277.283 277.991Z" fill="#99CAE9"/>
<path opacity="0.3" d="M277.283 166.798C262.261 167.179 250.2 179.475 250.2 194.587L250.918 194.578C265.94 194.197 278 181.901 278 166.789L277.283 166.798Z" fill="#99CAE9"/>
<path opacity="0.5" d="M111.917 55.5874C126.939 55.2068 138.999 42.9108 138.999 27.7983L138.282 27.8071C123.26 28.1874 111.199 40.4835 111.199 55.5962L111.917 55.5874Z" fill="#E6F2FA"/>
<path d="M334.317 277.972C349.339 277.592 361.4 265.296 361.4 250.183L360.683 250.192C345.661 250.572 333.6 262.869 333.6 277.981L334.317 277.972Z" fill="#E6F2FA"/>
<path d="M223.116 55.5874C238.138 55.2069 250.198 42.9108 250.198 27.7983L249.481 27.8071C234.459 28.1875 222.398 40.4835 222.398 55.5962L223.116 55.5874Z" fill="#E6F2FA"/>
<path d="M0.717773 55.5874C15.7395 55.2067 27.7997 42.9108 27.7998 27.7983C12.4464 27.7984 4.05658e-05 40.2438 0 55.5962L0.717773 55.5874Z" fill="#E6F2FA"/>
<path opacity="0.5" d="M334.317 166.78C349.339 166.4 361.399 154.104 361.399 138.992C346.046 138.992 333.6 151.437 333.6 166.789L334.317 166.78Z" fill="#E6F2FA"/>
<path d="M223.116 166.78C238.138 166.4 250.198 154.104 250.198 138.991L249.481 139C234.459 139.38 222.399 151.676 222.398 166.789L223.116 166.78Z" fill="#E6F2FA"/>
<path opacity="0.3" d="M167.517 55.5874C182.538 55.2068 194.599 42.9108 194.599 27.7983L193.882 27.8071C178.86 28.1875 166.799 40.4835 166.799 55.5962L167.517 55.5874Z" fill="#99CAE9"/>
<path d="M278.718 55.5874C293.74 55.2069 305.8 42.9109 305.8 27.7983C290.447 27.7986 278 40.2439 278 55.5962L278.718 55.5874Z" fill="white"/>
<path opacity="0.3" d="M56.3174 55.5874C71.3391 55.2067 83.3993 42.9108 83.3994 27.7983L82.6816 27.8071C67.66 28.1879 55.5996 40.4838 55.5996 55.5962L56.3174 55.5874Z" fill="#99CAE9"/>
<path d="M278.716 277.972C293.737 277.592 305.797 265.296 305.798 250.184C290.445 250.184 277.998 262.629 277.998 277.981L278.716 277.972Z" fill="white"/>
<path d="M278.718 166.78C293.74 166.4 305.8 154.104 305.8 138.991L305.083 139C290.061 139.38 278 151.676 278 166.789L278.718 166.78Z" fill="white"/>
<path opacity="0.3" d="M334.317 333.569C349.339 333.188 361.4 320.892 361.4 305.78L360.683 305.788C345.661 306.169 333.6 318.465 333.6 333.577L334.317 333.569Z" fill="#99CAE9"/>
<path opacity="0.3" d="M334.317 222.376C349.339 221.995 361.399 209.7 361.399 194.588C346.046 194.588 333.6 207.033 333.6 222.385L334.317 222.376Z" fill="#99CAE9"/>
<path d="M223.116 222.376C238.138 221.995 250.198 209.7 250.198 194.587L249.481 194.596C234.46 194.976 222.399 207.272 222.398 222.385L223.116 222.376Z" fill="#E6F2FA"/>
<path opacity="0.3" d="M278.718 111.184C293.74 110.803 305.8 98.5071 305.8 83.3945L305.083 83.4033C290.061 83.7837 278 96.0797 278 111.192L278.718 111.184Z" fill="#99CAE9"/>
<path d="M333.591 54.8784C333.21 39.8577 320.913 27.7983 305.8 27.7983L305.81 28.5161C306.19 43.5367 318.486 55.596 333.6 55.5962L333.591 54.8784Z" fill="#E6F2FA"/>
<path d="M333.591 277.264C333.21 262.243 320.913 250.183 305.8 250.183L305.809 250.901C306.189 265.922 318.486 277.981 333.6 277.981L333.591 277.264Z" fill="#E6F2FA"/>
<path d="M222.39 54.8784C222.009 39.8577 209.712 27.7983 194.599 27.7983L194.607 28.5161C194.988 43.5367 207.285 55.5961 222.398 55.5962L222.39 54.8784Z" fill="white"/>
<path d="M222.39 166.072C222.009 151.051 209.712 138.991 194.599 138.991L194.607 139.708C194.988 154.729 207.285 166.788 222.398 166.789L222.39 166.072Z" fill="white"/>
<path d="M166.79 54.8784C166.409 39.8577 154.112 27.7983 138.999 27.7983L139.008 28.5161C139.389 43.5367 151.685 55.5961 166.799 55.5962L166.79 54.8784Z" fill="white"/>
<path d="M277.991 54.8784C277.61 39.8577 265.314 27.7983 250.2 27.7983L250.21 28.5161C250.591 43.5367 262.887 55.596 278 55.5962L277.991 54.8784Z" fill="#E6F2FA"/>
<path d="M55.5908 54.8784C55.21 39.8577 42.9132 27.7984 27.7998 27.7983C27.7999 43.1507 40.2462 55.5962 55.5996 55.5962L55.5908 54.8784Z" fill="#E6F2FA"/>
<path d="M389.19 166.072C388.81 151.051 376.513 138.991 361.399 138.991L361.408 139.708C361.789 154.729 374.086 166.788 389.199 166.789L389.19 166.072Z" fill="#E6F2FA"/>
<path d="M333.591 110.476C333.21 95.4545 320.914 83.3945 305.8 83.3945L305.81 84.1123C306.19 99.1329 318.486 111.192 333.6 111.192L333.591 110.476Z" fill="white"/>
<path d="M111.19 110.475C110.81 95.4539 98.5128 83.3946 83.3994 83.3945C83.3995 98.7469 95.8458 111.192 111.199 111.192L111.19 110.475Z" fill="#E6F2FA"/>
<path d="M333.591 221.668C333.21 206.647 320.913 194.587 305.8 194.587L305.809 195.305C306.189 210.325 318.486 222.385 333.6 222.385L333.591 221.668Z" fill="white"/>
<path d="M389.199 333.577C389.199 318.225 376.753 305.779 361.399 305.779L361.408 306.497C361.789 321.518 374.086 333.577 389.199 333.577Z" fill="#E6F2FA"/>
<path d="M277.991 110.476C277.611 95.4545 265.314 83.3945 250.2 83.3945L250.21 84.1123C250.591 99.1329 262.887 111.192 278 111.192L277.991 110.476Z" fill="white"/>
<path d="M277.989 221.668C277.609 206.647 265.312 194.587 250.198 194.587L250.208 195.305C250.589 210.325 262.885 222.385 277.998 222.385L277.989 221.668Z" fill="white"/>
<path d="M333.609 0.717773C333.99 15.7384 346.286 27.7976 361.399 27.7979L361.391 27.0811C361.01 12.06 348.713 0 333.6 0L333.609 0.717773Z" fill="white"/>
<path d="M333.609 334.295C333.99 349.316 346.286 361.376 361.399 361.376L361.391 360.658C361.01 345.638 348.713 333.577 333.6 333.577L333.609 334.295Z" fill="white"/>
<path d="M222.408 111.91C222.789 126.931 235.085 138.99 250.198 138.99L250.189 138.273C249.809 123.252 237.512 111.192 222.398 111.192L222.408 111.91Z" fill="white"/>
<path d="M166.808 0.717773C167.188 15.7384 179.485 27.7977 194.599 27.7979L194.59 27.0811C194.209 12.06 181.913 0 166.799 0L166.808 0.717773Z" fill="#E6F2FA"/>
<path d="M278.008 0.717773C278.389 15.7385 290.685 27.7979 305.799 27.7979C305.799 12.4455 293.351 0 277.998 0L278.008 0.717773Z" fill="#E6F2FA"/>
<path d="M55.6084 0.717773C55.9891 15.7385 68.286 27.7977 83.3994 27.7979L83.3906 27.0811C83.0103 12.06 70.7133 0 55.5996 0L55.6084 0.717773Z" fill="#E6F2FA"/>
<path d="M333.609 56.314C333.99 71.3346 346.286 83.3938 361.399 83.394L361.391 82.6772C361.01 67.6562 348.713 55.5962 333.6 55.5962L333.609 56.314Z" fill="#E6F2FA"/>
<path d="M111.208 56.314C111.589 71.3347 123.886 83.3939 138.999 83.394L138.99 82.6772C138.61 67.6562 126.313 55.5962 111.199 55.5962L111.208 56.314Z" fill="white"/>
<path d="M333.609 278.699C333.99 293.72 346.286 305.78 361.399 305.78L361.391 305.062C361.01 290.041 348.713 277.981 333.6 277.981L333.609 278.699Z" fill="#E6F2FA"/>
<path opacity="0.5" d="M222.408 56.314C222.789 71.3346 235.085 83.3938 250.198 83.394L250.189 82.6772C249.809 67.6562 237.512 55.5962 222.398 55.5962L222.408 56.314Z" fill="#E6F2FA"/>
<path d="M333.609 167.506C333.99 182.527 346.286 194.586 361.399 194.586L361.391 193.87C361.01 178.849 348.713 166.789 333.6 166.789L333.609 167.506Z" fill="#E6F2FA"/>
<path opacity="0.5" d="M222.398 166.789C222.398 182.141 234.845 194.586 250.198 194.586C250.235 194.586 250.271 194.586 250.308 194.585C250.308 194.564 250.308 194.542 250.308 194.52C250.307 179.168 237.861 166.722 222.508 166.722C222.472 166.722 222.436 166.724 222.399 166.724C222.399 166.746 222.398 166.767 222.398 166.789Z" fill="#E6F2FA"/>
<path d="M166.808 56.314C167.188 71.3347 179.485 83.3939 194.599 83.394L194.59 82.6772C194.209 67.6562 181.913 55.5962 166.799 55.5962L166.808 56.314Z" fill="#E6F2FA"/>
<path d="M55.6084 56.314C55.9891 71.3347 68.286 83.3939 83.3994 83.394L83.3906 82.6772C83.0102 67.6562 70.7133 55.5962 55.5996 55.5962L55.6084 56.314Z" fill="white"/>
<path d="M278.008 278.699C278.388 293.72 290.685 305.78 305.799 305.78C305.799 290.427 293.352 277.981 277.998 277.981L278.008 278.699Z" fill="#E6F2FA"/>
<path d="M278.008 167.506C278.388 182.527 290.685 194.586 305.799 194.586L305.789 193.87C305.409 178.849 293.112 166.789 277.998 166.789L278.008 167.506Z" fill="#E6F2FA"/>
</g>
</svg>
