<svg width="362" height="388" viewBox="0 0 362 388" fill="none" xmlns="http://www.w3.org/2000/svg">
<g opacity="0.25">
<path d="M0.00878903 332.878C0.389128 317.856 12.6853 305.796 27.7979 305.796L27.7891 306.513C27.4086 321.535 15.1125 333.595 0 333.595L0.00878903 332.878Z" fill="#162C45"/>
<path d="M0.00878903 110.481C0.389343 95.4593 12.6854 83.3989 27.7979 83.3989L27.7891 84.1167C27.4084 99.1383 15.1123 111.199 0 111.199L0.00878903 110.481Z" fill="#017AC9"/>
<path d="M222.392 332.878C222.772 317.856 235.068 305.796 250.181 305.796L250.171 306.513C249.791 321.535 237.495 333.595 222.383 333.595L222.392 332.878Z" fill="#134276"/>
<path d="M0.00878903 221.68C0.389235 206.658 12.6854 194.598 27.7979 194.598L27.7891 195.314C27.4088 210.336 15.1126 222.397 0 222.397L0.00878903 221.68Z" fill="#134276"/>
<path d="M111.2 332.878C111.581 317.856 123.877 305.796 138.989 305.796L138.979 306.513C138.599 321.535 126.304 333.595 111.191 333.595L111.2 332.878Z" fill="#162C45"/>
<path d="M333.583 332.878C333.963 317.856 346.259 305.795 361.371 305.795L361.362 306.513C360.982 321.535 348.686 333.595 333.573 333.595L333.583 332.878Z" fill="#134276"/>
<path d="M0.00878903 166.08C0.389541 151.058 12.6856 138.998 27.7979 138.998L27.7891 139.715C27.4085 154.737 15.1125 166.797 0 166.797L0.00878903 166.08Z" fill="#017AC9"/>
<path d="M0.00878903 277.278C0.389477 262.257 12.6855 250.196 27.7979 250.196L27.7891 250.914C27.4085 265.936 15.1124 277.996 0 277.996L0.00878903 277.278Z" fill="#35C0BA"/>
<path d="M111.2 388.477C111.581 373.455 123.877 361.395 138.989 361.395L138.979 362.113C138.599 377.134 126.304 389.195 111.191 389.195L111.2 388.477Z" fill="#3A54A1"/>
<path d="M111.2 277.278C111.581 262.257 123.877 250.196 138.989 250.196L138.979 250.914C138.599 265.936 126.304 277.996 111.191 277.996L111.2 277.278Z" fill="#35C0BA"/>
<path d="M55.605 110.481C55.9855 95.4594 68.2808 83.3991 83.3931 83.3989L83.3843 84.1167C83.0036 99.1383 70.7075 111.199 55.5952 111.199L55.605 110.481Z" fill="#3A54A1"/>
<path d="M166.796 332.878C167.176 317.856 179.472 305.796 194.585 305.796L194.576 306.513C194.195 321.535 181.899 333.595 166.787 333.595L166.796 332.878Z" fill="#134276"/>
<path d="M166.796 221.68C167.176 206.658 179.472 194.598 194.585 194.598L194.576 195.314C194.195 210.336 181.899 222.396 166.787 222.396L166.796 221.68Z" fill="#F75C58"/>
<path d="M55.605 277.278C55.9857 262.257 68.2809 250.196 83.3931 250.196L83.3843 250.914C83.0037 265.936 70.7076 277.996 55.5952 277.996L55.605 277.278Z" fill="#017AC9"/>
<path d="M277.987 277.278C278.368 262.257 290.664 250.196 305.776 250.196L305.767 250.914C305.387 265.936 293.091 277.996 277.978 277.996L277.987 277.278Z" fill="#017AC9"/>
<path d="M166.796 277.278C167.176 262.257 179.472 250.196 194.585 250.196L194.576 250.914C194.195 265.936 181.899 277.996 166.787 277.996L166.796 277.278Z" fill="#017AC9"/>
<path d="M55.5864 111.916C55.2056 126.938 42.9096 138.998 27.7974 138.998L27.8071 138.281C28.1876 123.259 40.4829 111.199 55.5952 111.199L55.5864 111.916Z" fill="#162C45"/>
<path d="M277.969 334.313C277.589 349.334 265.293 361.395 250.18 361.395L250.189 360.677C250.57 345.655 262.866 333.595 277.978 333.595L277.969 334.313Z" fill="#35C0BA"/>
<path d="M55.5864 223.114C55.206 238.136 42.9099 250.196 27.7974 250.196L27.8071 249.479C28.1875 234.458 40.4828 222.398 55.5952 222.397L55.5864 223.114Z" fill="#35C0BA"/>
<path d="M55.5864 0.717773C55.2057 15.7393 42.9097 27.7998 27.7974 27.7998L27.8071 27.082C28.1877 12.0605 40.483 0.000202303 55.5952 0L55.5864 0.717773Z" fill="#35C0BA"/>
<path d="M166.778 334.313C166.397 349.334 154.101 361.395 138.989 361.395L138.998 360.677C139.378 345.656 151.674 333.595 166.787 333.595L166.778 334.313Z" fill="#162C45"/>
<path d="M166.778 223.114C166.398 238.136 154.101 250.196 138.989 250.196L138.998 249.479C139.378 234.457 151.674 222.397 166.787 222.397L166.778 223.114Z" fill="#35C0BA"/>
<path d="M55.5864 167.515C55.2058 182.537 42.9097 194.597 27.7974 194.597L27.8071 193.88C28.1878 178.858 40.483 166.798 55.5952 166.797L55.5864 167.515Z" fill="#017AC9"/>
<path d="M55.5864 278.714C55.2057 293.735 42.9097 305.796 27.7974 305.796L27.8071 305.078C28.1877 290.057 40.483 277.996 55.5952 277.996L55.5864 278.714Z" fill="#F75C58"/>
<path d="M55.5864 56.3167C55.2059 71.3384 42.9098 83.3987 27.7974 83.3987L27.8071 82.6809C28.1879 67.6595 40.4831 55.5991 55.5952 55.5989L55.5864 56.3167Z" fill="#017AC9"/>
<path d="M277.969 278.714C277.589 293.735 265.293 305.796 250.18 305.796L250.189 305.078C250.57 290.056 262.866 277.996 277.978 277.996L277.969 278.714Z" fill="#F75C58"/>
<path d="M166.778 278.714C166.397 293.735 154.101 305.796 138.989 305.796L138.998 305.078C139.378 290.056 151.674 277.996 166.787 277.996L166.778 278.714Z" fill="#F75C58"/>
<path d="M333.565 334.313C333.184 349.334 320.888 361.395 305.776 361.395L305.785 360.677C306.166 345.655 318.461 333.595 333.573 333.595L333.565 334.313Z" fill="#017AC9"/>
<path d="M222.373 334.313C221.993 349.334 209.697 361.395 194.585 361.395L194.594 360.677C194.974 345.655 207.271 333.595 222.383 333.595L222.373 334.313Z" fill="#017AC9"/>
<path d="M222.373 223.114C221.993 238.136 209.697 250.196 194.585 250.196L194.594 249.479C194.974 234.457 207.27 222.396 222.383 222.396L222.373 223.114Z" fill="#35C0BA"/>
<path d="M111.182 278.714C110.801 293.735 98.5058 305.796 83.3936 305.796L83.4023 305.078C83.7829 290.056 96.079 277.996 111.191 277.996L111.182 278.714Z" fill="#017AC9"/>
<path d="M54.8784 333.586C39.8577 333.206 27.7986 320.909 27.7983 305.796L28.5151 305.805C43.5358 306.185 55.595 318.482 55.5952 333.595L54.8784 333.586Z" fill="#3A54A1"/>
<path d="M277.26 333.586C262.24 333.205 250.181 320.909 250.18 305.796L250.18 305.795L250.898 305.805C265.919 306.186 277.978 318.482 277.978 333.595L277.26 333.586Z" fill="#3A54A1"/>
<path d="M54.8784 222.388C39.8577 222.007 27.7975 209.711 27.7974 194.598L28.5151 194.606C43.5359 194.987 55.5952 207.284 55.5952 222.397L54.8784 222.388Z" fill="#F75C58"/>
<path d="M166.07 222.388C151.049 222.007 138.989 209.711 138.989 194.598L139.707 194.606C154.727 194.987 166.787 207.284 166.787 222.397L166.07 222.388Z" fill="#F75C58"/>
<path d="M54.8784 166.789C39.8576 166.408 27.7974 154.111 27.7974 138.998L28.5151 139.007C43.5359 139.388 55.5951 151.684 55.5952 166.797L54.8784 166.789Z" fill="#F75C58"/>
<path d="M54.8784 277.987C39.8576 277.607 27.7974 265.31 27.7974 250.196L28.5151 250.205C43.5359 250.586 55.5952 262.883 55.5952 277.996L54.8784 277.987Z" fill="#3A54A1"/>
<path d="M54.8784 55.5901C39.8577 55.2097 27.7976 42.9134 27.7974 27.8001L28.5151 27.8088C43.5358 28.1893 55.595 40.4856 55.5952 55.5989L54.8784 55.5901Z" fill="#3A54A1"/>
<path d="M166.07 389.185C151.049 388.805 138.989 376.509 138.989 361.395L139.707 361.404C154.727 361.785 166.787 374.082 166.787 389.195L166.07 389.185Z" fill="#134276"/>
<path d="M110.474 333.586C95.4531 333.206 83.3938 320.909 83.3936 305.796L84.1113 305.805C99.1317 306.186 111.191 318.482 111.191 333.595L110.474 333.586Z" fill="#F75C58"/>
<path d="M110.474 111.189C95.453 110.808 83.3936 98.5123 83.3936 83.3989L84.1113 83.4077C99.1318 83.7885 111.191 96.0855 111.191 111.199L110.474 111.189Z" fill="#3A54A1"/>
<path d="M221.665 333.586C206.644 333.206 194.585 320.909 194.585 305.795L195.302 305.805C210.323 306.185 222.383 318.482 222.383 333.595L221.665 333.586Z" fill="#F75C58"/>
<path d="M332.857 389.185C317.836 388.805 305.776 376.509 305.776 361.395L306.493 361.404C321.514 361.785 333.573 374.082 333.573 389.195L332.857 389.185Z" fill="#35C0BA"/>
<path d="M110.474 277.987C95.453 277.607 83.3936 265.31 83.3936 250.196L84.1113 250.205C99.1318 250.586 111.191 262.883 111.191 277.996L110.474 277.987Z" fill="#F75C58"/>
<path d="M221.665 277.987C206.644 277.607 194.585 265.31 194.585 250.196L195.302 250.206C210.323 250.586 222.383 262.883 222.383 277.996L221.665 277.987Z" fill="#F75C58"/>
<path d="M0.717773 333.605C15.7383 333.985 27.7978 346.282 27.7979 361.395L27.0801 361.386C12.0595 361.005 0 348.708 0 333.595L0.717773 333.605Z" fill="#F75C58"/>
<path d="M334.291 333.605C349.312 333.985 361.371 346.281 361.371 361.395L360.655 361.386C345.634 361.006 333.573 348.709 333.573 333.595L334.291 333.605Z" fill="#F75C58"/>
<path d="M111.908 222.406C126.929 222.786 138.989 235.083 138.989 250.196L138.271 250.187C123.251 249.807 111.192 237.511 111.191 222.397L111.908 222.406Z" fill="#F75C58"/>
<path d="M0.717773 166.806C15.7384 167.187 27.7979 179.484 27.7979 194.597L27.0801 194.589C12.0595 194.208 0 181.911 0 166.797L0.717773 166.806Z" fill="#35C0BA"/>
<path d="M0.717773 278.005C15.7384 278.386 27.7979 290.683 27.7979 305.796L27.0801 305.787C12.0595 305.406 0 293.109 0 277.996L0.717773 278.005Z" fill="#3A54A1"/>
<path d="M0.717773 55.6086C15.7383 55.9894 27.7978 68.2855 27.7979 83.3987L27.0801 83.3899C12.0595 83.0092 0 70.7122 0 55.5989L0.717773 55.6086Z" fill="#3A54A1"/>
<path d="M56.313 333.605C71.3337 333.985 83.393 346.281 83.3931 361.395L82.6763 361.386C67.6554 361.006 55.5952 348.708 55.5952 333.595L56.313 333.605Z" fill="#3A54A1"/>
<path d="M56.313 111.208C71.3337 111.588 83.3931 123.885 83.3931 138.999L82.6763 138.989C67.6555 138.608 55.5953 126.312 55.5952 111.199L56.313 111.208Z" fill="#F75C58"/>
<path d="M278.696 333.605C293.716 333.985 305.776 346.282 305.776 361.395L305.058 361.386C290.038 361.005 277.978 348.708 277.978 333.595L278.696 333.605Z" fill="#3A54A1"/>
<path d="M56.313 222.406C71.3336 222.787 83.3929 235.083 83.3931 250.196L82.6763 250.187C67.6556 249.807 55.5955 237.511 55.5952 222.397L56.313 222.406Z" fill="#134276"/>
<path d="M167.505 333.605C182.525 333.985 194.585 346.282 194.585 361.395L193.867 361.386C178.846 361.005 166.787 348.708 166.787 333.595L167.505 333.605Z" fill="#3A54A1"/>
<path d="M166.787 222.397C182.139 222.397 194.584 234.843 194.585 250.196C194.585 250.233 194.584 250.269 194.584 250.306C194.562 250.306 194.54 250.306 194.518 250.306C179.166 250.306 166.721 237.86 166.72 222.507C166.72 222.471 166.722 222.434 166.722 222.398C166.744 222.398 166.765 222.397 166.787 222.397Z" fill="#134276"/>
<path d="M56.313 166.806C71.3337 167.187 83.3931 179.484 83.3931 194.597L82.6763 194.589C67.6554 194.208 55.5952 181.911 55.5952 166.797L56.313 166.806Z" fill="#3A54A1"/>
<path d="M56.313 55.6086C71.3337 55.9892 83.393 68.2853 83.3931 83.3987L82.6763 83.3899C67.6554 83.0095 55.5952 70.7124 55.5952 55.5989L56.313 55.6086Z" fill="#F75C58"/>
<path d="M278.696 278.005C293.716 278.386 305.776 290.683 305.776 305.796L305.058 305.787C290.038 305.406 277.978 293.109 277.978 277.996L278.696 278.005Z" fill="#06B271"/>
<path d="M167.505 278.005C182.525 278.386 194.585 290.683 194.585 305.796L193.867 305.787C178.846 305.406 166.787 293.109 166.787 277.996L167.505 278.005Z" fill="#35C0BA"/>
</g>
</svg>
