<svg width="362" height="388" viewBox="0 0 362 388" fill="none" xmlns="http://www.w3.org/2000/svg">
<g opacity="0.1">
<path d="M361.991 55.1223C361.611 70.144 349.315 82.2043 334.202 82.2043L334.211 81.4866C334.592 66.4651 346.888 54.4046 362 54.4045L361.991 55.1223Z" fill="#162C45"/>
<path d="M361.991 277.519C361.611 292.541 349.315 304.601 334.202 304.601L334.211 303.884C334.592 288.862 346.888 276.802 362 276.802L361.991 277.519Z" fill="#017AC9"/>
<path d="M139.608 55.1223C139.228 70.1439 126.932 82.2041 111.82 82.2043L111.829 81.4866C112.21 66.4652 124.505 54.4049 139.617 54.4045L139.608 55.1223Z" fill="#134276"/>
<path d="M361.991 166.321C361.611 181.343 349.315 193.403 334.202 193.403L334.211 192.685C334.592 177.664 346.888 165.603 362 165.603L361.991 166.321Z" fill="#134276"/>
<path d="M250.799 55.1223C250.419 70.1439 238.124 82.2042 223.011 82.2043L223.02 81.4866C223.401 66.465 235.697 54.4045 250.809 54.4045L250.799 55.1223Z" fill="#162C45"/>
<path d="M28.4172 55.1222C28.0367 70.1438 15.7414 82.204 0.629152 82.2042L0.637941 81.4865C1.01871 66.4652 13.314 54.4048 28.426 54.4044L28.4172 55.1222Z" fill="#134276"/>
<path d="M361.991 221.92C361.611 236.942 349.315 249.002 334.202 249.002L334.211 248.285C334.591 233.263 346.888 221.203 362 221.203L361.991 221.92Z" fill="#017AC9"/>
<path d="M361.991 110.721C361.611 125.743 349.315 137.803 334.202 137.803L334.211 137.086C334.591 122.065 346.888 110.004 362 110.004L361.991 110.721Z" fill="#35C0BA"/>
<path d="M250.799 -0.476685C250.419 14.5448 238.123 26.6052 223.011 26.6053L223.02 25.8876C223.401 10.8659 235.697 -1.19446 250.809 -1.19446L250.799 -0.476685Z" fill="#3A54A1"/>
<path d="M250.799 110.721C250.419 125.743 238.124 137.804 223.011 137.804L223.02 137.086C223.401 122.065 235.697 110.004 250.809 110.004L250.799 110.721Z" fill="#35C0BA"/>
<path d="M306.395 277.519C306.015 292.541 293.719 304.601 278.606 304.601L278.616 303.884C278.997 288.862 291.292 276.802 306.404 276.802L306.395 277.519Z" fill="#3A54A1"/>
<path d="M195.204 55.1223C194.824 70.144 182.528 82.2043 167.415 82.2043L167.424 81.4866C167.805 66.4651 180.101 54.4046 195.213 54.4045L195.204 55.1223Z" fill="#134276"/>
<path d="M195.204 166.321C194.824 181.342 182.528 193.403 167.415 193.403L167.425 192.685C167.806 177.664 180.101 165.603 195.213 165.603L195.204 166.321Z" fill="#F75C58"/>
<path d="M306.395 110.721C306.015 125.743 293.719 137.804 278.606 137.804L278.616 137.086C278.996 122.065 291.292 110.004 306.404 110.004L306.395 110.721Z" fill="#017AC9"/>
<path d="M84.0132 110.722C83.6324 125.743 71.3363 137.804 56.2241 137.804L56.2329 137.086C56.6134 122.065 68.9095 110.004 84.022 110.004L84.0132 110.722Z" fill="#017AC9"/>
<path d="M195.204 110.721C194.824 125.743 182.528 137.804 167.415 137.804L167.424 137.086C167.805 122.065 180.101 110.004 195.213 110.004L195.204 110.721Z" fill="#017AC9"/>
<path d="M306.414 276.084C306.795 261.062 319.09 249.002 334.202 249.002L334.203 249.002L334.194 249.72C333.814 264.741 321.517 276.802 306.405 276.802L306.404 276.802L306.414 276.084Z" fill="#162C45"/>
<path d="M84.0308 53.6868C84.4115 38.6656 96.7069 26.6052 111.819 26.6047L111.82 26.6057C111.82 41.9588 99.3741 54.4045 84.022 54.4045L84.0308 53.6868Z" fill="#35C0BA"/>
<path d="M306.414 164.885C306.789 150.102 318.703 138.187 333.485 137.813L334.202 137.803L334.203 137.804C334.203 153.157 321.757 165.603 306.405 165.603L306.404 165.603L306.414 164.885Z" fill="#35C0BA"/>
<path d="M306.414 387.282C306.795 372.261 319.09 360.2 334.202 360.2L334.203 360.2L334.193 360.918C333.813 375.94 321.517 388 306.405 388L306.404 388L306.414 387.282Z" fill="#35C0BA"/>
<path d="M195.222 53.6877C195.602 38.6658 207.898 26.6048 223.011 26.6047L223.012 26.6047L223.002 27.3225C222.621 42.3441 210.326 54.4044 195.214 54.4045L195.213 54.4045L195.222 53.6877Z" fill="#162C45"/>
<path d="M195.223 164.885C195.603 149.864 207.899 137.803 223.012 137.803L223.002 138.521C222.621 153.543 210.326 165.603 195.214 165.603L195.223 164.885Z" fill="#35C0BA"/>
<path d="M306.414 220.485C306.794 205.463 319.09 193.403 334.202 193.403L334.203 193.403L334.194 194.121C333.813 209.142 321.517 221.203 306.405 221.203L306.404 221.203L306.414 220.485Z" fill="#017AC9"/>
<path d="M306.414 109.286C306.794 94.2649 319.09 82.2046 334.202 82.2045L334.203 82.2045L334.194 82.9222C333.813 97.9438 321.517 110.004 306.405 110.004L306.404 110.004L306.414 109.286Z" fill="#F75C58"/>
<path d="M306.414 331.683C306.794 316.662 319.09 304.602 334.202 304.601L334.203 304.601L334.193 305.319C333.812 320.341 321.517 332.401 306.405 332.401L306.404 332.401L306.414 331.683Z" fill="#017AC9"/>
<path d="M84.0308 109.286C84.4113 94.2648 96.7074 82.2045 111.82 82.2045L111.811 82.9222C111.43 97.9438 99.1343 110.004 84.022 110.004L84.0308 109.286Z" fill="#F75C58"/>
<path d="M195.223 109.286C195.603 94.2648 207.899 82.2045 223.012 82.2045L223.002 82.9222C222.621 97.9437 210.326 110.004 195.214 110.004L195.223 109.286Z" fill="#F75C58"/>
<path d="M28.4358 53.6868C28.8166 38.6655 41.1119 26.605 56.2239 26.6047L56.2151 27.3225C55.8346 42.3441 43.5392 54.4043 28.427 54.4045L28.4358 53.6868Z" fill="#017AC9"/>
<path d="M139.627 53.6877C140.007 38.666 152.302 26.605 167.415 26.6047L167.406 27.3225C167.026 42.3441 154.73 54.4043 139.618 54.4045L139.627 53.6877Z" fill="#017AC9"/>
<path d="M139.627 164.886C140.007 149.865 152.302 137.804 167.415 137.804L167.406 138.521C167.026 153.543 154.73 165.603 139.618 165.603L139.627 164.886Z" fill="#35C0BA"/>
<path d="M250.818 109.286C251.198 94.2648 263.494 82.2045 278.607 82.2045L278.597 82.9222C278.216 97.9437 265.921 110.004 250.809 110.004L250.818 109.286Z" fill="#017AC9"/>
<path d="M306.405 54.4045C321.757 54.4047 334.201 66.8506 334.202 82.2034L334.202 82.2043C318.85 82.2043 306.404 69.7578 306.404 54.4045L306.405 54.4045Z" fill="#3A54A1"/>
<path d="M84.7397 54.4143C99.7604 54.7949 111.82 67.0911 111.82 82.2043L111.102 82.1956C96.0813 81.815 84.022 69.5179 84.022 54.4045L84.7397 54.4143Z" fill="#3A54A1"/>
<path d="M306.405 165.603C321.757 165.603 334.201 178.049 334.202 193.402L334.202 193.403C318.85 193.403 306.404 180.956 306.404 165.603L306.405 165.603Z" fill="#F75C58"/>
<path d="M195.214 165.603C210.566 165.603 223.011 178.05 223.011 193.403L222.293 193.394C207.273 193.013 195.213 180.716 195.213 165.603L195.214 165.603Z" fill="#F75C58"/>
<path d="M306.405 221.203C321.757 221.203 334.201 233.648 334.202 249.001L334.202 249.002C318.85 249.001 306.404 236.556 306.404 221.203L306.405 221.203Z" fill="#F75C58"/>
<path d="M306.405 110.004C321.757 110.004 334.202 122.45 334.202 137.803L334.202 137.804C318.85 137.804 306.404 125.357 306.404 110.004L306.405 110.004Z" fill="#3A54A1"/>
<path d="M306.405 332.401C321.757 332.401 334.201 344.846 334.202 360.199L334.202 360.2C318.85 360.2 306.404 347.754 306.404 332.401L306.405 332.401Z" fill="#3A54A1"/>
<path d="M195.214 -1.19446C210.566 -1.19419 223.01 11.2517 223.01 26.6044C207.658 26.6035 195.214 14.1583 195.214 -1.19446Z" fill="#134276"/>
<path d="M251.526 54.4143C266.546 54.7948 278.604 67.0904 278.605 82.2034C263.253 82.2025 250.809 69.7573 250.809 54.4045L251.526 54.4143Z" fill="#F75C58"/>
<path d="M251.526 276.81C266.547 277.191 278.607 289.488 278.607 304.601L277.889 304.593C262.868 304.212 250.809 291.915 250.809 276.802L251.526 276.81Z" fill="#3A54A1"/>
<path d="M140.335 54.4141C155.356 54.7946 167.415 67.0908 167.415 82.2041L166.698 82.1953C151.678 81.8149 139.617 69.5186 139.617 54.4053L139.617 54.4043L140.335 54.4141Z" fill="#F75C58"/>
<path d="M29.1438 -1.18481C44.1645 -0.804249 56.2239 11.4918 56.2239 26.6052L55.5071 26.5964C40.4862 26.216 28.426 13.9189 28.426 -1.19458L29.1438 -1.18481Z" fill="#35C0BA"/>
<path d="M251.526 110.013C266.547 110.394 278.607 122.691 278.607 137.804L277.889 137.794C262.869 137.414 250.809 125.118 250.809 110.004L251.526 110.013Z" fill="#F75C58"/>
<path d="M140.335 110.013C155.356 110.394 167.415 122.69 167.415 137.803L166.698 137.794C151.678 137.414 139.617 125.118 139.617 110.004L140.335 110.013Z" fill="#F75C58"/>
<path d="M361.282 54.3958C346.262 54.0149 334.202 41.7188 334.202 26.6057V26.6047L334.92 26.6145C349.94 26.9952 362 39.2913 362 54.4045L361.282 54.3958Z" fill="#F75C58"/>
<path d="M27.7092 54.3958C12.6887 54.0152 0.629372 41.7189 0.62915 26.6057V26.6047L1.34595 26.6145C16.3667 26.9949 28.4269 39.2911 28.427 54.4045L27.7092 54.3958Z" fill="#F75C58"/>
<path d="M250.091 165.594C235.071 165.214 223.011 152.917 223.011 137.804V137.803L223.729 137.813C238.749 138.194 250.809 150.49 250.809 165.603L250.091 165.594Z" fill="#F75C58"/>
<path d="M361.282 221.193C346.262 220.812 334.202 208.516 334.202 193.403L334.92 193.412C349.941 193.793 362 206.09 362 221.203L361.282 221.193Z" fill="#35C0BA"/>
<path d="M361.282 109.995C346.262 109.614 334.202 97.3178 334.202 82.2046L334.92 82.2134C349.941 82.5941 362 94.8911 362 110.004L361.282 109.995Z" fill="#3A54A1"/>
<path d="M361.282 332.391C346.262 332.011 334.202 319.715 334.202 304.601L334.92 304.61C349.941 304.991 362 317.288 362 332.401L361.282 332.391Z" fill="#3A54A1"/>
<path d="M305.687 54.3958C290.667 54.0153 278.606 41.719 278.606 26.6057V26.6047L279.324 26.6145C294.345 26.9951 306.404 39.2912 306.404 54.4045L305.687 54.3958Z" fill="#3A54A1"/>
<path d="M305.687 276.793C290.666 276.412 278.606 264.115 278.606 249.002L279.324 249.012C294.345 249.392 306.404 261.688 306.404 276.802L305.687 276.793Z" fill="#F75C58"/>
<path d="M83.3042 54.3958C68.2837 54.015 56.2243 41.7188 56.2241 26.6057V26.6047L56.9419 26.6145C71.9623 26.9953 84.0218 39.2914 84.022 54.4045L83.3042 54.3958Z" fill="#3A54A1"/>
<path d="M305.687 165.594C290.667 165.214 278.606 152.917 278.606 137.804V137.803L279.324 137.813C294.345 138.194 306.404 150.49 306.404 165.603L305.687 165.594Z" fill="#134276"/>
<path d="M194.496 54.3958C179.475 54.0154 167.415 41.7191 167.415 26.6057V26.6047L168.133 26.6145C183.153 26.9952 195.213 39.2913 195.213 54.4045L194.496 54.3958Z" fill="#3A54A1"/>
<path d="M195.213 165.603C179.861 165.603 167.415 153.157 167.415 137.804C167.415 137.768 167.416 137.73 167.416 137.694C167.438 137.694 167.459 137.694 167.481 137.694C182.833 137.694 195.279 150.14 195.279 165.494C195.279 165.53 195.277 165.566 195.277 165.602C195.256 165.602 195.234 165.603 195.213 165.603Z" fill="#134276"/>
<path d="M305.687 221.193C290.667 220.813 278.606 208.516 278.606 193.403L279.324 193.412C294.345 193.792 306.404 206.089 306.404 221.203L305.687 221.193Z" fill="#3A54A1"/>
<path d="M305.687 332.391C290.666 332.011 278.606 319.715 278.606 304.601L279.324 304.61C294.345 304.991 306.404 317.288 306.404 332.401L305.687 332.391Z" fill="#F75C58"/>
<path d="M83.3042 109.995C68.2837 109.614 56.2242 97.3178 56.2241 82.2046L56.9419 82.2134C71.9624 82.5942 84.022 94.8911 84.022 110.004L83.3042 109.995Z" fill="#06B271"/>
<path d="M194.496 109.995C179.475 109.614 167.415 97.3181 167.415 82.2046L168.133 82.2134C183.153 82.5941 195.213 94.8911 195.213 110.004L194.496 109.995Z" fill="#35C0BA"/>
</g>
</svg>
