<svg width="1920" height="480" viewBox="0 0 1920 480" fill="none" xmlns="http://www.w3.org/2000/svg">
<rect width="1920" height="480" fill="#134276"/>
<path d="M2.52373e-07 60C2.21333e-07 26.8629 26.8629 1.44847e-06 60 0C60 33.1371 33.1371 60 2.52373e-07 60C1.12662e-06 60 -6.2187e-07 60 2.52373e-07 60Z" fill="white" fill-opacity="0.03"/>
<path d="M120 60C86.8629 60 60 33.1371 60 0C93.1371 -2.89694e-06 120 26.8629 120 60Z" fill="white" fill-opacity="0.03"/>
<path d="M120 60C120 26.8629 146.863 1.44847e-06 180 0C180 33.1371 153.137 60 120 60Z" fill="white" fill-opacity="0.03"/>
<path d="M240 60C206.863 60 180 33.1371 180 0C213.137 -2.89694e-06 240 26.8629 240 60Z" fill="white" fill-opacity="0.03"/>
<path d="M240 60C240 26.8629 266.863 1.44847e-06 300 0C300 33.1371 273.137 60 240 60Z" fill="white" fill-opacity="0.03"/>
<path d="M360 60C326.863 60 300 33.1371 300 0C333.137 -2.89694e-06 360 26.8629 360 60Z" fill="white" fill-opacity="0.03"/>
<path d="M360 60C360 26.8629 386.863 1.44847e-06 420 0C420 33.1371 393.137 60 360 60Z" fill="white" fill-opacity="0.03"/>
<path d="M480 60C446.863 60 420 33.1371 420 0C453.137 -2.89694e-06 480 26.8629 480 60Z" fill="white" fill-opacity="0.03"/>
<path d="M480 60C480 26.8629 506.863 1.44847e-06 540 0C540 33.1371 513.137 60 480 60Z" fill="white" fill-opacity="0.03"/>
<path d="M600 60C566.863 60 540 33.1371 540 0C573.137 -2.89694e-06 600 26.8629 600 60Z" fill="white" fill-opacity="0.03"/>
<path d="M600 60C600 26.8629 626.863 1.44847e-06 660 0C660 33.1371 633.137 60 600 60Z" fill="white" fill-opacity="0.03"/>
<path d="M720 60C686.863 60 660 33.1371 660 0C693.137 -2.89694e-06 720 26.8629 720 60Z" fill="white" fill-opacity="0.03"/>
<path d="M720 60C720 26.8629 746.863 1.44847e-06 780 0C780 33.1371 753.137 60 720 60Z" fill="white" fill-opacity="0.03"/>
<path d="M840 60C806.863 60 780 33.1371 780 0C813.137 -2.89694e-06 840 26.8629 840 60Z" fill="white" fill-opacity="0.03"/>
<path d="M840 60C840 26.8629 866.863 1.44847e-06 900 0C900 33.1371 873.137 60 840 60Z" fill="white" fill-opacity="0.03"/>
<path d="M960 60C926.863 60 900 33.1371 900 0C933.137 -2.89694e-06 960 26.8629 960 60Z" fill="white" fill-opacity="0.03"/>
<path d="M960 60C960 26.8629 986.863 1.44847e-06 1020 0C1020 33.1371 993.137 60 960 60Z" fill="white" fill-opacity="0.03"/>
<path d="M1080 60C1046.86 60 1020 33.1371 1020 0C1053.14 -2.89694e-06 1080 26.8629 1080 60Z" fill="white" fill-opacity="0.03"/>
<path d="M1080 60C1080 26.8629 1106.86 1.44847e-06 1140 0C1140 33.1371 1113.14 60 1080 60Z" fill="white" fill-opacity="0.03"/>
<path d="M1200 60C1166.86 60 1140 33.1371 1140 0C1173.14 -2.89694e-06 1200 26.8629 1200 60Z" fill="white" fill-opacity="0.03"/>
<path d="M1200 60C1200 26.8629 1226.86 1.44847e-06 1260 0C1260 33.1371 1233.14 60 1200 60Z" fill="white" fill-opacity="0.03"/>
<path d="M1320 60C1286.86 60 1260 33.1371 1260 0C1293.14 -2.89694e-06 1320 26.8629 1320 60Z" fill="white" fill-opacity="0.03"/>
<path d="M1320 60C1320 26.8629 1346.86 1.44847e-06 1380 0C1380 33.1371 1353.14 60 1320 60Z" fill="white" fill-opacity="0.03"/>
<path d="M1440 60C1406.86 60 1380 33.1371 1380 0C1413.14 -2.89694e-06 1440 26.8629 1440 60Z" fill="white" fill-opacity="0.03"/>
<path d="M1440 60C1440 26.8629 1466.86 1.44847e-06 1500 0C1500 33.1371 1473.14 60 1440 60Z" fill="white" fill-opacity="0.03"/>
<path d="M1560 60C1526.86 60 1500 33.1371 1500 0C1533.14 -2.89694e-06 1560 26.8629 1560 60Z" fill="white" fill-opacity="0.03"/>
<path d="M1560 60C1560 26.8629 1586.86 1.44847e-06 1620 0C1620 33.1371 1593.14 60 1560 60Z" fill="white" fill-opacity="0.03"/>
<path d="M1680 60C1646.86 60 1620 33.1371 1620 0C1653.14 -2.89694e-06 1680 26.8629 1680 60Z" fill="white" fill-opacity="0.03"/>
<path d="M1680 60C1680 26.8629 1706.86 1.44847e-06 1740 0C1740 33.1371 1713.14 60 1680 60Z" fill="white" fill-opacity="0.03"/>
<path d="M1800 60C1766.86 60 1740 33.1371 1740 0C1773.14 -2.89694e-06 1800 26.8629 1800 60Z" fill="white" fill-opacity="0.03"/>
<path d="M1800 60C1800 26.8629 1826.86 1.44847e-06 1860 0C1860 33.1371 1833.14 60 1800 60Z" fill="white" fill-opacity="0.03"/>
<path d="M1920 60C1886.86 60 1860 33.1371 1860 0C1893.14 -2.89694e-06 1920 26.8629 1920 60Z" fill="white" fill-opacity="0.03"/>
<path d="M2.52373e-07 60C33.1371 60 60 86.8629 60 120C26.8629 120 2.52373e-07 93.1371 2.52373e-07 60C1.12662e-06 60 -6.2187e-07 60 2.52373e-07 60Z" fill="white" fill-opacity="0.03"/>
<path d="M120 60C120 93.1371 93.1371 120 60 120C60 86.8629 86.8629 60 120 60Z" fill="white" fill-opacity="0.03"/>
<path d="M120 60C153.137 60 180 86.8629 180 120C146.863 120 120 93.1371 120 60Z" fill="white" fill-opacity="0.03"/>
<path d="M240 60C240 93.1371 213.137 120 180 120C180 86.8629 206.863 60 240 60Z" fill="white" fill-opacity="0.03"/>
<path d="M240 60C273.137 60 300 86.8629 300 120C266.863 120 240 93.1371 240 60Z" fill="white" fill-opacity="0.03"/>
<path d="M360 60C360 93.1371 333.137 120 300 120C300 86.8629 326.863 60 360 60Z" fill="white" fill-opacity="0.03"/>
<path d="M360 60C393.137 60 420 86.8629 420 120C386.863 120 360 93.1371 360 60Z" fill="white" fill-opacity="0.03"/>
<path d="M480 60C480 93.1371 453.137 120 420 120C420 86.8629 446.863 60 480 60Z" fill="white" fill-opacity="0.03"/>
<path d="M480 60C513.137 60 540 86.8629 540 120C506.863 120 480 93.1371 480 60Z" fill="white" fill-opacity="0.03"/>
<path d="M600 60C600 93.1371 573.137 120 540 120C540 86.8629 566.863 60 600 60Z" fill="white" fill-opacity="0.03"/>
<path d="M600 60C633.137 60 660 86.8629 660 120C626.863 120 600 93.1371 600 60Z" fill="white" fill-opacity="0.03"/>
<path d="M720 60C720 93.1371 693.137 120 660 120C660 86.8629 686.863 60 720 60Z" fill="white" fill-opacity="0.03"/>
<path d="M720 60C753.137 60 780 86.8629 780 120C746.863 120 720 93.1371 720 60Z" fill="white" fill-opacity="0.03"/>
<path d="M840 60C840 93.1371 813.137 120 780 120C780 86.8629 806.863 60 840 60Z" fill="white" fill-opacity="0.03"/>
<path d="M840 60C873.137 60 900 86.8629 900 120C866.863 120 840 93.1371 840 60Z" fill="white" fill-opacity="0.03"/>
<path d="M960 60C960 93.1371 933.137 120 900 120C900 86.8629 926.863 60 960 60Z" fill="white" fill-opacity="0.03"/>
<path d="M960 60C993.137 60 1020 86.8629 1020 120C986.863 120 960 93.1371 960 60Z" fill="white" fill-opacity="0.03"/>
<path d="M1080 60C1080 93.1371 1053.14 120 1020 120C1020 86.8629 1046.86 60 1080 60Z" fill="white" fill-opacity="0.03"/>
<path d="M1080 60C1113.14 60 1140 86.8629 1140 120C1106.86 120 1080 93.1371 1080 60Z" fill="white" fill-opacity="0.03"/>
<path d="M1200 60C1200 93.1371 1173.14 120 1140 120C1140 86.8629 1166.86 60 1200 60Z" fill="white" fill-opacity="0.03"/>
<path d="M1200 60C1233.14 60 1260 86.8629 1260 120C1226.86 120 1200 93.1371 1200 60Z" fill="white" fill-opacity="0.03"/>
<path d="M1320 60C1320 93.1371 1293.14 120 1260 120C1260 86.8629 1286.86 60 1320 60Z" fill="white" fill-opacity="0.03"/>
<path d="M1320 60C1353.14 60 1380 86.8629 1380 120C1346.86 120 1320 93.1371 1320 60Z" fill="white" fill-opacity="0.03"/>
<path d="M1440 60C1440 93.1371 1413.14 120 1380 120C1380 86.8629 1406.86 60 1440 60Z" fill="white" fill-opacity="0.03"/>
<path d="M1440 60C1473.14 60 1500 86.8629 1500 120C1466.86 120 1440 93.1371 1440 60Z" fill="white" fill-opacity="0.03"/>
<path d="M1560 60C1560 93.1371 1533.14 120 1500 120C1500 86.8629 1526.86 60 1560 60Z" fill="white" fill-opacity="0.03"/>
<path d="M1560 60C1593.14 60 1620 86.8629 1620 120C1586.86 120 1560 93.1371 1560 60Z" fill="white" fill-opacity="0.03"/>
<path d="M1680 60C1680 93.1371 1653.14 120 1620 120C1620 86.8629 1646.86 60 1680 60Z" fill="white" fill-opacity="0.03"/>
<path d="M1680 60C1713.14 60 1740 86.8629 1740 120C1706.86 120 1680 93.1371 1680 60Z" fill="white" fill-opacity="0.03"/>
<path d="M1800 60C1800 93.1371 1773.14 120 1740 120C1740 86.8629 1766.86 60 1800 60Z" fill="white" fill-opacity="0.03"/>
<path d="M1800 60C1833.14 60 1860 86.8629 1860 120C1826.86 120 1800 93.1371 1800 60Z" fill="white" fill-opacity="0.03"/>
<path d="M1920 60C1920 93.1371 1893.14 120 1860 120C1860 86.8629 1886.86 60 1920 60Z" fill="white" fill-opacity="0.03"/>
<path d="M2.52373e-07 180C2.21333e-07 146.863 26.8629 120 60 120C60 153.137 33.1371 180 2.52373e-07 180C1.12662e-06 180 -6.2187e-07 180 2.52373e-07 180Z" fill="white" fill-opacity="0.03"/>
<path d="M120 180C86.8629 180 60 153.137 60 120C93.1371 120 120 146.863 120 180Z" fill="white" fill-opacity="0.03"/>
<path d="M120 180C120 146.863 146.863 120 180 120C180 153.137 153.137 180 120 180Z" fill="white" fill-opacity="0.03"/>
<path d="M240 180C206.863 180 180 153.137 180 120C213.137 120 240 146.863 240 180Z" fill="white" fill-opacity="0.03"/>
<path d="M240 180C240 146.863 266.863 120 300 120C300 153.137 273.137 180 240 180Z" fill="white" fill-opacity="0.03"/>
<path d="M360 180C326.863 180 300 153.137 300 120C333.137 120 360 146.863 360 180Z" fill="white" fill-opacity="0.03"/>
<path d="M360 180C360 146.863 386.863 120 420 120C420 153.137 393.137 180 360 180Z" fill="white" fill-opacity="0.03"/>
<path d="M480 180C446.863 180 420 153.137 420 120C453.137 120 480 146.863 480 180Z" fill="white" fill-opacity="0.03"/>
<path d="M480 180C480 146.863 506.863 120 540 120C540 153.137 513.137 180 480 180Z" fill="white" fill-opacity="0.03"/>
<path d="M600 180C566.863 180 540 153.137 540 120C573.137 120 600 146.863 600 180Z" fill="white" fill-opacity="0.03"/>
<path d="M600 180C600 146.863 626.863 120 660 120C660 153.137 633.137 180 600 180Z" fill="white" fill-opacity="0.03"/>
<path d="M720 180C686.863 180 660 153.137 660 120C693.137 120 720 146.863 720 180Z" fill="white" fill-opacity="0.03"/>
<path d="M720 180C720 146.863 746.863 120 780 120C780 153.137 753.137 180 720 180Z" fill="white" fill-opacity="0.03"/>
<path d="M840 180C806.863 180 780 153.137 780 120C813.137 120 840 146.863 840 180Z" fill="white" fill-opacity="0.03"/>
<path d="M840 180C840 146.863 866.863 120 900 120C900 153.137 873.137 180 840 180Z" fill="white" fill-opacity="0.03"/>
<path d="M960 180C926.863 180 900 153.137 900 120C933.137 120 960 146.863 960 180Z" fill="white" fill-opacity="0.03"/>
<path d="M960 180C960 146.863 986.863 120 1020 120C1020 153.137 993.137 180 960 180Z" fill="white" fill-opacity="0.03"/>
<path d="M1080 180C1046.86 180 1020 153.137 1020 120C1053.14 120 1080 146.863 1080 180Z" fill="white" fill-opacity="0.03"/>
<path d="M1080 180C1080 146.863 1106.86 120 1140 120C1140 153.137 1113.14 180 1080 180Z" fill="white" fill-opacity="0.03"/>
<path d="M1200 180C1166.86 180 1140 153.137 1140 120C1173.14 120 1200 146.863 1200 180Z" fill="white" fill-opacity="0.03"/>
<path d="M1200 180C1200 146.863 1226.86 120 1260 120C1260 153.137 1233.14 180 1200 180Z" fill="white" fill-opacity="0.03"/>
<path d="M1320 180C1286.86 180 1260 153.137 1260 120C1293.14 120 1320 146.863 1320 180Z" fill="white" fill-opacity="0.03"/>
<path d="M1320 180C1320 146.863 1346.86 120 1380 120C1380 153.137 1353.14 180 1320 180Z" fill="white" fill-opacity="0.03"/>
<path d="M1440 180C1406.86 180 1380 153.137 1380 120C1413.14 120 1440 146.863 1440 180Z" fill="white" fill-opacity="0.03"/>
<path d="M1440 180C1440 146.863 1466.86 120 1500 120C1500 153.137 1473.14 180 1440 180Z" fill="white" fill-opacity="0.03"/>
<path d="M1560 180C1526.86 180 1500 153.137 1500 120C1533.14 120 1560 146.863 1560 180Z" fill="white" fill-opacity="0.03"/>
<path d="M1560 180C1560 146.863 1586.86 120 1620 120C1620 153.137 1593.14 180 1560 180Z" fill="white" fill-opacity="0.03"/>
<path d="M1680 180C1646.86 180 1620 153.137 1620 120C1653.14 120 1680 146.863 1680 180Z" fill="white" fill-opacity="0.03"/>
<path d="M1680 180C1680 146.863 1706.86 120 1740 120C1740 153.137 1713.14 180 1680 180Z" fill="white" fill-opacity="0.03"/>
<path d="M1800 180C1766.86 180 1740 153.137 1740 120C1773.14 120 1800 146.863 1800 180Z" fill="white" fill-opacity="0.03"/>
<path d="M1800 180C1800 146.863 1826.86 120 1860 120C1860 153.137 1833.14 180 1800 180Z" fill="white" fill-opacity="0.03"/>
<path d="M1920 180C1886.86 180 1860 153.137 1860 120C1893.14 120 1920 146.863 1920 180Z" fill="white" fill-opacity="0.03"/>
<path d="M2.52373e-07 180C33.1371 180 60 206.863 60 240C26.8629 240 2.52373e-07 213.137 2.52373e-07 180C1.12662e-06 180 -6.2187e-07 180 2.52373e-07 180Z" fill="white" fill-opacity="0.03"/>
<path d="M120 180C120 213.137 93.1371 240 60 240C60 206.863 86.8629 180 120 180Z" fill="white" fill-opacity="0.03"/>
<path d="M120 180C153.137 180 180 206.863 180 240C146.863 240 120 213.137 120 180Z" fill="white" fill-opacity="0.03"/>
<path d="M240 180C240 213.137 213.137 240 180 240C180 206.863 206.863 180 240 180Z" fill="white" fill-opacity="0.03"/>
<path d="M240 180C273.137 180 300 206.863 300 240C266.863 240 240 213.137 240 180Z" fill="white" fill-opacity="0.03"/>
<path d="M360 180C360 213.137 333.137 240 300 240C300 206.863 326.863 180 360 180Z" fill="white" fill-opacity="0.03"/>
<path d="M360 180C393.137 180 420 206.863 420 240C386.863 240 360 213.137 360 180Z" fill="white" fill-opacity="0.03"/>
<path d="M480 180C480 213.137 453.137 240 420 240C420 206.863 446.863 180 480 180Z" fill="white" fill-opacity="0.03"/>
<path d="M480 180C513.137 180 540 206.863 540 240C506.863 240 480 213.137 480 180Z" fill="white" fill-opacity="0.03"/>
<path d="M600 180C600 213.137 573.137 240 540 240C540 206.863 566.863 180 600 180Z" fill="white" fill-opacity="0.03"/>
<path d="M600 180C633.137 180 660 206.863 660 240C626.863 240 600 213.137 600 180Z" fill="white" fill-opacity="0.03"/>
<path d="M720 180C720 213.137 693.137 240 660 240C660 206.863 686.863 180 720 180Z" fill="white" fill-opacity="0.03"/>
<path d="M720 180C753.137 180 780 206.863 780 240C746.863 240 720 213.137 720 180Z" fill="white" fill-opacity="0.03"/>
<path d="M840 180C840 213.137 813.137 240 780 240C780 206.863 806.863 180 840 180Z" fill="white" fill-opacity="0.03"/>
<path d="M840 180C873.137 180 900 206.863 900 240C866.863 240 840 213.137 840 180Z" fill="white" fill-opacity="0.03"/>
<path d="M960 180C960 213.137 933.137 240 900 240C900 206.863 926.863 180 960 180Z" fill="white" fill-opacity="0.03"/>
<path d="M960 180C993.137 180 1020 206.863 1020 240C986.863 240 960 213.137 960 180Z" fill="white" fill-opacity="0.03"/>
<path d="M1080 180C1080 213.137 1053.14 240 1020 240C1020 206.863 1046.86 180 1080 180Z" fill="white" fill-opacity="0.03"/>
<path d="M1080 180C1113.14 180 1140 206.863 1140 240C1106.86 240 1080 213.137 1080 180Z" fill="white" fill-opacity="0.03"/>
<path d="M1200 180C1200 213.137 1173.14 240 1140 240C1140 206.863 1166.86 180 1200 180Z" fill="white" fill-opacity="0.03"/>
<path d="M1200 180C1233.14 180 1260 206.863 1260 240C1226.86 240 1200 213.137 1200 180Z" fill="white" fill-opacity="0.03"/>
<path d="M1320 180C1320 213.137 1293.14 240 1260 240C1260 206.863 1286.86 180 1320 180Z" fill="white" fill-opacity="0.03"/>
<path d="M1320 180C1353.14 180 1380 206.863 1380 240C1346.86 240 1320 213.137 1320 180Z" fill="white" fill-opacity="0.03"/>
<path d="M1440 180C1440 213.137 1413.14 240 1380 240C1380 206.863 1406.86 180 1440 180Z" fill="white" fill-opacity="0.03"/>
<path d="M1440 180C1473.14 180 1500 206.863 1500 240C1466.86 240 1440 213.137 1440 180Z" fill="white" fill-opacity="0.03"/>
<path d="M1560 180C1560 213.137 1533.14 240 1500 240C1500 206.863 1526.86 180 1560 180Z" fill="white" fill-opacity="0.03"/>
<path d="M1560 180C1593.14 180 1620 206.863 1620 240C1586.86 240 1560 213.137 1560 180Z" fill="white" fill-opacity="0.03"/>
<path d="M1680 180C1680 213.137 1653.14 240 1620 240C1620 206.863 1646.86 180 1680 180Z" fill="white" fill-opacity="0.03"/>
<path d="M1680 180C1713.14 180 1740 206.863 1740 240C1706.86 240 1680 213.137 1680 180Z" fill="white" fill-opacity="0.03"/>
<path d="M1800 180C1800 213.137 1773.14 240 1740 240C1740 206.863 1766.86 180 1800 180Z" fill="white" fill-opacity="0.03"/>
<path d="M1800 180C1833.14 180 1860 206.863 1860 240C1826.86 240 1800 213.137 1800 180Z" fill="white" fill-opacity="0.03"/>
<path d="M1920 180C1920 213.137 1893.14 240 1860 240C1860 206.863 1886.86 180 1920 180Z" fill="white" fill-opacity="0.03"/>
<path d="M2.52373e-07 300C2.21333e-07 266.863 26.8629 240 60 240C60 273.137 33.1371 300 2.52373e-07 300C1.12662e-06 300 -6.2187e-07 300 2.52373e-07 300Z" fill="white" fill-opacity="0.03"/>
<path d="M120 300C86.8629 300 60 273.137 60 240C93.1371 240 120 266.863 120 300Z" fill="white" fill-opacity="0.03"/>
<path d="M120 300C120 266.863 146.863 240 180 240C180 273.137 153.137 300 120 300Z" fill="white" fill-opacity="0.03"/>
<path d="M240 300C206.863 300 180 273.137 180 240C213.137 240 240 266.863 240 300Z" fill="white" fill-opacity="0.03"/>
<path d="M240 300C240 266.863 266.863 240 300 240C300 273.137 273.137 300 240 300Z" fill="white" fill-opacity="0.03"/>
<path d="M360 300C326.863 300 300 273.137 300 240C333.137 240 360 266.863 360 300Z" fill="white" fill-opacity="0.03"/>
<path d="M360 300C360 266.863 386.863 240 420 240C420 273.137 393.137 300 360 300Z" fill="white" fill-opacity="0.03"/>
<path d="M480 300C446.863 300 420 273.137 420 240C453.137 240 480 266.863 480 300Z" fill="white" fill-opacity="0.03"/>
<path d="M480 300C480 266.863 506.863 240 540 240C540 273.137 513.137 300 480 300Z" fill="white" fill-opacity="0.03"/>
<path d="M600 300C566.863 300 540 273.137 540 240C573.137 240 600 266.863 600 300Z" fill="white" fill-opacity="0.03"/>
<path d="M600 300C600 266.863 626.863 240 660 240C660 273.137 633.137 300 600 300Z" fill="white" fill-opacity="0.03"/>
<path d="M720 300C686.863 300 660 273.137 660 240C693.137 240 720 266.863 720 300Z" fill="white" fill-opacity="0.03"/>
<path d="M720 300C720 266.863 746.863 240 780 240C780 273.137 753.137 300 720 300Z" fill="white" fill-opacity="0.03"/>
<path d="M840 300C806.863 300 780 273.137 780 240C813.137 240 840 266.863 840 300Z" fill="white" fill-opacity="0.03"/>
<path d="M840 300C840 266.863 866.863 240 900 240C900 273.137 873.137 300 840 300Z" fill="white" fill-opacity="0.03"/>
<path d="M960 300C926.863 300 900 273.137 900 240C933.137 240 960 266.863 960 300Z" fill="white" fill-opacity="0.03"/>
<path d="M960 300C960 266.863 986.863 240 1020 240C1020 273.137 993.137 300 960 300Z" fill="white" fill-opacity="0.03"/>
<path d="M1080 300C1046.86 300 1020 273.137 1020 240C1053.14 240 1080 266.863 1080 300Z" fill="white" fill-opacity="0.03"/>
<path d="M1080 300C1080 266.863 1106.86 240 1140 240C1140 273.137 1113.14 300 1080 300Z" fill="white" fill-opacity="0.03"/>
<path d="M1200 300C1166.86 300 1140 273.137 1140 240C1173.14 240 1200 266.863 1200 300Z" fill="white" fill-opacity="0.03"/>
<path d="M1200 300C1200 266.863 1226.86 240 1260 240C1260 273.137 1233.14 300 1200 300Z" fill="white" fill-opacity="0.03"/>
<path d="M1320 300C1286.86 300 1260 273.137 1260 240C1293.14 240 1320 266.863 1320 300Z" fill="white" fill-opacity="0.03"/>
<path d="M1320 300C1320 266.863 1346.86 240 1380 240C1380 273.137 1353.14 300 1320 300Z" fill="white" fill-opacity="0.03"/>
<path d="M1440 300C1406.86 300 1380 273.137 1380 240C1413.14 240 1440 266.863 1440 300Z" fill="white" fill-opacity="0.03"/>
<path d="M1440 300C1440 266.863 1466.86 240 1500 240C1500 273.137 1473.14 300 1440 300Z" fill="white" fill-opacity="0.03"/>
<path d="M1560 300C1526.86 300 1500 273.137 1500 240C1533.14 240 1560 266.863 1560 300Z" fill="white" fill-opacity="0.03"/>
<path d="M1560 300C1560 266.863 1586.86 240 1620 240C1620 273.137 1593.14 300 1560 300Z" fill="white" fill-opacity="0.03"/>
<path d="M1680 300C1646.86 300 1620 273.137 1620 240C1653.14 240 1680 266.863 1680 300Z" fill="white" fill-opacity="0.03"/>
<path d="M1680 300C1680 266.863 1706.86 240 1740 240C1740 273.137 1713.14 300 1680 300Z" fill="white" fill-opacity="0.03"/>
<path d="M1800 300C1766.86 300 1740 273.137 1740 240C1773.14 240 1800 266.863 1800 300Z" fill="white" fill-opacity="0.03"/>
<path d="M1800 300C1800 266.863 1826.86 240 1860 240C1860 273.137 1833.14 300 1800 300Z" fill="white" fill-opacity="0.03"/>
<path d="M1920 300C1886.86 300 1860 273.137 1860 240C1893.14 240 1920 266.863 1920 300Z" fill="white" fill-opacity="0.03"/>
<path d="M2.52373e-07 300C33.1371 300 60 326.863 60 360C26.8629 360 2.52373e-07 333.137 2.52373e-07 300C1.12662e-06 300 -6.2187e-07 300 2.52373e-07 300Z" fill="white" fill-opacity="0.03"/>
<path d="M120 300C120 333.137 93.1371 360 60 360C60 326.863 86.8629 300 120 300Z" fill="white" fill-opacity="0.03"/>
<path d="M120 300C153.137 300 180 326.863 180 360C146.863 360 120 333.137 120 300Z" fill="white" fill-opacity="0.03"/>
<path d="M240 300C240 333.137 213.137 360 180 360C180 326.863 206.863 300 240 300Z" fill="white" fill-opacity="0.03"/>
<path d="M240 300C273.137 300 300 326.863 300 360C266.863 360 240 333.137 240 300Z" fill="white" fill-opacity="0.03"/>
<path d="M360 300C360 333.137 333.137 360 300 360C300 326.863 326.863 300 360 300Z" fill="white" fill-opacity="0.03"/>
<path d="M360 300C393.137 300 420 326.863 420 360C386.863 360 360 333.137 360 300Z" fill="white" fill-opacity="0.03"/>
<path d="M480 300C480 333.137 453.137 360 420 360C420 326.863 446.863 300 480 300Z" fill="white" fill-opacity="0.03"/>
<path d="M480 300C513.137 300 540 326.863 540 360C506.863 360 480 333.137 480 300Z" fill="white" fill-opacity="0.03"/>
<path d="M600 300C600 333.137 573.137 360 540 360C540 326.863 566.863 300 600 300Z" fill="white" fill-opacity="0.03"/>
<path d="M600 300C633.137 300 660 326.863 660 360C626.863 360 600 333.137 600 300Z" fill="white" fill-opacity="0.03"/>
<path d="M720 300C720 333.137 693.137 360 660 360C660 326.863 686.863 300 720 300Z" fill="white" fill-opacity="0.03"/>
<path d="M720 300C753.137 300 780 326.863 780 360C746.863 360 720 333.137 720 300Z" fill="white" fill-opacity="0.03"/>
<path d="M840 300C840 333.137 813.137 360 780 360C780 326.863 806.863 300 840 300Z" fill="white" fill-opacity="0.03"/>
<path d="M840 300C873.137 300 900 326.863 900 360C866.863 360 840 333.137 840 300Z" fill="white" fill-opacity="0.03"/>
<path d="M960 300C960 333.137 933.137 360 900 360C900 326.863 926.863 300 960 300Z" fill="white" fill-opacity="0.03"/>
<path d="M960 300C993.137 300 1020 326.863 1020 360C986.863 360 960 333.137 960 300Z" fill="white" fill-opacity="0.03"/>
<path d="M1080 300C1080 333.137 1053.14 360 1020 360C1020 326.863 1046.86 300 1080 300Z" fill="white" fill-opacity="0.03"/>
<path d="M1080 300C1113.14 300 1140 326.863 1140 360C1106.86 360 1080 333.137 1080 300Z" fill="white" fill-opacity="0.03"/>
<path d="M1200 300C1200 333.137 1173.14 360 1140 360C1140 326.863 1166.86 300 1200 300Z" fill="white" fill-opacity="0.03"/>
<path d="M1200 300C1233.14 300 1260 326.863 1260 360C1226.86 360 1200 333.137 1200 300Z" fill="white" fill-opacity="0.03"/>
<path d="M1320 300C1320 333.137 1293.14 360 1260 360C1260 326.863 1286.86 300 1320 300Z" fill="white" fill-opacity="0.03"/>
<path d="M1320 300C1353.14 300 1380 326.863 1380 360C1346.86 360 1320 333.137 1320 300Z" fill="white" fill-opacity="0.03"/>
<path d="M1440 300C1440 333.137 1413.14 360 1380 360C1380 326.863 1406.86 300 1440 300Z" fill="white" fill-opacity="0.03"/>
<path d="M1440 300C1473.14 300 1500 326.863 1500 360C1466.86 360 1440 333.137 1440 300Z" fill="white" fill-opacity="0.03"/>
<path d="M1560 300C1560 333.137 1533.14 360 1500 360C1500 326.863 1526.86 300 1560 300Z" fill="white" fill-opacity="0.03"/>
<path d="M1560 300C1593.14 300 1620 326.863 1620 360C1586.86 360 1560 333.137 1560 300Z" fill="white" fill-opacity="0.03"/>
<path d="M1680 300C1680 333.137 1653.14 360 1620 360C1620 326.863 1646.86 300 1680 300Z" fill="white" fill-opacity="0.03"/>
<path d="M1680 300C1713.14 300 1740 326.863 1740 360C1706.86 360 1680 333.137 1680 300Z" fill="white" fill-opacity="0.03"/>
<path d="M1800 300C1800 333.137 1773.14 360 1740 360C1740 326.863 1766.86 300 1800 300Z" fill="white" fill-opacity="0.03"/>
<path d="M1800 300C1833.14 300 1860 326.863 1860 360C1826.86 360 1800 333.137 1800 300Z" fill="white" fill-opacity="0.03"/>
<path d="M1920 300C1920 333.137 1893.14 360 1860 360C1860 326.863 1886.86 300 1920 300Z" fill="white" fill-opacity="0.03"/>
<path d="M2.52373e-07 420C2.21333e-07 386.863 26.8629 360 60 360C60 393.137 33.1371 420 2.52373e-07 420C1.12662e-06 420 -6.2187e-07 420 2.52373e-07 420Z" fill="white" fill-opacity="0.03"/>
<path d="M120 420C86.8629 420 60 393.137 60 360C93.1371 360 120 386.863 120 420Z" fill="white" fill-opacity="0.03"/>
<path d="M120 420C120 386.863 146.863 360 180 360C180 393.137 153.137 420 120 420Z" fill="white" fill-opacity="0.03"/>
<path d="M240 420C206.863 420 180 393.137 180 360C213.137 360 240 386.863 240 420Z" fill="white" fill-opacity="0.03"/>
<path d="M240 420C240 386.863 266.863 360 300 360C300 393.137 273.137 420 240 420Z" fill="white" fill-opacity="0.03"/>
<path d="M360 420C326.863 420 300 393.137 300 360C333.137 360 360 386.863 360 420Z" fill="white" fill-opacity="0.03"/>
<path d="M360 420C360 386.863 386.863 360 420 360C420 393.137 393.137 420 360 420Z" fill="white" fill-opacity="0.03"/>
<path d="M480 420C446.863 420 420 393.137 420 360C453.137 360 480 386.863 480 420Z" fill="white" fill-opacity="0.03"/>
<path d="M480 420C480 386.863 506.863 360 540 360C540 393.137 513.137 420 480 420Z" fill="white" fill-opacity="0.03"/>
<path d="M600 420C566.863 420 540 393.137 540 360C573.137 360 600 386.863 600 420Z" fill="white" fill-opacity="0.03"/>
<path d="M600 420C600 386.863 626.863 360 660 360C660 393.137 633.137 420 600 420Z" fill="white" fill-opacity="0.03"/>
<path d="M720 420C686.863 420 660 393.137 660 360C693.137 360 720 386.863 720 420Z" fill="white" fill-opacity="0.03"/>
<path d="M720 420C720 386.863 746.863 360 780 360C780 393.137 753.137 420 720 420Z" fill="white" fill-opacity="0.03"/>
<path d="M840 420C806.863 420 780 393.137 780 360C813.137 360 840 386.863 840 420Z" fill="white" fill-opacity="0.03"/>
<path d="M840 420C840 386.863 866.863 360 900 360C900 393.137 873.137 420 840 420Z" fill="white" fill-opacity="0.03"/>
<path d="M960 420C926.863 420 900 393.137 900 360C933.137 360 960 386.863 960 420Z" fill="white" fill-opacity="0.03"/>
<path d="M960 420C960 386.863 986.863 360 1020 360C1020 393.137 993.137 420 960 420Z" fill="white" fill-opacity="0.03"/>
<path d="M1080 420C1046.86 420 1020 393.137 1020 360C1053.14 360 1080 386.863 1080 420Z" fill="white" fill-opacity="0.03"/>
<path d="M1080 420C1080 386.863 1106.86 360 1140 360C1140 393.137 1113.14 420 1080 420Z" fill="white" fill-opacity="0.03"/>
<path d="M1200 420C1166.86 420 1140 393.137 1140 360C1173.14 360 1200 386.863 1200 420Z" fill="white" fill-opacity="0.03"/>
<path d="M1200 420C1200 386.863 1226.86 360 1260 360C1260 393.137 1233.14 420 1200 420Z" fill="white" fill-opacity="0.03"/>
<path d="M1320 420C1286.86 420 1260 393.137 1260 360C1293.14 360 1320 386.863 1320 420Z" fill="white" fill-opacity="0.03"/>
<path d="M1320 420C1320 386.863 1346.86 360 1380 360C1380 393.137 1353.14 420 1320 420Z" fill="white" fill-opacity="0.03"/>
<path d="M1440 420C1406.86 420 1380 393.137 1380 360C1413.14 360 1440 386.863 1440 420Z" fill="white" fill-opacity="0.03"/>
<path d="M1440 420C1440 386.863 1466.86 360 1500 360C1500 393.137 1473.14 420 1440 420Z" fill="white" fill-opacity="0.03"/>
<path d="M1560 420C1526.86 420 1500 393.137 1500 360C1533.14 360 1560 386.863 1560 420Z" fill="white" fill-opacity="0.03"/>
<path d="M1560 420C1560 386.863 1586.86 360 1620 360C1620 393.137 1593.14 420 1560 420Z" fill="white" fill-opacity="0.03"/>
<path d="M1680 420C1646.86 420 1620 393.137 1620 360C1653.14 360 1680 386.863 1680 420Z" fill="white" fill-opacity="0.03"/>
<path d="M1680 420C1680 386.863 1706.86 360 1740 360C1740 393.137 1713.14 420 1680 420Z" fill="white" fill-opacity="0.03"/>
<path d="M1800 420C1766.86 420 1740 393.137 1740 360C1773.14 360 1800 386.863 1800 420Z" fill="white" fill-opacity="0.03"/>
<path d="M1800 420C1800 386.863 1826.86 360 1860 360C1860 393.137 1833.14 420 1800 420Z" fill="white" fill-opacity="0.03"/>
<path d="M1920 420C1886.86 420 1860 393.137 1860 360C1893.14 360 1920 386.863 1920 420Z" fill="white" fill-opacity="0.03"/>
<path d="M2.52373e-07 420C33.1371 420 60 446.863 60 480C26.8629 480 2.52373e-07 453.137 2.52373e-07 420C1.12662e-06 420 -6.2187e-07 420 2.52373e-07 420Z" fill="white" fill-opacity="0.03"/>
<path d="M120 420C120 453.137 93.1371 480 60 480C60 446.863 86.8629 420 120 420Z" fill="white" fill-opacity="0.03"/>
<path d="M120 420C153.137 420 180 446.863 180 480C146.863 480 120 453.137 120 420Z" fill="white" fill-opacity="0.03"/>
<path d="M240 420C240 453.137 213.137 480 180 480C180 446.863 206.863 420 240 420Z" fill="white" fill-opacity="0.03"/>
<path d="M240 420C273.137 420 300 446.863 300 480C266.863 480 240 453.137 240 420Z" fill="white" fill-opacity="0.03"/>
<path d="M360 420C360 453.137 333.137 480 300 480C300 446.863 326.863 420 360 420Z" fill="white" fill-opacity="0.03"/>
<path d="M360 420C393.137 420 420 446.863 420 480C386.863 480 360 453.137 360 420Z" fill="white" fill-opacity="0.03"/>
<path d="M480 420C480 453.137 453.137 480 420 480C420 446.863 446.863 420 480 420Z" fill="white" fill-opacity="0.03"/>
<path d="M480 420C513.137 420 540 446.863 540 480C506.863 480 480 453.137 480 420Z" fill="white" fill-opacity="0.03"/>
<path d="M600 420C600 453.137 573.137 480 540 480C540 446.863 566.863 420 600 420Z" fill="white" fill-opacity="0.03"/>
<path d="M600 420C633.137 420 660 446.863 660 480C626.863 480 600 453.137 600 420Z" fill="white" fill-opacity="0.03"/>
<path d="M720 420C720 453.137 693.137 480 660 480C660 446.863 686.863 420 720 420Z" fill="white" fill-opacity="0.03"/>
<path d="M720 420C753.137 420 780 446.863 780 480C746.863 480 720 453.137 720 420Z" fill="white" fill-opacity="0.03"/>
<path d="M840 420C840 453.137 813.137 480 780 480C780 446.863 806.863 420 840 420Z" fill="white" fill-opacity="0.03"/>
<path d="M840 420C873.137 420 900 446.863 900 480C866.863 480 840 453.137 840 420Z" fill="white" fill-opacity="0.03"/>
<path d="M960 420C960 453.137 933.137 480 900 480C900 446.863 926.863 420 960 420Z" fill="white" fill-opacity="0.03"/>
<path d="M960 420C993.137 420 1020 446.863 1020 480C986.863 480 960 453.137 960 420Z" fill="white" fill-opacity="0.03"/>
<path d="M1080 420C1080 453.137 1053.14 480 1020 480C1020 446.863 1046.86 420 1080 420Z" fill="white" fill-opacity="0.03"/>
<path d="M1080 420C1113.14 420 1140 446.863 1140 480C1106.86 480 1080 453.137 1080 420Z" fill="white" fill-opacity="0.03"/>
<path d="M1200 420C1200 453.137 1173.14 480 1140 480C1140 446.863 1166.86 420 1200 420Z" fill="white" fill-opacity="0.03"/>
<path d="M1200 420C1233.14 420 1260 446.863 1260 480C1226.86 480 1200 453.137 1200 420Z" fill="white" fill-opacity="0.03"/>
<path d="M1320 420C1320 453.137 1293.14 480 1260 480C1260 446.863 1286.86 420 1320 420Z" fill="white" fill-opacity="0.03"/>
<path d="M1320 420C1353.14 420 1380 446.863 1380 480C1346.86 480 1320 453.137 1320 420Z" fill="white" fill-opacity="0.03"/>
<path d="M1440 420C1440 453.137 1413.14 480 1380 480C1380 446.863 1406.86 420 1440 420Z" fill="white" fill-opacity="0.03"/>
<path d="M1440 420C1473.14 420 1500 446.863 1500 480C1466.86 480 1440 453.137 1440 420Z" fill="white" fill-opacity="0.03"/>
<path d="M1560 420C1560 453.137 1533.14 480 1500 480C1500 446.863 1526.86 420 1560 420Z" fill="white" fill-opacity="0.03"/>
<path d="M1560 420C1593.14 420 1620 446.863 1620 480C1586.86 480 1560 453.137 1560 420Z" fill="white" fill-opacity="0.03"/>
<path d="M1680 420C1680 453.137 1653.14 480 1620 480C1620 446.863 1646.86 420 1680 420Z" fill="white" fill-opacity="0.03"/>
<path d="M1680 420C1713.14 420 1740 446.863 1740 480C1706.86 480 1680 453.137 1680 420Z" fill="white" fill-opacity="0.03"/>
<path d="M1800 420C1800 453.137 1773.14 480 1740 480C1740 446.863 1766.86 420 1800 420Z" fill="white" fill-opacity="0.03"/>
<path d="M1800 420C1833.14 420 1860 446.863 1860 480C1826.86 480 1800 453.137 1800 420Z" fill="white" fill-opacity="0.03"/>
<path d="M1920 420C1920 453.137 1893.14 480 1860 480C1860 446.863 1886.86 420 1920 420Z" fill="white" fill-opacity="0.03"/>
</svg>
