<svg width="1440" height="248" viewBox="0 0 1440 248" fill="none" xmlns="http://www.w3.org/2000/svg">
<path d="M1.8928e-07 -11C1.66e-07 -35.8528 20.1472 -56 45 -56C45 -31.1472 24.8528 -11 1.8928e-07 -11C8.44962e-07 -11 -4.66403e-07 -11 1.8928e-07 -11Z" fill="white" fill-opacity="0.03"/>
<path d="M90 -11C65.1472 -11 45 -31.1472 45 -56C69.8528 -56 90 -35.8528 90 -11Z" fill="white" fill-opacity="0.03"/>
<path d="M90 -11C90 -35.8528 110.147 -56 135 -56C135 -31.1472 114.853 -11 90 -11Z" fill="white" fill-opacity="0.03"/>
<path d="M180 -11C155.147 -11 135 -31.1472 135 -56C159.853 -56 180 -35.8528 180 -11Z" fill="white" fill-opacity="0.03"/>
<path d="M180 -11C180 -35.8528 200.147 -56 225 -56C225 -31.1472 204.853 -11 180 -11Z" fill="white" fill-opacity="0.03"/>
<path d="M270 -11C245.147 -11 225 -31.1472 225 -56C249.853 -56 270 -35.8528 270 -11Z" fill="white" fill-opacity="0.03"/>
<path d="M270 -11C270 -35.8528 290.147 -56 315 -56C315 -31.1472 294.853 -11 270 -11Z" fill="white" fill-opacity="0.03"/>
<path d="M360 -11C335.147 -11 315 -31.1472 315 -56C339.853 -56 360 -35.8528 360 -11Z" fill="white" fill-opacity="0.03"/>
<path d="M360 -11C360 -35.8528 380.147 -56 405 -56C405 -31.1472 384.853 -11 360 -11Z" fill="white" fill-opacity="0.03"/>
<path d="M450 -11C425.147 -11 405 -31.1472 405 -56C429.853 -56 450 -35.8528 450 -11Z" fill="white" fill-opacity="0.03"/>
<path d="M450 -11C450 -35.8528 470.147 -56 495 -56C495 -31.1472 474.853 -11 450 -11Z" fill="white" fill-opacity="0.03"/>
<path d="M540 -11C515.147 -11 495 -31.1472 495 -56C519.853 -56 540 -35.8528 540 -11Z" fill="white" fill-opacity="0.03"/>
<path d="M540 -11C540 -35.8528 560.147 -56 585 -56C585 -31.1472 564.853 -11 540 -11Z" fill="white" fill-opacity="0.03"/>
<path d="M630 -11C605.147 -11 585 -31.1472 585 -56C609.853 -56 630 -35.8528 630 -11Z" fill="white" fill-opacity="0.03"/>
<path d="M630 -11C630 -35.8528 650.147 -56 675 -56C675 -31.1472 654.853 -11 630 -11Z" fill="white" fill-opacity="0.03"/>
<path d="M720 -11C695.147 -11 675 -31.1472 675 -56C699.853 -56 720 -35.8528 720 -11Z" fill="white" fill-opacity="0.03"/>
<path d="M720 -11C720 -35.8528 740.147 -56 765 -56C765 -31.1472 744.853 -11 720 -11Z" fill="white" fill-opacity="0.03"/>
<path d="M810 -11C785.147 -11 765 -31.1472 765 -56C789.853 -56 810 -35.8528 810 -11Z" fill="white" fill-opacity="0.03"/>
<path d="M810 -11C810 -35.8528 830.147 -56 855 -56C855 -31.1472 834.853 -11 810 -11Z" fill="white" fill-opacity="0.03"/>
<path d="M900 -11C875.147 -11 855 -31.1472 855 -56C879.853 -56 900 -35.8528 900 -11Z" fill="white" fill-opacity="0.03"/>
<path d="M900 -11C900 -35.8528 920.147 -56 945 -56C945 -31.1472 924.853 -11 900 -11Z" fill="white" fill-opacity="0.03"/>
<path d="M990 -11C965.147 -11 945 -31.1472 945 -56C969.853 -56 990 -35.8528 990 -11Z" fill="white" fill-opacity="0.03"/>
<path d="M990 -11C990 -35.8528 1010.15 -56 1035 -56C1035 -31.1472 1014.85 -11 990 -11Z" fill="white" fill-opacity="0.03"/>
<path d="M1080 -11C1055.15 -11 1035 -31.1472 1035 -56C1059.85 -56 1080 -35.8528 1080 -11Z" fill="white" fill-opacity="0.03"/>
<path d="M1080 -11C1080 -35.8528 1100.15 -56 1125 -56C1125 -31.1472 1104.85 -11 1080 -11Z" fill="white" fill-opacity="0.03"/>
<path d="M1170 -11C1145.15 -11 1125 -31.1472 1125 -56C1149.85 -56 1170 -35.8528 1170 -11Z" fill="white" fill-opacity="0.03"/>
<path d="M1170 -11C1170 -35.8528 1190.15 -56 1215 -56C1215 -31.1472 1194.85 -11 1170 -11Z" fill="white" fill-opacity="0.03"/>
<path d="M1260 -11C1235.15 -11 1215 -31.1472 1215 -56C1239.85 -56 1260 -35.8528 1260 -11Z" fill="white" fill-opacity="0.03"/>
<path d="M1260 -11C1260 -35.8528 1280.15 -56 1305 -56C1305 -31.1472 1284.85 -11 1260 -11Z" fill="white" fill-opacity="0.03"/>
<path d="M1350 -11C1325.15 -11 1305 -31.1472 1305 -56C1329.85 -56 1350 -35.8528 1350 -11Z" fill="white" fill-opacity="0.03"/>
<path d="M1350 -11C1350 -35.8528 1370.15 -56 1395 -56C1395 -31.1472 1374.85 -11 1350 -11Z" fill="white" fill-opacity="0.03"/>
<path d="M1440 -11C1415.15 -11 1395 -31.1472 1395 -56C1419.85 -56 1440 -35.8528 1440 -11Z" fill="white" fill-opacity="0.03"/>
<path d="M1.8928e-07 -11C24.8528 -11 45 9.14718 45 34C20.1472 34 1.8928e-07 13.8528 1.8928e-07 -11C8.44962e-07 -11 -4.66403e-07 -11 1.8928e-07 -11Z" fill="white" fill-opacity="0.03"/>
<path d="M90 -11C90 13.8528 69.8528 34 45 34C45 9.14719 65.1472 -11 90 -11Z" fill="white" fill-opacity="0.03"/>
<path d="M90 -11C114.853 -11 135 9.14718 135 34C110.147 34 90 13.8528 90 -11Z" fill="white" fill-opacity="0.03"/>
<path d="M180 -11C180 13.8528 159.853 34 135 34C135 9.14719 155.147 -11 180 -11Z" fill="white" fill-opacity="0.03"/>
<path d="M180 -11C204.853 -11 225 9.14718 225 34C200.147 34 180 13.8528 180 -11Z" fill="white" fill-opacity="0.03"/>
<path d="M270 -11C270 13.8528 249.853 34 225 34C225 9.14719 245.147 -11 270 -11Z" fill="white" fill-opacity="0.03"/>
<path d="M270 -11C294.853 -11 315 9.14718 315 34C290.147 34 270 13.8528 270 -11Z" fill="white" fill-opacity="0.03"/>
<path d="M360 -11C360 13.8528 339.853 34 315 34C315 9.14719 335.147 -11 360 -11Z" fill="white" fill-opacity="0.03"/>
<path d="M360 -11C384.853 -11 405 9.14718 405 34C380.147 34 360 13.8528 360 -11Z" fill="white" fill-opacity="0.03"/>
<path d="M450 -11C450 13.8528 429.853 34 405 34C405 9.14719 425.147 -11 450 -11Z" fill="white" fill-opacity="0.03"/>
<path d="M450 -11C474.853 -11 495 9.14718 495 34C470.147 34 450 13.8528 450 -11Z" fill="white" fill-opacity="0.03"/>
<path d="M540 -11C540 13.8528 519.853 34 495 34C495 9.14719 515.147 -11 540 -11Z" fill="white" fill-opacity="0.03"/>
<path d="M540 -11C564.853 -11 585 9.14718 585 34C560.147 34 540 13.8528 540 -11Z" fill="white" fill-opacity="0.03"/>
<path d="M630 -11C630 13.8528 609.853 34 585 34C585 9.14719 605.147 -11 630 -11Z" fill="white" fill-opacity="0.03"/>
<path d="M630 -11C654.853 -11 675 9.14718 675 34C650.147 34 630 13.8528 630 -11Z" fill="white" fill-opacity="0.03"/>
<path d="M720 -11C720 13.8528 699.853 34 675 34C675 9.14719 695.147 -11 720 -11Z" fill="white" fill-opacity="0.03"/>
<path d="M720 -11C744.853 -11 765 9.14718 765 34C740.147 34 720 13.8528 720 -11Z" fill="white" fill-opacity="0.03"/>
<path d="M810 -11C810 13.8528 789.853 34 765 34C765 9.14719 785.147 -11 810 -11Z" fill="white" fill-opacity="0.03"/>
<path d="M810 -11C834.853 -11 855 9.14718 855 34C830.147 34 810 13.8528 810 -11Z" fill="white" fill-opacity="0.03"/>
<path d="M900 -11C900 13.8528 879.853 34 855 34C855 9.14719 875.147 -11 900 -11Z" fill="white" fill-opacity="0.03"/>
<path d="M900 -11C924.853 -11 945 9.14718 945 34C920.147 34 900 13.8528 900 -11Z" fill="white" fill-opacity="0.03"/>
<path d="M990 -11C990 13.8528 969.853 34 945 34C945 9.14719 965.147 -11 990 -11Z" fill="white" fill-opacity="0.03"/>
<path d="M990 -11C1014.85 -11 1035 9.14718 1035 34C1010.15 34 990 13.8528 990 -11Z" fill="white" fill-opacity="0.03"/>
<path d="M1080 -11C1080 13.8528 1059.85 34 1035 34C1035 9.14719 1055.15 -11 1080 -11Z" fill="white" fill-opacity="0.03"/>
<path d="M1080 -11C1104.85 -11 1125 9.14718 1125 34C1100.15 34 1080 13.8528 1080 -11Z" fill="white" fill-opacity="0.03"/>
<path d="M1170 -11C1170 13.8528 1149.85 34 1125 34C1125 9.14719 1145.15 -11 1170 -11Z" fill="white" fill-opacity="0.03"/>
<path d="M1170 -11C1194.85 -11 1215 9.14718 1215 34C1190.15 34 1170 13.8528 1170 -11Z" fill="white" fill-opacity="0.03"/>
<path d="M1260 -11C1260 13.8528 1239.85 34 1215 34C1215 9.14719 1235.15 -11 1260 -11Z" fill="white" fill-opacity="0.03"/>
<path d="M1260 -11C1284.85 -11 1305 9.14718 1305 34C1280.15 34 1260 13.8528 1260 -11Z" fill="white" fill-opacity="0.03"/>
<path d="M1350 -11C1350 13.8528 1329.85 34 1305 34C1305 9.14719 1325.15 -11 1350 -11Z" fill="white" fill-opacity="0.03"/>
<path d="M1350 -11C1374.85 -11 1395 9.14718 1395 34C1370.15 34 1350 13.8528 1350 -11Z" fill="white" fill-opacity="0.03"/>
<path d="M1440 -11C1440 13.8528 1419.85 34 1395 34C1395 9.14719 1415.15 -11 1440 -11Z" fill="white" fill-opacity="0.03"/>
<path d="M1.8928e-07 79C1.66e-07 54.1472 20.1472 34 45 34C45 58.8528 24.8528 79 1.8928e-07 79C8.44962e-07 79 -4.66403e-07 79 1.8928e-07 79Z" fill="white" fill-opacity="0.03"/>
<path d="M90 79C65.1472 79 45 58.8528 45 34C69.8528 34 90 54.1472 90 79Z" fill="white" fill-opacity="0.03"/>
<path d="M90 79C90 54.1472 110.147 34 135 34C135 58.8528 114.853 79 90 79Z" fill="white" fill-opacity="0.03"/>
<path d="M180 79C155.147 79 135 58.8528 135 34C159.853 34 180 54.1472 180 79Z" fill="white" fill-opacity="0.03"/>
<path d="M180 79C180 54.1472 200.147 34 225 34C225 58.8528 204.853 79 180 79Z" fill="white" fill-opacity="0.03"/>
<path d="M270 79C245.147 79 225 58.8528 225 34C249.853 34 270 54.1472 270 79Z" fill="white" fill-opacity="0.03"/>
<path d="M270 79C270 54.1472 290.147 34 315 34C315 58.8528 294.853 79 270 79Z" fill="white" fill-opacity="0.03"/>
<path d="M360 79C335.147 79 315 58.8528 315 34C339.853 34 360 54.1472 360 79Z" fill="white" fill-opacity="0.03"/>
<path d="M360 79C360 54.1472 380.147 34 405 34C405 58.8528 384.853 79 360 79Z" fill="white" fill-opacity="0.03"/>
<path d="M450 79C425.147 79 405 58.8528 405 34C429.853 34 450 54.1472 450 79Z" fill="white" fill-opacity="0.03"/>
<path d="M450 79C450 54.1472 470.147 34 495 34C495 58.8528 474.853 79 450 79Z" fill="white" fill-opacity="0.03"/>
<path d="M540 79C515.147 79 495 58.8528 495 34C519.853 34 540 54.1472 540 79Z" fill="white" fill-opacity="0.03"/>
<path d="M540 79C540 54.1472 560.147 34 585 34C585 58.8528 564.853 79 540 79Z" fill="white" fill-opacity="0.03"/>
<path d="M630 79C605.147 79 585 58.8528 585 34C609.853 34 630 54.1472 630 79Z" fill="white" fill-opacity="0.03"/>
<path d="M630 79C630 54.1472 650.147 34 675 34C675 58.8528 654.853 79 630 79Z" fill="white" fill-opacity="0.03"/>
<path d="M720 79C695.147 79 675 58.8528 675 34C699.853 34 720 54.1472 720 79Z" fill="white" fill-opacity="0.03"/>
<path d="M720 79C720 54.1472 740.147 34 765 34C765 58.8528 744.853 79 720 79Z" fill="white" fill-opacity="0.03"/>
<path d="M810 79C785.147 79 765 58.8528 765 34C789.853 34 810 54.1472 810 79Z" fill="white" fill-opacity="0.03"/>
<path d="M810 79C810 54.1472 830.147 34 855 34C855 58.8528 834.853 79 810 79Z" fill="white" fill-opacity="0.03"/>
<path d="M900 79C875.147 79 855 58.8528 855 34C879.853 34 900 54.1472 900 79Z" fill="white" fill-opacity="0.03"/>
<path d="M900 79C900 54.1472 920.147 34 945 34C945 58.8528 924.853 79 900 79Z" fill="white" fill-opacity="0.03"/>
<path d="M990 79C965.147 79 945 58.8528 945 34C969.853 34 990 54.1472 990 79Z" fill="white" fill-opacity="0.03"/>
<path d="M990 79C990 54.1472 1010.15 34 1035 34C1035 58.8528 1014.85 79 990 79Z" fill="white" fill-opacity="0.03"/>
<path d="M1080 79C1055.15 79 1035 58.8528 1035 34C1059.85 34 1080 54.1472 1080 79Z" fill="white" fill-opacity="0.03"/>
<path d="M1080 79C1080 54.1472 1100.15 34 1125 34C1125 58.8528 1104.85 79 1080 79Z" fill="white" fill-opacity="0.03"/>
<path d="M1170 79C1145.15 79 1125 58.8528 1125 34C1149.85 34 1170 54.1472 1170 79Z" fill="white" fill-opacity="0.03"/>
<path d="M1170 79C1170 54.1472 1190.15 34 1215 34C1215 58.8528 1194.85 79 1170 79Z" fill="white" fill-opacity="0.03"/>
<path d="M1260 79C1235.15 79 1215 58.8528 1215 34C1239.85 34 1260 54.1472 1260 79Z" fill="white" fill-opacity="0.03"/>
<path d="M1260 79C1260 54.1472 1280.15 34 1305 34C1305 58.8528 1284.85 79 1260 79Z" fill="white" fill-opacity="0.03"/>
<path d="M1350 79C1325.15 79 1305 58.8528 1305 34C1329.85 34 1350 54.1472 1350 79Z" fill="white" fill-opacity="0.03"/>
<path d="M1350 79C1350 54.1472 1370.15 34 1395 34C1395 58.8528 1374.85 79 1350 79Z" fill="white" fill-opacity="0.03"/>
<path d="M1440 79C1415.15 79 1395 58.8528 1395 34C1419.85 34 1440 54.1472 1440 79Z" fill="white" fill-opacity="0.03"/>
<path d="M1.8928e-07 79C24.8528 79 45 99.1472 45 124C20.1472 124 1.8928e-07 103.853 1.8928e-07 79C8.44962e-07 79 -4.66403e-07 79 1.8928e-07 79Z" fill="white" fill-opacity="0.03"/>
<path d="M90 79C90 103.853 69.8528 124 45 124C45 99.1472 65.1472 79 90 79Z" fill="white" fill-opacity="0.03"/>
<path d="M90 79C114.853 79 135 99.1472 135 124C110.147 124 90 103.853 90 79Z" fill="white" fill-opacity="0.03"/>
<path d="M180 79C180 103.853 159.853 124 135 124C135 99.1472 155.147 79 180 79Z" fill="white" fill-opacity="0.03"/>
<path d="M180 79C204.853 79 225 99.1472 225 124C200.147 124 180 103.853 180 79Z" fill="white" fill-opacity="0.03"/>
<path d="M270 79C270 103.853 249.853 124 225 124C225 99.1472 245.147 79 270 79Z" fill="white" fill-opacity="0.03"/>
<path d="M270 79C294.853 79 315 99.1472 315 124C290.147 124 270 103.853 270 79Z" fill="white" fill-opacity="0.03"/>
<path d="M360 79C360 103.853 339.853 124 315 124C315 99.1472 335.147 79 360 79Z" fill="white" fill-opacity="0.03"/>
<path d="M360 79C384.853 79 405 99.1472 405 124C380.147 124 360 103.853 360 79Z" fill="white" fill-opacity="0.03"/>
<path d="M450 79C450 103.853 429.853 124 405 124C405 99.1472 425.147 79 450 79Z" fill="white" fill-opacity="0.03"/>
<path d="M450 79C474.853 79 495 99.1472 495 124C470.147 124 450 103.853 450 79Z" fill="white" fill-opacity="0.03"/>
<path d="M540 79C540 103.853 519.853 124 495 124C495 99.1472 515.147 79 540 79Z" fill="white" fill-opacity="0.03"/>
<path d="M540 79C564.853 79 585 99.1472 585 124C560.147 124 540 103.853 540 79Z" fill="white" fill-opacity="0.03"/>
<path d="M630 79C630 103.853 609.853 124 585 124C585 99.1472 605.147 79 630 79Z" fill="white" fill-opacity="0.03"/>
<path d="M630 79C654.853 79 675 99.1472 675 124C650.147 124 630 103.853 630 79Z" fill="white" fill-opacity="0.03"/>
<path d="M720 79C720 103.853 699.853 124 675 124C675 99.1472 695.147 79 720 79Z" fill="white" fill-opacity="0.03"/>
<path d="M720 79C744.853 79 765 99.1472 765 124C740.147 124 720 103.853 720 79Z" fill="white" fill-opacity="0.03"/>
<path d="M810 79C810 103.853 789.853 124 765 124C765 99.1472 785.147 79 810 79Z" fill="white" fill-opacity="0.03"/>
<path d="M810 79C834.853 79 855 99.1472 855 124C830.147 124 810 103.853 810 79Z" fill="white" fill-opacity="0.03"/>
<path d="M900 79C900 103.853 879.853 124 855 124C855 99.1472 875.147 79 900 79Z" fill="white" fill-opacity="0.03"/>
<path d="M900 79C924.853 79 945 99.1472 945 124C920.147 124 900 103.853 900 79Z" fill="white" fill-opacity="0.03"/>
<path d="M990 79C990 103.853 969.853 124 945 124C945 99.1472 965.147 79 990 79Z" fill="white" fill-opacity="0.03"/>
<path d="M990 79C1014.85 79 1035 99.1472 1035 124C1010.15 124 990 103.853 990 79Z" fill="white" fill-opacity="0.03"/>
<path d="M1080 79C1080 103.853 1059.85 124 1035 124C1035 99.1472 1055.15 79 1080 79Z" fill="white" fill-opacity="0.03"/>
<path d="M1080 79C1104.85 79 1125 99.1472 1125 124C1100.15 124 1080 103.853 1080 79Z" fill="white" fill-opacity="0.03"/>
<path d="M1170 79C1170 103.853 1149.85 124 1125 124C1125 99.1472 1145.15 79 1170 79Z" fill="white" fill-opacity="0.03"/>
<path d="M1170 79C1194.85 79 1215 99.1472 1215 124C1190.15 124 1170 103.853 1170 79Z" fill="white" fill-opacity="0.03"/>
<path d="M1260 79C1260 103.853 1239.85 124 1215 124C1215 99.1472 1235.15 79 1260 79Z" fill="white" fill-opacity="0.03"/>
<path d="M1260 79C1284.85 79 1305 99.1472 1305 124C1280.15 124 1260 103.853 1260 79Z" fill="white" fill-opacity="0.03"/>
<path d="M1350 79C1350 103.853 1329.85 124 1305 124C1305 99.1472 1325.15 79 1350 79Z" fill="white" fill-opacity="0.03"/>
<path d="M1350 79C1374.85 79 1395 99.1472 1395 124C1370.15 124 1350 103.853 1350 79Z" fill="white" fill-opacity="0.03"/>
<path d="M1440 79C1440 103.853 1419.85 124 1395 124C1395 99.1472 1415.15 79 1440 79Z" fill="white" fill-opacity="0.03"/>
<path d="M1.8928e-07 169C1.66e-07 144.147 20.1472 124 45 124C45 148.853 24.8528 169 1.8928e-07 169C8.44962e-07 169 -4.66403e-07 169 1.8928e-07 169Z" fill="white" fill-opacity="0.03"/>
<path d="M90 169C65.1472 169 45 148.853 45 124C69.8528 124 90 144.147 90 169Z" fill="white" fill-opacity="0.03"/>
<path d="M90 169C90 144.147 110.147 124 135 124C135 148.853 114.853 169 90 169Z" fill="white" fill-opacity="0.03"/>
<path d="M180 169C155.147 169 135 148.853 135 124C159.853 124 180 144.147 180 169Z" fill="white" fill-opacity="0.03"/>
<path d="M180 169C180 144.147 200.147 124 225 124C225 148.853 204.853 169 180 169Z" fill="white" fill-opacity="0.03"/>
<path d="M270 169C245.147 169 225 148.853 225 124C249.853 124 270 144.147 270 169Z" fill="white" fill-opacity="0.03"/>
<path d="M270 169C270 144.147 290.147 124 315 124C315 148.853 294.853 169 270 169Z" fill="white" fill-opacity="0.03"/>
<path d="M360 169C335.147 169 315 148.853 315 124C339.853 124 360 144.147 360 169Z" fill="white" fill-opacity="0.03"/>
<path d="M360 169C360 144.147 380.147 124 405 124C405 148.853 384.853 169 360 169Z" fill="white" fill-opacity="0.03"/>
<path d="M450 169C425.147 169 405 148.853 405 124C429.853 124 450 144.147 450 169Z" fill="white" fill-opacity="0.03"/>
<path d="M450 169C450 144.147 470.147 124 495 124C495 148.853 474.853 169 450 169Z" fill="white" fill-opacity="0.03"/>
<path d="M540 169C515.147 169 495 148.853 495 124C519.853 124 540 144.147 540 169Z" fill="white" fill-opacity="0.03"/>
<path d="M540 169C540 144.147 560.147 124 585 124C585 148.853 564.853 169 540 169Z" fill="white" fill-opacity="0.03"/>
<path d="M630 169C605.147 169 585 148.853 585 124C609.853 124 630 144.147 630 169Z" fill="white" fill-opacity="0.03"/>
<path d="M630 169C630 144.147 650.147 124 675 124C675 148.853 654.853 169 630 169Z" fill="white" fill-opacity="0.03"/>
<path d="M720 169C695.147 169 675 148.853 675 124C699.853 124 720 144.147 720 169Z" fill="white" fill-opacity="0.03"/>
<path d="M720 169C720 144.147 740.147 124 765 124C765 148.853 744.853 169 720 169Z" fill="white" fill-opacity="0.03"/>
<path d="M810 169C785.147 169 765 148.853 765 124C789.853 124 810 144.147 810 169Z" fill="white" fill-opacity="0.03"/>
<path d="M810 169C810 144.147 830.147 124 855 124C855 148.853 834.853 169 810 169Z" fill="white" fill-opacity="0.03"/>
<path d="M900 169C875.147 169 855 148.853 855 124C879.853 124 900 144.147 900 169Z" fill="white" fill-opacity="0.03"/>
<path d="M900 169C900 144.147 920.147 124 945 124C945 148.853 924.853 169 900 169Z" fill="white" fill-opacity="0.03"/>
<path d="M990 169C965.147 169 945 148.853 945 124C969.853 124 990 144.147 990 169Z" fill="white" fill-opacity="0.03"/>
<path d="M990 169C990 144.147 1010.15 124 1035 124C1035 148.853 1014.85 169 990 169Z" fill="white" fill-opacity="0.03"/>
<path d="M1080 169C1055.15 169 1035 148.853 1035 124C1059.85 124 1080 144.147 1080 169Z" fill="white" fill-opacity="0.03"/>
<path d="M1080 169C1080 144.147 1100.15 124 1125 124C1125 148.853 1104.85 169 1080 169Z" fill="white" fill-opacity="0.03"/>
<path d="M1170 169C1145.15 169 1125 148.853 1125 124C1149.85 124 1170 144.147 1170 169Z" fill="white" fill-opacity="0.03"/>
<path d="M1170 169C1170 144.147 1190.15 124 1215 124C1215 148.853 1194.85 169 1170 169Z" fill="white" fill-opacity="0.03"/>
<path d="M1260 169C1235.15 169 1215 148.853 1215 124C1239.85 124 1260 144.147 1260 169Z" fill="white" fill-opacity="0.03"/>
<path d="M1260 169C1260 144.147 1280.15 124 1305 124C1305 148.853 1284.85 169 1260 169Z" fill="white" fill-opacity="0.03"/>
<path d="M1350 169C1325.15 169 1305 148.853 1305 124C1329.85 124 1350 144.147 1350 169Z" fill="white" fill-opacity="0.03"/>
<path d="M1350 169C1350 144.147 1370.15 124 1395 124C1395 148.853 1374.85 169 1350 169Z" fill="white" fill-opacity="0.03"/>
<path d="M1440 169C1415.15 169 1395 148.853 1395 124C1419.85 124 1440 144.147 1440 169Z" fill="white" fill-opacity="0.03"/>
<path d="M1.8928e-07 169C24.8528 169 45 189.147 45 214C20.1472 214 1.8928e-07 193.853 1.8928e-07 169C8.44962e-07 169 -4.66403e-07 169 1.8928e-07 169Z" fill="white" fill-opacity="0.03"/>
<path d="M90 169C90 193.853 69.8528 214 45 214C45 189.147 65.1472 169 90 169Z" fill="white" fill-opacity="0.03"/>
<path d="M90 169C114.853 169 135 189.147 135 214C110.147 214 90 193.853 90 169Z" fill="white" fill-opacity="0.03"/>
<path d="M180 169C180 193.853 159.853 214 135 214C135 189.147 155.147 169 180 169Z" fill="white" fill-opacity="0.03"/>
<path d="M180 169C204.853 169 225 189.147 225 214C200.147 214 180 193.853 180 169Z" fill="white" fill-opacity="0.03"/>
<path d="M270 169C270 193.853 249.853 214 225 214C225 189.147 245.147 169 270 169Z" fill="white" fill-opacity="0.03"/>
<path d="M270 169C294.853 169 315 189.147 315 214C290.147 214 270 193.853 270 169Z" fill="white" fill-opacity="0.03"/>
<path d="M360 169C360 193.853 339.853 214 315 214C315 189.147 335.147 169 360 169Z" fill="white" fill-opacity="0.03"/>
<path d="M360 169C384.853 169 405 189.147 405 214C380.147 214 360 193.853 360 169Z" fill="white" fill-opacity="0.03"/>
<path d="M450 169C450 193.853 429.853 214 405 214C405 189.147 425.147 169 450 169Z" fill="white" fill-opacity="0.03"/>
<path d="M450 169C474.853 169 495 189.147 495 214C470.147 214 450 193.853 450 169Z" fill="white" fill-opacity="0.03"/>
<path d="M540 169C540 193.853 519.853 214 495 214C495 189.147 515.147 169 540 169Z" fill="white" fill-opacity="0.03"/>
<path d="M540 169C564.853 169 585 189.147 585 214C560.147 214 540 193.853 540 169Z" fill="white" fill-opacity="0.03"/>
<path d="M630 169C630 193.853 609.853 214 585 214C585 189.147 605.147 169 630 169Z" fill="white" fill-opacity="0.03"/>
<path d="M630 169C654.853 169 675 189.147 675 214C650.147 214 630 193.853 630 169Z" fill="white" fill-opacity="0.03"/>
<path d="M720 169C720 193.853 699.853 214 675 214C675 189.147 695.147 169 720 169Z" fill="white" fill-opacity="0.03"/>
<path d="M720 169C744.853 169 765 189.147 765 214C740.147 214 720 193.853 720 169Z" fill="white" fill-opacity="0.03"/>
<path d="M810 169C810 193.853 789.853 214 765 214C765 189.147 785.147 169 810 169Z" fill="white" fill-opacity="0.03"/>
<path d="M810 169C834.853 169 855 189.147 855 214C830.147 214 810 193.853 810 169Z" fill="white" fill-opacity="0.03"/>
<path d="M900 169C900 193.853 879.853 214 855 214C855 189.147 875.147 169 900 169Z" fill="white" fill-opacity="0.03"/>
<path d="M900 169C924.853 169 945 189.147 945 214C920.147 214 900 193.853 900 169Z" fill="white" fill-opacity="0.03"/>
<path d="M990 169C990 193.853 969.853 214 945 214C945 189.147 965.147 169 990 169Z" fill="white" fill-opacity="0.03"/>
<path d="M990 169C1014.85 169 1035 189.147 1035 214C1010.15 214 990 193.853 990 169Z" fill="white" fill-opacity="0.03"/>
<path d="M1080 169C1080 193.853 1059.85 214 1035 214C1035 189.147 1055.15 169 1080 169Z" fill="white" fill-opacity="0.03"/>
<path d="M1080 169C1104.85 169 1125 189.147 1125 214C1100.15 214 1080 193.853 1080 169Z" fill="white" fill-opacity="0.03"/>
<path d="M1170 169C1170 193.853 1149.85 214 1125 214C1125 189.147 1145.15 169 1170 169Z" fill="white" fill-opacity="0.03"/>
<path d="M1170 169C1194.85 169 1215 189.147 1215 214C1190.15 214 1170 193.853 1170 169Z" fill="white" fill-opacity="0.03"/>
<path d="M1260 169C1260 193.853 1239.85 214 1215 214C1215 189.147 1235.15 169 1260 169Z" fill="white" fill-opacity="0.03"/>
<path d="M1260 169C1284.85 169 1305 189.147 1305 214C1280.15 214 1260 193.853 1260 169Z" fill="white" fill-opacity="0.03"/>
<path d="M1350 169C1350 193.853 1329.85 214 1305 214C1305 189.147 1325.15 169 1350 169Z" fill="white" fill-opacity="0.03"/>
<path d="M1350 169C1374.85 169 1395 189.147 1395 214C1370.15 214 1350 193.853 1350 169Z" fill="white" fill-opacity="0.03"/>
<path d="M1440 169C1440 193.853 1419.85 214 1395 214C1395 189.147 1415.15 169 1440 169Z" fill="white" fill-opacity="0.03"/>
<path d="M1.8928e-07 259C1.66e-07 234.147 20.1472 214 45 214C45 238.853 24.8528 259 1.8928e-07 259C8.44962e-07 259 -4.66403e-07 259 1.8928e-07 259Z" fill="white" fill-opacity="0.03"/>
<path d="M90 259C65.1472 259 45 238.853 45 214C69.8528 214 90 234.147 90 259Z" fill="white" fill-opacity="0.03"/>
<path d="M90 259C90 234.147 110.147 214 135 214C135 238.853 114.853 259 90 259Z" fill="white" fill-opacity="0.03"/>
<path d="M180 259C155.147 259 135 238.853 135 214C159.853 214 180 234.147 180 259Z" fill="white" fill-opacity="0.03"/>
<path d="M180 259C180 234.147 200.147 214 225 214C225 238.853 204.853 259 180 259Z" fill="white" fill-opacity="0.03"/>
<path d="M270 259C245.147 259 225 238.853 225 214C249.853 214 270 234.147 270 259Z" fill="white" fill-opacity="0.03"/>
<path d="M270 259C270 234.147 290.147 214 315 214C315 238.853 294.853 259 270 259Z" fill="white" fill-opacity="0.03"/>
<path d="M360 259C335.147 259 315 238.853 315 214C339.853 214 360 234.147 360 259Z" fill="white" fill-opacity="0.03"/>
<path d="M360 259C360 234.147 380.147 214 405 214C405 238.853 384.853 259 360 259Z" fill="white" fill-opacity="0.03"/>
<path d="M450 259C425.147 259 405 238.853 405 214C429.853 214 450 234.147 450 259Z" fill="white" fill-opacity="0.03"/>
<path d="M450 259C450 234.147 470.147 214 495 214C495 238.853 474.853 259 450 259Z" fill="white" fill-opacity="0.03"/>
<path d="M540 259C515.147 259 495 238.853 495 214C519.853 214 540 234.147 540 259Z" fill="white" fill-opacity="0.03"/>
<path d="M540 259C540 234.147 560.147 214 585 214C585 238.853 564.853 259 540 259Z" fill="white" fill-opacity="0.03"/>
<path d="M630 259C605.147 259 585 238.853 585 214C609.853 214 630 234.147 630 259Z" fill="white" fill-opacity="0.03"/>
<path d="M630 259C630 234.147 650.147 214 675 214C675 238.853 654.853 259 630 259Z" fill="white" fill-opacity="0.03"/>
<path d="M720 259C695.147 259 675 238.853 675 214C699.853 214 720 234.147 720 259Z" fill="white" fill-opacity="0.03"/>
<path d="M720 259C720 234.147 740.147 214 765 214C765 238.853 744.853 259 720 259Z" fill="white" fill-opacity="0.03"/>
<path d="M810 259C785.147 259 765 238.853 765 214C789.853 214 810 234.147 810 259Z" fill="white" fill-opacity="0.03"/>
<path d="M810 259C810 234.147 830.147 214 855 214C855 238.853 834.853 259 810 259Z" fill="white" fill-opacity="0.03"/>
<path d="M900 259C875.147 259 855 238.853 855 214C879.853 214 900 234.147 900 259Z" fill="white" fill-opacity="0.03"/>
<path d="M900 259C900 234.147 920.147 214 945 214C945 238.853 924.853 259 900 259Z" fill="white" fill-opacity="0.03"/>
<path d="M990 259C965.147 259 945 238.853 945 214C969.853 214 990 234.147 990 259Z" fill="white" fill-opacity="0.03"/>
<path d="M990 259C990 234.147 1010.15 214 1035 214C1035 238.853 1014.85 259 990 259Z" fill="white" fill-opacity="0.03"/>
<path d="M1080 259C1055.15 259 1035 238.853 1035 214C1059.85 214 1080 234.147 1080 259Z" fill="white" fill-opacity="0.03"/>
<path d="M1080 259C1080 234.147 1100.15 214 1125 214C1125 238.853 1104.85 259 1080 259Z" fill="white" fill-opacity="0.03"/>
<path d="M1170 259C1145.15 259 1125 238.853 1125 214C1149.85 214 1170 234.147 1170 259Z" fill="white" fill-opacity="0.03"/>
<path d="M1170 259C1170 234.147 1190.15 214 1215 214C1215 238.853 1194.85 259 1170 259Z" fill="white" fill-opacity="0.03"/>
<path d="M1260 259C1235.15 259 1215 238.853 1215 214C1239.85 214 1260 234.147 1260 259Z" fill="white" fill-opacity="0.03"/>
<path d="M1260 259C1260 234.147 1280.15 214 1305 214C1305 238.853 1284.85 259 1260 259Z" fill="white" fill-opacity="0.03"/>
<path d="M1350 259C1325.15 259 1305 238.853 1305 214C1329.85 214 1350 234.147 1350 259Z" fill="white" fill-opacity="0.03"/>
<path d="M1350 259C1350 234.147 1370.15 214 1395 214C1395 238.853 1374.85 259 1350 259Z" fill="white" fill-opacity="0.03"/>
<path d="M1440 259C1415.15 259 1395 238.853 1395 214C1419.85 214 1440 234.147 1440 259Z" fill="white" fill-opacity="0.03"/>
<path d="M1.8928e-07 259C24.8528 259 45 279.147 45 304C20.1472 304 1.8928e-07 283.853 1.8928e-07 259C8.44962e-07 259 -4.66403e-07 259 1.8928e-07 259Z" fill="white" fill-opacity="0.03"/>
<path d="M90 259C90 283.853 69.8528 304 45 304C45 279.147 65.1472 259 90 259Z" fill="white" fill-opacity="0.03"/>
<path d="M90 259C114.853 259 135 279.147 135 304C110.147 304 90 283.853 90 259Z" fill="white" fill-opacity="0.03"/>
<path d="M180 259C180 283.853 159.853 304 135 304C135 279.147 155.147 259 180 259Z" fill="white" fill-opacity="0.03"/>
<path d="M180 259C204.853 259 225 279.147 225 304C200.147 304 180 283.853 180 259Z" fill="white" fill-opacity="0.03"/>
<path d="M270 259C270 283.853 249.853 304 225 304C225 279.147 245.147 259 270 259Z" fill="white" fill-opacity="0.03"/>
<path d="M270 259C294.853 259 315 279.147 315 304C290.147 304 270 283.853 270 259Z" fill="white" fill-opacity="0.03"/>
<path d="M360 259C360 283.853 339.853 304 315 304C315 279.147 335.147 259 360 259Z" fill="white" fill-opacity="0.03"/>
<path d="M360 259C384.853 259 405 279.147 405 304C380.147 304 360 283.853 360 259Z" fill="white" fill-opacity="0.03"/>
<path d="M450 259C450 283.853 429.853 304 405 304C405 279.147 425.147 259 450 259Z" fill="white" fill-opacity="0.03"/>
<path d="M450 259C474.853 259 495 279.147 495 304C470.147 304 450 283.853 450 259Z" fill="white" fill-opacity="0.03"/>
<path d="M540 259C540 283.853 519.853 304 495 304C495 279.147 515.147 259 540 259Z" fill="white" fill-opacity="0.03"/>
<path d="M540 259C564.853 259 585 279.147 585 304C560.147 304 540 283.853 540 259Z" fill="white" fill-opacity="0.03"/>
<path d="M630 259C630 283.853 609.853 304 585 304C585 279.147 605.147 259 630 259Z" fill="white" fill-opacity="0.03"/>
<path d="M630 259C654.853 259 675 279.147 675 304C650.147 304 630 283.853 630 259Z" fill="white" fill-opacity="0.03"/>
<path d="M720 259C720 283.853 699.853 304 675 304C675 279.147 695.147 259 720 259Z" fill="white" fill-opacity="0.03"/>
<path d="M720 259C744.853 259 765 279.147 765 304C740.147 304 720 283.853 720 259Z" fill="white" fill-opacity="0.03"/>
<path d="M810 259C810 283.853 789.853 304 765 304C765 279.147 785.147 259 810 259Z" fill="white" fill-opacity="0.03"/>
<path d="M810 259C834.853 259 855 279.147 855 304C830.147 304 810 283.853 810 259Z" fill="white" fill-opacity="0.03"/>
<path d="M900 259C900 283.853 879.853 304 855 304C855 279.147 875.147 259 900 259Z" fill="white" fill-opacity="0.03"/>
<path d="M900 259C924.853 259 945 279.147 945 304C920.147 304 900 283.853 900 259Z" fill="white" fill-opacity="0.03"/>
<path d="M990 259C990 283.853 969.853 304 945 304C945 279.147 965.147 259 990 259Z" fill="white" fill-opacity="0.03"/>
<path d="M990 259C1014.85 259 1035 279.147 1035 304C1010.15 304 990 283.853 990 259Z" fill="white" fill-opacity="0.03"/>
<path d="M1080 259C1080 283.853 1059.85 304 1035 304C1035 279.147 1055.15 259 1080 259Z" fill="white" fill-opacity="0.03"/>
<path d="M1080 259C1104.85 259 1125 279.147 1125 304C1100.15 304 1080 283.853 1080 259Z" fill="white" fill-opacity="0.03"/>
<path d="M1170 259C1170 283.853 1149.85 304 1125 304C1125 279.147 1145.15 259 1170 259Z" fill="white" fill-opacity="0.03"/>
<path d="M1170 259C1194.85 259 1215 279.147 1215 304C1190.15 304 1170 283.853 1170 259Z" fill="white" fill-opacity="0.03"/>
<path d="M1260 259C1260 283.853 1239.85 304 1215 304C1215 279.147 1235.15 259 1260 259Z" fill="white" fill-opacity="0.03"/>
<path d="M1260 259C1284.85 259 1305 279.147 1305 304C1280.15 304 1260 283.853 1260 259Z" fill="white" fill-opacity="0.03"/>
<path d="M1350 259C1350 283.853 1329.85 304 1305 304C1305 279.147 1325.15 259 1350 259Z" fill="white" fill-opacity="0.03"/>
<path d="M1350 259C1374.85 259 1395 279.147 1395 304C1370.15 304 1350 283.853 1350 259Z" fill="white" fill-opacity="0.03"/>
<path d="M1440 259C1440 283.853 1419.85 304 1395 304C1395 279.147 1415.15 259 1440 259Z" fill="white" fill-opacity="0.03"/>
</svg>
